<?xml version="1.0" encoding="UTF-8" standalone="no"?>
<!-- Created with Inkscape (http://www.inkscape.org/) -->

<svg
   width="2.8000002in"
   height="1.8591188in"
   viewBox="0 0 71.120005 47.221616"
   version="1.1"
   id="svg1"
   inkscape:version="1.3 (0e150ed6c4, 2023-07-21)"
   sodipodi:docname="poster.svg"
   xml:space="preserve"
   inkscape:export-filename="poster.png"
   inkscape:export-xdpi="160"
   inkscape:export-ydpi="160"
   xmlns:inkscape="http://www.inkscape.org/namespaces/inkscape"
   xmlns:sodipodi="http://sodipodi.sourceforge.net/DTD/sodipodi-0.dtd"
   xmlns="http://www.w3.org/2000/svg"
   xmlns:svg="http://www.w3.org/2000/svg"><sodipodi:namedview
     id="namedview1"
     pagecolor="#ffffff"
     bordercolor="#999999"
     borderopacity="1"
     inkscape:showpageshadow="2"
     inkscape:pageopacity="0"
     inkscape:pagecheckerboard="false"
     inkscape:deskcolor="#d1d1d1"
     inkscape:document-units="in"
     inkscape:zoom="0.70710678"
     inkscape:cx="494.26764"
     inkscape:cy="484.36815"
     inkscape:window-width="1920"
     inkscape:window-height="1009"
     inkscape:window-x="-8"
     inkscape:window-y="-8"
     inkscape:window-maximized="1"
     inkscape:current-layer="layer1"
     inkscape:export-bgcolor="#ffffff00" /><defs
     id="defs1"><marker
       style="overflow:visible"
       id="ArrowWide"
       refX="0"
       refY="0"
       orient="auto-start-reverse"
       inkscape:stockid="Wide arrow"
       markerWidth="1"
       markerHeight="1"
       viewBox="0 0 1 1"
       inkscape:isstock="true"
       inkscape:collect="always"
       preserveAspectRatio="xMidYMid"><path
         style="fill:none;stroke:context-stroke;stroke-width:1;stroke-linecap:butt"
         d="M 3,-3 0,0 3,3"
         transform="rotate(180,0.125,0)"
         sodipodi:nodetypes="ccc"
         id="path95" /></marker></defs><g
     inkscape:label="Layer 1"
     inkscape:groupmode="layer"
     id="layer1"
     transform="translate(-2.5399987,-179.52741)"><g
       id="g106"
       transform="matrix(1.0541108,0,0,1.0541108,-1.6635842,66.704284)"
       inkscape:export-filename="..\..\Github\YesWeCan-Poster\assets\cyber_comms.svg"
       inkscape:export-xdpi="160"
       inkscape:export-ydpi="160"><path
         id="rect9-6-7"
         style="fill:#74d795;stroke:#000000;stroke-width:0.424228;stroke-linecap:square"
         d="m 4.199914,107.24368 h 9.735772 v 44.37335 H 4.199914 Z" /><path
         id="rect87"
         style="fill:#7ea2cd;stroke:#000000;stroke-width:0.424229;stroke-linecap:square"
         d="m 61.509102,107.24368 h 9.735771 v 44.37335 h -9.735771 z" /><path
         style="fill:#ffffff;fill-opacity:1;stroke:#000000;stroke-width:0.381;stroke-linecap:square;stroke-linejoin:round;stroke-dasharray:3.048, 1.143;stroke-dashoffset:1.3335;stroke-opacity:1;marker-end:url(#ArrowWide)"
         d="m 14.148533,112.44834 46.934827,3.7669"
         id="path87" /><path
         style="fill:#ffffff;fill-opacity:1;stroke:#000000;stroke-width:0.381;stroke-linecap:square;stroke-linejoin:round;stroke-dasharray:3.048, 1.143;stroke-dashoffset:1.3335;stroke-opacity:1;marker-end:url(#ArrowWide)"
         d="m 61.316226,120.93454 -46.934827,3.76689"
         id="path96" /><path
         style="fill:#ffffff;fill-opacity:1;stroke:#000000;stroke-width:0.381;stroke-linecap:square;stroke-linejoin:round;stroke-dasharray:3.048, 1.143;stroke-dashoffset:1.3335;stroke-opacity:1;marker-end:url(#ArrowWide)"
         d="m 14.148533,129.42073 46.934827,3.76689"
         id="path99" /><path
         style="fill:#ffffff;fill-opacity:1;stroke:#000000;stroke-width:0.381;stroke-linecap:square;stroke-linejoin:round;stroke-dasharray:3.048, 1.143;stroke-dashoffset:1.3335;stroke-opacity:1;marker-end:url(#ArrowWide)"
         d="m 14.148533,133.66383 46.934827,3.76689"
         id="path100" /><path
         style="fill:#ffffff;fill-opacity:1;stroke:#000000;stroke-width:0.381;stroke-linecap:square;stroke-linejoin:round;stroke-dasharray:3.048, 1.143;stroke-dashoffset:1.3335;stroke-opacity:1;marker-end:url(#ArrowWide)"
         d="m 14.148533,142.15002 46.934827,3.76689"
         id="path102" /><path
         d="m -134.93029,11.073802 c 0,0 0,-4.0180282 0,-4.0180282 0,0 1.87949,0 1.87949,0 0.28313,0 0.52409,0.06024 0.72891,0.1746969 0.20482,0.1144566 0.36144,0.2710814 0.46385,0.4638503 0.10241,0.198793 0.15663,0.4156581 0.15663,0.6566193 0,0.2349372 -0.0542,0.4518023 -0.15663,0.6445713 -0.10843,0.198793 -0.26506,0.3493937 -0.46385,0.4638503 -0.20482,0.1144566 -0.44578,0.1746969 -0.72891,0.1746969 0,0 -1.02408,0 -1.02408,0 0,0 0,1.4397432 0,1.4397432 z m 2.35539,-2.7288857 c 0,-0.1626488 -0.0542,-0.3012015 -0.16867,-0.40361 -0.11446,-0.1024085 -0.25301,-0.1506008 -0.42168,-0.1506008 0,0 -0.90963,0 -0.90963,0 0,0 0,1.1084216 0,1.1084216 0,0 0.90963,0 0.90963,0 0.17469,0 0.31325,-0.054216 0.4277,-0.1566248 0.10843,-0.1024085 0.16265,-0.2349372 0.16265,-0.397586 z m 1.13252,2.1626267 c 0,0 0.46385,-0.6505951 0.46385,-0.6505951 0.1506,0.1626491 0.33735,0.2891531 0.56024,0.3915621 0.21686,0.102408 0.45782,0.150601 0.71686,0.150601 0.22289,0 0.39156,-0.04217 0.51806,-0.132529 0.12048,-0.09036 0.18072,-0.192769 0.18072,-0.3192737 0,-0.1385526 -0.0663,-0.2409612 -0.19879,-0.3132495 -0.13253,-0.066264 -0.33734,-0.1325287 -0.61445,-0.198793 -0.31325,-0.072288 -0.56626,-0.1445767 -0.76505,-0.2168651 -0.19879,-0.072288 -0.36747,-0.192769 -0.51204,-0.3554178 -0.15061,-0.1626488 -0.22289,-0.3795139 -0.22289,-0.6566193 0,-0.2228891 0.0602,-0.4277061 0.18674,-0.6144511 0.12651,-0.1867449 0.3012,-0.3313216 0.53614,-0.4397542 0.22891,-0.1024085 0.49397,-0.1566248 0.8012,-0.1566248 0.63854,0 1.16263,0.186745 1.56624,0.5602349 0,0 -0.47589,0.6264991 -0.47589,0.6264991 -0.15663,-0.1445767 -0.33735,-0.2530093 -0.53614,-0.3313217 -0.20482,-0.072288 -0.40964,-0.1084325 -0.61445,-0.1084325 -0.18675,0 -0.33133,0.036144 -0.43373,0.1084325 -0.10241,0.078312 -0.15663,0.1746969 -0.15663,0.3012015 0,0.1265047 0.0602,0.2168651 0.18675,0.2710814 0.1265,0.06024 0.33132,0.1265046 0.61445,0.192769 0.30722,0.066264 0.56023,0.1385527 0.76505,0.2168651 0.19879,0.078312 0.37349,0.204817 0.52409,0.3674658 0.14458,0.1626488 0.21686,0.3855379 0.21686,0.6566193 0,0.3855381 -0.13855,0.6987871 -0.40963,0.9337251 -0.2771,0.234937 -0.67469,0.355417 -1.19878,0.355417 -0.36747,0 -0.69277,-0.05422 -0.97589,-0.168672 -0.28313,-0.114457 -0.5241,-0.271082 -0.72289,-0.469875 z m 5.80115,0.638547 c -0.39157,0 -0.74698,-0.09036 -1.06626,-0.265057 -0.31927,-0.174697 -0.57228,-0.415658 -0.75903,-0.734932 -0.18674,-0.3192733 -0.28313,-0.674691 -0.28313,-1.0783011 0,-0.40361 0.0964,-0.7590278 0.28313,-1.0783014 0.18675,-0.3192736 0.43976,-0.5662588 0.75903,-0.7409557 0.31928,-0.1746969 0.67469,-0.2590333 1.06626,-0.2590333 0.42168,0 0.77107,0.090361 1.04818,0.2710814 0.2771,0.1867449 0.49999,0.4216821 0.66264,0.7108355 0,0 -0.73493,0.3614418 -0.73493,0.3614418 -0.0904,-0.1686728 -0.21687,-0.3072255 -0.39156,-0.4216821 -0.1747,-0.1084325 -0.37349,-0.1626488 -0.58433,-0.1626488 -0.22892,0 -0.43976,0.054216 -0.6265,0.1686729 -0.18675,0.1144565 -0.33735,0.2771054 -0.43976,0.4758984 -0.10843,0.1987929 -0.16265,0.4277061 -0.16265,0.6746913 0,0.2469853 0.0542,0.4758984 0.16265,0.6746914 0.10241,0.198793 0.25301,0.3554177 0.43976,0.4698747 0.18674,0.114456 0.39758,0.174697 0.6265,0.174697 0.21686,0 0.40963,-0.05422 0.58433,-0.162649 0.17469,-0.108433 0.3012,-0.2469855 0.39156,-0.4216824 0,0 0.73493,0.3554174 0.73493,0.3554174 -0.37951,0.65662 -0.9518,0.987941 -1.71082,0.987941 z"
         id="text102"
         style="font-size:6.02403px;line-height:1;font-family:'Proxima Nova Bold';-inkscape-font-specification:'Proxima Nova Bold, Normal';stroke-width:0.635;stroke-linecap:square;stroke-linejoin:round;stroke-dasharray:4.73448, 1.77543;stroke-dashoffset:2.07133"
         transform="rotate(-90)"
         aria-label="PSC" /><path
         d="m -137.96942,68.440216 c 0,0 -1.5542,-4.018028 -1.5542,-4.018028 0,0 0.97589,0 0.97589,0 0,0 1.11445,3.090327 1.11445,3.090327 0,0 1.10842,-3.090327 1.10842,-3.090327 0,0 0.97589,0 0.97589,0 0,0 -1.54817,4.018028 -1.54817,4.018028 z m 2.78913,-1.457815 c 0,-0.28313 0.0663,-0.536139 0.19276,-0.771076 0.12651,-0.228913 0.30723,-0.409634 0.53614,-0.548187 0.22892,-0.138553 0.48795,-0.204817 0.7771,-0.204817 0.28313,0 0.53614,0.06626 0.75903,0.198793 0.22289,0.138553 0.39156,0.325298 0.51807,0.566259 0.12048,0.246985 0.18072,0.524091 0.18072,0.83734 0,0 0,0.168673 0,0.168673 0,0 -2.16263,0 -2.16263,0 0.0241,0.192769 0.10843,0.355418 0.25904,0.481922 0.1506,0.126505 0.34336,0.192769 0.5783,0.192769 0.13855,0 0.28313,-0.0241 0.42771,-0.07831 0.13855,-0.05422 0.25903,-0.120481 0.34939,-0.210841 0,0 0.33735,0.49397 0.33735,0.49397 -0.13856,0.126505 -0.31928,0.228914 -0.53012,0.295178 -0.21084,0.07229 -0.43373,0.108432 -0.66866,0.108432 -0.29518,0 -0.56024,-0.06626 -0.79518,-0.192769 -0.23493,-0.126504 -0.42168,-0.301201 -0.55421,-0.536138 -0.13855,-0.228913 -0.20481,-0.493971 -0.20481,-0.801196 z m 1.506,-0.915653 c -0.21686,0 -0.38553,0.06626 -0.50602,0.192769 -0.12048,0.132529 -0.19276,0.28313 -0.21084,0.451802 0,0 1.43372,0 1.43372,0 -0.0121,-0.162648 -0.0783,-0.313249 -0.19277,-0.445778 -0.12048,-0.132529 -0.29517,-0.198793 -0.52409,-0.198793 z m 3.98188,2.373468 c 0,0 0,-1.771065 0,-1.771065 0,-0.192769 -0.0482,-0.331321 -0.13855,-0.409634 -0.0904,-0.07831 -0.22891,-0.12048 -0.40361,-0.12048 -0.13855,0 -0.26506,0.03012 -0.37951,0.09638 -0.11446,0.06626 -0.21084,0.150601 -0.28313,0.246985 0,0 0,1.95781 0,1.95781 0,0 -0.76505,0 -0.76505,0 0,0 0,-4.018028 0,-4.018028 0,0 0.76505,0 0.76505,0 0,0 0,1.487935 0,1.487935 0.10241,-0.126504 0.24698,-0.228913 0.4277,-0.319273 0.1747,-0.09036 0.37349,-0.132529 0.59638,-0.132529 0.31325,0 0.54819,0.07831 0.71084,0.240961 0.15662,0.162649 0.23494,0.385538 0.23494,0.674692 0,0 0,2.066242 0,2.066242 z m 1.9036,-3.283096 c -0.12651,0 -0.22892,-0.04819 -0.31928,-0.138553 -0.0904,-0.09036 -0.13855,-0.192769 -0.13855,-0.319274 0,-0.126504 0.0482,-0.234937 0.13855,-0.325297 0.0904,-0.09036 0.19277,-0.132529 0.31928,-0.132529 0.1265,0 0.23493,0.04217 0.3253,0.132529 0.0904,0.09036 0.13252,0.198793 0.13252,0.325297 0,0.126505 -0.0422,0.228913 -0.13252,0.319274 -0.0904,0.09036 -0.1988,0.138553 -0.3253,0.138553 z m -0.37952,3.283096 c 0,0 0,-2.909607 0,-2.909607 0,0 0.76506,0 0.76506,0 0,0 0,2.909607 0,2.909607 z m 1.33734,-1.457815 c 0,-0.295178 0.0663,-0.554211 0.19879,-0.789148 0.13253,-0.228913 0.31325,-0.409634 0.54819,-0.542163 0.23494,-0.126505 0.49999,-0.192769 0.79517,-0.192769 0.27108,0 0.50602,0.04819 0.69879,0.144577 0.19277,0.102408 0.34337,0.228913 0.4518,0.379514 0,0 -0.49999,0.469874 -0.49999,0.469874 -0.13856,-0.210841 -0.34337,-0.313249 -0.61445,-0.313249 -0.23494,0 -0.42169,0.07831 -0.56626,0.228913 -0.1506,0.156624 -0.22289,0.361441 -0.22289,0.614451 0,0.253009 0.0723,0.457826 0.22289,0.614451 0.14457,0.156625 0.33132,0.234937 0.56626,0.234937 0.1265,0 0.24698,-0.03012 0.34939,-0.08434 0.10241,-0.05422 0.19277,-0.126505 0.26506,-0.228914 0,0 0.49999,0.463851 0.49999,0.463851 -0.10843,0.150601 -0.25903,0.277105 -0.44578,0.379514 -0.19277,0.102408 -0.4277,0.1506 -0.70481,0.1506 -0.29518,0 -0.56023,-0.06626 -0.79517,-0.198793 -0.23494,-0.126504 -0.41566,-0.307225 -0.54819,-0.542162 -0.13253,-0.228913 -0.19879,-0.493971 -0.19879,-0.789148 z m 3.19274,1.457815 c 0,0 0,-4.018028 0,-4.018028 0,0 0.76505,0 0.76505,0 0,0 0,4.018028 0,4.018028 z m 1.33734,-1.457815 c 0,-0.28313 0.0663,-0.536139 0.19277,-0.771076 0.1265,-0.228913 0.30722,-0.409634 0.53613,-0.548187 0.22892,-0.138553 0.48795,-0.204817 0.7771,-0.204817 0.28313,0 0.53614,0.06626 0.75903,0.198793 0.22289,0.138553 0.39156,0.325298 0.51807,0.566259 0.12048,0.246985 0.18072,0.524091 0.18072,0.83734 0,0 0,0.168673 0,0.168673 0,0 -2.16263,0 -2.16263,0 0.0241,0.192769 0.10843,0.355418 0.25904,0.481922 0.1506,0.126505 0.34337,0.192769 0.5783,0.192769 0.13856,0 0.28313,-0.0241 0.42771,-0.07831 0.13855,-0.05422 0.25903,-0.120481 0.34939,-0.210841 0,0 0.33735,0.49397 0.33735,0.49397 -0.13855,0.126505 -0.31928,0.228914 -0.53012,0.295178 -0.21084,0.07229 -0.43373,0.108432 -0.66866,0.108432 -0.29518,0 -0.56024,-0.06626 -0.79518,-0.192769 -0.23493,-0.126504 -0.42168,-0.301201 -0.55421,-0.536138 -0.13855,-0.228913 -0.20481,-0.493971 -0.20481,-0.801196 z m 1.506,-0.915653 c -0.21686,0 -0.38553,0.06626 -0.50601,0.192769 -0.12049,0.132529 -0.19277,0.28313 -0.21085,0.451802 0,0 1.43372,0 1.43372,0 -0.012,-0.162648 -0.0783,-0.313249 -0.19277,-0.445778 -0.12048,-0.132529 -0.29517,-0.198793 -0.52409,-0.198793 z"
         id="text103"
         style="font-size:6.02403px;line-height:1;font-family:'Proxima Nova Bold';-inkscape-font-specification:'Proxima Nova Bold, Normal';stroke-width:0.635;stroke-linecap:square;stroke-linejoin:round;stroke-dasharray:4.73448, 1.77543;stroke-dashoffset:2.07133"
         transform="rotate(-90)"
         aria-label="Vehicle" /><path
         d="m 60.593882,120.99251 c 0,0 0.141475,1.76276 0.141475,1.76276 0,0 0.627222,-0.0503 0.627222,-0.0503 0,0 0.01765,0.21998 0.01765,0.21998 0,0 -1.504141,0.12072 -1.504141,0.12072 0,0 -0.01765,-0.21998 -0.01765,-0.21998 0,0 0.630194,-0.0506 0.630194,-0.0506 0,0 -0.141475,-1.76275 -0.141475,-1.76275 z m -1.19499,0.0959 c 0,0 0.115232,1.43577 0.115232,1.43577 0,0 -0.222946,0.0179 -0.222946,0.0179 0,0 -0.01861,-0.23186 -0.01861,-0.23186 -0.05598,0.0853 -0.122316,0.15342 -0.201732,0.20766 -0.07644,0.054 -0.163713,0.0849 -0.255864,0.0923 0,0 -0.01837,-0.22889 -0.01837,-0.22889 0.02723,0.004 0.0572,0.004 0.08989,0.002 0.06837,-0.005 0.137804,-0.035 0.214247,-0.089 0.07644,-0.054 0.128629,-0.11204 0.156795,-0.17114 0,0 -0.08159,-1.01664 -0.08159,-1.01664 z m -1.87869,0.15078 c 0,0 0.01312,0.1635 0.01312,0.1635 0.111141,-0.14355 0.263441,-0.22159 0.459633,-0.23734 0.08621,-0.007 0.167898,0.004 0.245315,0.0372 0.08015,0.0295 0.14687,0.078 0.200396,0.14846 0.05626,0.0673 0.08696,0.15158 0.09483,0.24968 0.0081,0.10107 -0.0088,0.18918 -0.05356,0.26458 -0.04184,0.0752 -0.09997,0.13368 -0.174391,0.17555 -0.07145,0.0416 -0.150282,0.0659 -0.236487,0.0728 -0.205111,0.0165 -0.367908,-0.0363 -0.491364,-0.15802 0,0 0.02076,0.25862 0.02076,0.25862 0.0076,0.0951 0.0463,0.16682 0.118962,0.21484 0.07266,0.048 0.161017,0.0678 0.268031,0.0593 0.08621,-0.007 0.165274,-0.0282 0.233992,-0.0666 0.06872,-0.0384 0.133033,-0.0944 0.18997,-0.16782 0,0 0.116447,0.14622 0.116447,0.14622 -0.07085,0.0865 -0.152042,0.15581 -0.244064,0.20209 -0.08905,0.046 -0.194632,0.0725 -0.310564,0.0818 -0.163493,0.0131 -0.300362,-0.0148 -0.410845,-0.0867 -0.110483,-0.0719 -0.170799,-0.18973 -0.183921,-0.35323 0,0 -0.07921,-0.9869 -0.07921,-0.9869 z m 0.02434,0.30321 c 0,0 0.02171,0.27051 0.02171,0.27051 0.04615,0.0531 0.106208,0.0932 0.177202,0.12041 0.07373,0.024 0.15221,0.0327 0.23247,0.0262 0.104041,-0.008 0.184889,-0.0448 0.245753,-0.10648 0.0636,-0.0649 0.0901,-0.14485 0.0827,-0.237 -0.0074,-0.0922 -0.04606,-0.16384 -0.118962,-0.21484 -0.07017,-0.0542 -0.155788,-0.0772 -0.259829,-0.0689 -0.08026,0.006 -0.156356,0.0275 -0.225074,0.0659 -0.06598,0.0352 -0.118886,0.0843 -0.155969,0.14415 z m -1.662244,-0.17176 c 0,0 0.07539,0.93935 0.07539,0.93935 0.0098,0.12188 0.04345,0.20594 0.103989,0.25194 0.06054,0.046 0.139732,0.0636 0.243773,0.0552 0.08323,-0.007 0.161824,-0.0339 0.235533,-0.0847 0.07668,-0.051 0.132079,-0.10633 0.171658,-0.17234 0,0 -0.08422,-1.04933 -0.08422,-1.04933 0,0 0.222945,-0.0179 0.222945,-0.0179 0,0 0.115232,1.43577 0.115232,1.43577 0,0 -0.222946,0.0179 -0.222946,0.0179 0,0 -0.0167,-0.20808 -0.0167,-0.20808 -0.05123,0.0699 -0.121013,0.13238 -0.209108,0.19031 -0.08833,0.055 -0.184522,0.0866 -0.282618,0.0945 -0.306179,0.0246 -0.470188,-0.11783 -0.495,-0.42699 0,0 -0.08088,-1.00771 -0.08088,-1.00771 z m -0.528723,0.23391 c 0,0 -0.103049,0.16983 -0.103049,0.16983 -0.05507,-0.0524 -0.127493,-0.0975 -0.2168,-0.1292 -0.08931,-0.0317 -0.180156,-0.0454 -0.272307,-0.038 -0.107014,0.009 -0.188577,0.0361 -0.24445,0.0854 -0.05587,0.0494 -0.08107,0.10822 -0.07534,0.17957 0.0057,0.0713 0.03975,0.12246 0.105034,0.15312 0.06505,0.0277 0.159824,0.053 0.284087,0.0729 0.112134,0.0179 0.203221,0.0345 0.273738,0.0558 0.07052,0.0213 0.133071,0.0551 0.188138,0.10757 0.05507,0.0524 0.08457,0.12185 0.09197,0.214 0.006,0.0743 -0.0091,0.14733 -0.0487,0.21334 -0.03661,0.0658 -0.09521,0.11833 -0.172373,0.16342 -0.07716,0.0451 -0.170851,0.0706 -0.280838,0.0794 -0.217001,0.0174 -0.397872,-0.0369 -0.548798,-0.16538 0,0 0.09164,-0.16292 0.09164,-0.16292 0.04888,0.0499 0.114887,0.0895 0.191826,0.11624 0.07694,0.0267 0.161605,0.0379 0.250783,0.0307 0.0981,-0.008 0.173714,-0.0349 0.227092,-0.0781 0.05338,-0.0432 0.07881,-0.0991 0.07356,-0.16447 -0.005,-0.0624 -0.03855,-0.1076 -0.100391,-0.13255 -0.0591,-0.0282 -0.150668,-0.0507 -0.268747,-0.0682 -0.112134,-0.0179 -0.206432,-0.0373 -0.282894,-0.0581 -0.07349,-0.021 -0.139494,-0.0606 -0.194561,-0.11303 -0.05531,-0.0554 -0.0885,-0.13351 -0.09637,-0.2316 -0.01026,-0.12783 0.03193,-0.23592 0.12358,-0.32406 0.09165,-0.0881 0.228027,-0.14096 0.406384,-0.15528 0.243754,-0.0196 0.442938,0.0392 0.597791,0.1794 z m -3.255414,0.0698 c 0,0 0.07825,0.97502 0.07825,0.97502 0.0074,0.0922 0.03417,0.1648 0.08305,0.21472 0.04865,0.047 0.116189,0.0685 0.205368,0.0613 0.07134,-0.006 0.141015,-0.0323 0.208779,-0.0826 0.06776,-0.0503 0.120188,-0.10538 0.15406,-0.16793 0,0 -0.08446,-1.05231 -0.08446,-1.05231 0,0 0.222945,-0.0179 0.222945,-0.0179 0,0 0.07825,0.97501 0.07825,0.97501 0.01599,0.19917 0.113036,0.29011 0.28842,0.27603 0.06837,-0.005 0.138043,-0.032 0.202834,-0.0821 0.06776,-0.0503 0.120188,-0.10539 0.156795,-0.17115 0,0 -0.08422,-1.04933 -0.08422,-1.04933 0,0 0.222945,-0.0179 0.222945,-0.0179 0,0 0.115232,1.43577 0.115232,1.43577 0,0 -0.222946,0.0179 -0.222946,0.0179 0,0 -0.0167,-0.20809 -0.0167,-0.20809 -0.03114,0.0593 -0.08927,0.11786 -0.174153,0.17853 -0.08488,0.0607 -0.174887,0.0948 -0.270011,0.10245 -0.104041,0.008 -0.192156,-0.009 -0.261609,-0.0538 -0.06945,-0.0453 -0.119053,-0.10413 -0.146302,-0.18272 -0.03886,0.0749 -0.09925,0.14259 -0.184135,0.20326 -0.08488,0.0607 -0.17786,0.0951 -0.275957,0.10292 -0.130795,0.0105 -0.234726,-0.0171 -0.309061,-0.0859 -0.07433,-0.0688 -0.115622,-0.17322 -0.127073,-0.3159 0,0 -0.08326,-1.03744 -0.08326,-1.03744 z m -0.644988,1.73015 c 0.03864,-0.003 0.07551,0.009 0.10762,0.0362 0.03187,0.0244 0.0496,0.0588 0.05294,0.10046 0.0033,0.0416 -0.0087,0.0785 -0.036,0.11059 -0.02734,0.0321 -0.06182,0.0498 -0.100463,0.0529 -0.04162,0.003 -0.07848,-0.009 -0.110592,-0.036 -0.03211,-0.0273 -0.04984,-0.0618 -0.05318,-0.10343 -0.0033,-0.0416 0.0087,-0.0785 0.03624,-0.10762 0.02734,-0.0321 0.06182,-0.0498 0.103435,-0.0532 z m -0.02385,-1.67647 c 0,0 0.115232,1.43578 0.115232,1.43578 0,0 -0.222946,0.0179 -0.222946,0.0179 0,0 -0.115232,-1.43577 -0.115232,-1.43577 z m -1.03436,0.0471 c 0.104041,-0.008 0.186688,0.0149 0.244728,0.0671 0.05804,0.0522 0.09147,0.13327 0.1003,0.24326 0,0 0.07539,0.93934 0.07539,0.93934 0,0 0.237809,-0.0191 0.237809,-0.0191 0,0 0.01575,0.19619 0.01575,0.19619 0,0 -0.237809,0.0191 -0.237809,0.0191 0,0 0.03149,0.39238 0.03149,0.39238 0,0 -0.222946,0.0179 -0.222946,0.0179 0,0 -0.03149,-0.39238 -0.03149,-0.39238 0,0 -0.291316,0.0234 -0.291316,0.0234 0,0 -0.01575,-0.19619 -0.01575,-0.19619 0,0 0.291316,-0.0234 0.291316,-0.0234 0,0 -0.07157,-0.89179 -0.07157,-0.89179 -0.0045,-0.0565 -0.02,-0.10011 -0.04938,-0.13066 -0.02641,-0.0308 -0.06351,-0.0458 -0.11107,-0.0419 -0.02973,0.002 -0.05898,0.0107 -0.08477,0.0248 -0.02604,0.0111 -0.04863,0.0278 -0.06206,0.0469 0,0 -0.07876,-0.16122 -0.07876,-0.16122 0.06039,-0.0677 0.14718,-0.10455 0.260139,-0.11362 z m -2.217567,0.17797 c 0.187274,-0.015 0.360292,0.016 0.521786,0.0898 0.161495,0.0738 0.292915,0.18293 0.394738,0.33332 0.101822,0.15039 0.160488,0.3222 0.176472,0.52136 0.01599,0.19917 -0.01453,0.37813 -0.09106,0.54283 -0.07653,0.16471 -0.18863,0.29637 -0.336287,0.39498 -0.147657,0.0986 -0.313756,0.15383 -0.50103,0.16886 -0.169439,0.0136 -0.320933,-0.0101 -0.454242,-0.0683 -0.130576,-0.0613 -0.242252,-0.14809 -0.338239,-0.26305 0,0 0.198778,-0.13263 0.198778,-0.13263 0.0634,0.0817 0.146174,0.14384 0.248564,0.18947 0.102391,0.0456 0.211552,0.0638 0.327484,0.0545 0.139713,-0.0112 0.264911,-0.0542 0.375355,-0.13184 0.110445,-0.0777 0.19175,-0.18293 0.247366,-0.31006 0.05859,-0.12736 0.08007,-0.2697 0.06767,-0.42427 -0.01241,-0.15458 -0.05608,-0.28869 -0.134231,-0.40508 -0.07518,-0.11663 -0.172231,-0.20757 -0.29365,-0.26664 -0.121419,-0.0591 -0.252104,-0.0845 -0.391817,-0.0733 -0.115932,0.009 -0.220798,0.0446 -0.3146,0.10602 -0.09404,0.0584 -0.165603,0.13596 -0.215164,0.2267 0,0 -0.22036,-0.099 -0.22036,-0.099 0.172226,-0.27709 0.4144,-0.42817 0.73247,-0.4537 z m -1.697363,0.13623 c 0.142685,-0.0114 0.270159,0.0112 0.38266,0.071 0.112502,0.0598 0.202892,0.14228 0.268676,0.25368 0.06876,0.11116 0.108503,0.23362 0.119716,0.37334 0.01121,0.13971 -0.0085,0.26694 -0.05864,0.38765 -0.04718,0.12046 -0.123251,0.21632 -0.224778,0.29328 -0.101765,0.074 -0.22399,0.1167 -0.366676,0.12816 -0.142685,0.0114 -0.270159,-0.0112 -0.382422,-0.068 -0.112501,-0.0598 -0.202891,-0.14228 -0.271648,-0.25344 -0.06578,-0.1114 -0.10553,-0.23386 -0.116743,-0.37358 -0.01121,-0.13971 0.0085,-0.26694 0.05567,-0.38741 0.05015,-0.1207 0.126223,-0.21656 0.22775,-0.29352 0.101527,-0.077 0.223752,-0.11968 0.366438,-0.13113 z m 0.01598,0.19917 c -0.0981,0.008 -0.182154,0.0415 -0.249441,0.0978 -0.06729,0.0563 -0.115546,0.12595 -0.147271,0.21526 -0.03173,0.0893 -0.04217,0.18289 -0.03429,0.28099 0.0079,0.0981 0.0331,0.18881 0.07867,0.27192 0.04532,0.0801 0.104318,0.1442 0.179717,0.18901 0.0754,0.0448 0.163513,0.0617 0.261609,0.0538 0.0981,-0.008 0.182393,-0.0386 0.24968,-0.0948 0.07026,-0.0565 0.118279,-0.12916 0.150243,-0.2155 0.03172,-0.0893 0.04216,-0.18289 0.03429,-0.28099 -0.0079,-0.0981 -0.0331,-0.18881 -0.07867,-0.27192 -0.04556,-0.0831 -0.104318,-0.1442 -0.182689,-0.18877 -0.0754,-0.0448 -0.163752,-0.0647 -0.261848,-0.0568 z m -2.055308,4.1e-4 c 0,0 0.01622,0.20213 0.01622,0.20213 0.05396,-0.0731 0.123747,-0.13558 0.209347,-0.18733 0.08857,-0.052 0.181787,-0.0834 0.282856,-0.0915 0.306179,-0.0246 0.46995,0.11486 0.494523,0.42104 0,0 0.08135,1.01366 0.08135,1.01366 0,0 -0.222946,0.0179 -0.222946,0.0179 0,0 -0.07587,-0.94529 -0.07587,-0.94529 -0.0095,-0.11891 -0.04298,-0.2 -0.103512,-0.246 -0.05756,-0.0462 -0.139732,-0.0636 -0.243773,-0.0552 -0.08323,0.007 -0.161824,0.0339 -0.238744,0.082 -0.07395,0.0478 -0.129344,0.10313 -0.168924,0.16913 0,0 0.08469,1.05528 0.08469,1.05528 0,0 -0.222946,0.0179 -0.222946,0.0179 0,0 -0.115232,-1.43577 -0.115232,-1.43577 z m -1.637909,0.13145 c 0,0 0.07539,0.93935 0.07539,0.93935 0.0098,0.12187 0.04345,0.20593 0.103989,0.25193 0.06053,0.046 0.139732,0.0636 0.243773,0.0552 0.08323,-0.007 0.161824,-0.0339 0.235533,-0.0847 0.07668,-0.051 0.132078,-0.10634 0.171658,-0.17234 0,0 -0.08422,-1.04933 -0.08422,-1.04933 0,0 0.222946,-0.0179 0.222946,-0.0179 0,0 0.115232,1.43577 0.115232,1.43577 0,0 -0.222946,0.0179 -0.222946,0.0179 0,0 -0.0167,-0.20808 -0.0167,-0.20808 -0.05123,0.0699 -0.121013,0.13237 -0.209108,0.1903 -0.08833,0.055 -0.184522,0.0866 -0.282618,0.0945 -0.306179,0.0246 -0.470188,-0.11784 -0.495,-0.42699 0,0 -0.08088,-1.00772 -0.08088,-1.00772 z m -1.034363,0.0471 c 0.104041,-0.008 0.186688,0.0149 0.244728,0.0671 0.05804,0.0522 0.09147,0.13328 0.1003,0.24326 0,0 0.07539,0.93935 0.07539,0.93935 0,0 0.237809,-0.0191 0.237809,-0.0191 0,0 0.01575,0.19619 0.01575,0.19619 0,0 -0.237809,0.0191 -0.237809,0.0191 0,0 0.03149,0.39238 0.03149,0.39238 0,0 -0.222946,0.0179 -0.222946,0.0179 0,0 -0.03149,-0.39239 -0.03149,-0.39239 0,0 -0.291316,0.0234 -0.291316,0.0234 0,0 -0.01575,-0.19619 -0.01575,-0.19619 0,0 0.291316,-0.0234 0.291316,-0.0234 0,0 -0.07157,-0.89178 -0.07157,-0.89178 -0.0045,-0.0565 -0.02,-0.10012 -0.04938,-0.13067 -0.02641,-0.0308 -0.06351,-0.0458 -0.11107,-0.0419 -0.02973,0.002 -0.05897,0.0107 -0.08477,0.0247 -0.02604,0.0111 -0.04863,0.0278 -0.06206,0.0469 0,0 -0.07876,-0.16122 -0.07876,-0.16122 0.06039,-0.0677 0.14718,-0.10456 0.260138,-0.11363 z m -0.367457,0.7894 c 0.01097,0.13674 -0.0087,0.26397 -0.06185,0.38492 -0.05312,0.12094 -0.129196,0.2168 -0.230723,0.29376 -0.101527,0.0769 -0.22078,0.11943 -0.354547,0.13017 -0.139713,0.0112 -0.267187,-0.0115 -0.376716,-0.0715 -0.109528,-0.06 -0.194212,-0.14597 -0.259996,-0.25737 -0.06578,-0.1114 -0.103035,-0.24005 -0.114725,-0.38571 0,0 -0.0045,-0.0565 -0.0045,-0.0565 0,0 1.162291,-0.0933 1.162291,-0.0933 -0.02013,-0.139 -0.08318,-0.25361 -0.182966,-0.34133 -0.09979,-0.0877 -0.22548,-0.12551 -0.37411,-0.11358 -0.08323,0.007 -0.162301,0.028 -0.239937,0.0671 -0.07466,0.0389 -0.136483,0.0887 -0.188429,0.14975 0,0 -0.118705,-0.13707 -0.118705,-0.13707 0.133968,-0.15734 0.318251,-0.24693 0.553087,-0.26578 0.139713,-0.0112 0.27016,0.0112 0.385156,0.0648 0.114997,0.0536 0.20836,0.13586 0.280089,0.24678 0.07173,0.11092 0.114926,0.23909 0.126616,0.38475 z m -0.658941,0.62431 c 0.0981,-0.008 0.17942,-0.0383 0.243973,-0.0914 0.06455,-0.053 0.113289,-0.1168 0.142996,-0.19398 0.03268,-0.0774 0.04752,-0.1534 0.04429,-0.23093 0,0 -0.942318,0.0756 -0.942318,0.0756 0.0092,0.077 0.03297,0.14994 0.07164,0.22163 0.04163,0.0714 0.09991,0.12661 0.172101,0.16868 0.07516,0.0418 0.163274,0.0587 0.267316,0.0503 z m -1.155608,-1.20268 c 0,0 0.115232,1.43577 0.115232,1.43577 0,0 -0.222946,0.0179 -0.222946,0.0179 0,0 -0.01861,-0.23186 -0.01861,-0.23186 -0.05598,0.0853 -0.122316,0.15342 -0.201731,0.20766 -0.07644,0.054 -0.163714,0.0849 -0.255864,0.0923 0,0 -0.01837,-0.22889 -0.01837,-0.22889 0.02723,0.004 0.0572,0.004 0.08989,0.002 0.06837,-0.005 0.137804,-0.035 0.214248,-0.089 0.07644,-0.054 0.128628,-0.11204 0.156794,-0.17114 0,0 -0.08159,-1.01664 -0.08159,-1.01664 z M 37.23806,122.867 c 0,0 0.95579,1.9188 0.95579,1.9188 0,0 -0.282398,0.0227 -0.282398,0.0227 0,0 -0.806257,-1.65854 -0.806257,-1.65854 0,0 -0.531418,1.7659 -0.531418,1.7659 0,0 -0.282398,0.0227 -0.282398,0.0227 0,0 0.640502,-2.04691 0.640502,-2.04691 z m -2.253243,0.18084 c 0,0 0.01312,0.1635 0.01312,0.1635 0.111141,-0.14355 0.263441,-0.22159 0.459633,-0.23734 0.08621,-0.007 0.167898,0.004 0.245314,0.0372 0.08015,0.0295 0.14687,0.078 0.200397,0.14846 0.05626,0.0673 0.08696,0.15158 0.09483,0.24968 0.0081,0.10107 -0.0087,0.18918 -0.05356,0.26458 -0.04184,0.0752 -0.09997,0.13368 -0.174391,0.17555 -0.07145,0.0416 -0.150282,0.0659 -0.236487,0.0728 -0.205111,0.0165 -0.367908,-0.0363 -0.491364,-0.15802 0,0 0.02076,0.25862 0.02076,0.25862 0.0076,0.0951 0.0463,0.16682 0.118962,0.21483 0.07266,0.048 0.161017,0.0679 0.268031,0.0593 0.08621,-0.007 0.165273,-0.0282 0.233992,-0.0666 0.06872,-0.0384 0.133032,-0.0944 0.18997,-0.16782 0,0 0.116447,0.14622 0.116447,0.14622 -0.07085,0.0865 -0.152042,0.15581 -0.244064,0.20209 -0.08905,0.046 -0.194632,0.0725 -0.310564,0.0818 -0.163493,0.0131 -0.300362,-0.0148 -0.410845,-0.0867 -0.110483,-0.0719 -0.170799,-0.18973 -0.183921,-0.35323 0,0 -0.07921,-0.9869 -0.07921,-0.9869 z m 0.02434,0.30321 c 0,0 0.02171,0.27051 0.02171,0.27051 0.04615,0.0531 0.106208,0.0932 0.177202,0.12041 0.07373,0.024 0.152209,0.0327 0.23247,0.0262 0.104041,-0.008 0.184889,-0.0448 0.245753,-0.10648 0.0636,-0.0649 0.09009,-0.14485 0.0827,-0.237 -0.0074,-0.0922 -0.04606,-0.16385 -0.118962,-0.21484 -0.07017,-0.0542 -0.155788,-0.0773 -0.259829,-0.0689 -0.08026,0.006 -0.156356,0.0275 -0.225074,0.0659 -0.06598,0.0352 -0.118886,0.0843 -0.155969,0.14415 z m -0.693173,-0.24953 c 0,0 0.15913,1.98273 0.15913,1.98273 0,0 -0.222946,0.0179 -0.222946,0.0179 0,0 -0.15913,-1.98273 -0.15913,-1.98273 z m -1.63791,0.13145 c 0,0 0.01622,0.20214 0.01622,0.20214 0.05397,-0.0731 0.123748,-0.13558 0.209348,-0.18733 0.08857,-0.052 0.181787,-0.0834 0.282856,-0.0915 0.306179,-0.0246 0.469949,0.11486 0.494522,0.42104 0,0 0.08135,1.01366 0.08135,1.01366 0,0 -0.222946,0.0179 -0.222946,0.0179 0,0 -0.07587,-0.94529 -0.07587,-0.94529 -0.0095,-0.1189 -0.04298,-0.19999 -0.103512,-0.24599 -0.05756,-0.0462 -0.139732,-0.0636 -0.243774,-0.0552 -0.08323,0.007 -0.161823,0.0339 -0.238744,0.082 -0.07395,0.0478 -0.129344,0.10313 -0.168923,0.16913 0,0 0.08469,1.05528 0.08469,1.05528 0,0 -0.222946,0.0179 -0.222946,0.0179 0,0 -0.115232,-1.43577 -0.115232,-1.43577 z m -0.527873,0.76638 c 0.01098,0.13674 -0.0087,0.26397 -0.06185,0.38491 -0.05312,0.12095 -0.129196,0.2168 -0.230723,0.29376 -0.101526,0.077 -0.220779,0.11944 -0.354547,0.13018 -0.139712,0.0112 -0.267186,-0.0115 -0.376715,-0.0715 -0.109529,-0.06 -0.194212,-0.14597 -0.259997,-0.25736 -0.06578,-0.1114 -0.103034,-0.24005 -0.114725,-0.38571 0,0 -0.0045,-0.0565 -0.0045,-0.0565 0,0 1.162291,-0.0933 1.162291,-0.0933 -0.02013,-0.139 -0.08318,-0.25361 -0.182967,-0.34134 -0.09979,-0.0877 -0.225479,-0.1255 -0.37411,-0.11358 -0.08323,0.007 -0.162301,0.028 -0.239937,0.0671 -0.07466,0.0389 -0.136482,0.0887 -0.188429,0.14975 0,0 -0.118704,-0.13707 -0.118704,-0.13707 0.133968,-0.15735 0.31825,-0.24693 0.553087,-0.26578 0.139713,-0.0112 0.270159,0.0112 0.385156,0.0648 0.114997,0.0536 0.20836,0.13585 0.280089,0.24678 0.07173,0.11092 0.114925,0.23909 0.126615,0.38475 z m -0.658941,0.62431 c 0.0981,-0.008 0.179421,-0.0383 0.243974,-0.0914 0.06455,-0.053 0.113288,-0.11679 0.142995,-0.19397 0.03268,-0.0774 0.04752,-0.1534 0.04429,-0.23093 0,0 -0.942318,0.0756 -0.942318,0.0756 0.0092,0.077 0.03298,0.14993 0.07164,0.22162 0.04164,0.0715 0.09991,0.12661 0.172102,0.16869 0.07516,0.0418 0.163274,0.0587 0.267315,0.0503 z m -1.015487,-1.02246 c 0,0 -0.103049,0.16983 -0.103049,0.16983 -0.05507,-0.0524 -0.127493,-0.0975 -0.2168,-0.1292 -0.08931,-0.0317 -0.180155,-0.0454 -0.272306,-0.038 -0.107014,0.009 -0.188578,0.0361 -0.244451,0.0854 -0.05587,0.0494 -0.08107,0.10823 -0.07534,0.17957 0.0057,0.0713 0.03975,0.12246 0.105034,0.15312 0.06505,0.0277 0.159824,0.053 0.284087,0.0729 0.112134,0.0179 0.203221,0.0345 0.273738,0.0558 0.07052,0.0213 0.133071,0.0551 0.188138,0.10756 0.05507,0.0524 0.08457,0.12186 0.09197,0.21401 0.006,0.0743 -0.0091,0.14733 -0.0487,0.21333 -0.03661,0.0658 -0.09521,0.11834 -0.172373,0.16342 -0.07716,0.0451 -0.170851,0.0706 -0.280838,0.0794 -0.217,0.0174 -0.397872,-0.0369 -0.548798,-0.16537 0,0 0.09164,-0.16293 0.09164,-0.16293 0.04888,0.0499 0.114887,0.0895 0.191827,0.11624 0.07694,0.0267 0.161604,0.0379 0.250782,0.0307 0.0981,-0.008 0.173714,-0.0349 0.227092,-0.0781 0.05338,-0.0432 0.07881,-0.0991 0.07356,-0.16446 -0.005,-0.0624 -0.03855,-0.1076 -0.100392,-0.13256 -0.0591,-0.0282 -0.150668,-0.0507 -0.268747,-0.0682 -0.112134,-0.0179 -0.206432,-0.0373 -0.282894,-0.0581 -0.07349,-0.021 -0.139494,-0.0606 -0.194561,-0.11303 -0.05531,-0.0554 -0.0885,-0.13351 -0.09637,-0.2316 -0.01026,-0.12782 0.03193,-0.23592 0.12358,-0.32405 0.09166,-0.0881 0.228028,-0.14097 0.406384,-0.15528 0.243754,-0.0196 0.442939,0.0392 0.597791,0.17939 z"
         id="text104"
         style="font-size:2.98217px;line-height:1.85;font-family:'Proxima Nova';-inkscape-font-specification:'Proxima Nova, Normal';stroke-width:0.381;stroke-linecap:square"
         transform="rotate(180,44.342019,121.84917)"
         aria-label="Transmit Counter Values" /><path
         d="m 23.151213,113.17088 c 0,0 -0.442122,-0.8283 -0.442122,-0.8283 0,0 -0.395357,-0.0317 -0.395357,-0.0317 0,0 -0.06322,0.78774 -0.06322,0.78774 0,0 -0.246726,-0.0198 -0.246726,-0.0198 0,0 0.15913,-1.98273 0.15913,-1.98273 0,0 0.79666,0.0639 0.79666,0.0639 0.121877,0.01 0.226982,0.0422 0.318289,0.0973 0.08809,0.0579 0.156923,0.13227 0.203034,0.22871 0.04314,0.0962 0.06154,0.2024 0.052,0.3213 -0.0093,0.11594 -0.04096,0.21212 -0.09223,0.29178 -0.05448,0.0824 -0.122154,0.14277 -0.20302,0.18116 -0.08408,0.0411 -0.172431,0.061 -0.265298,0.0625 0,0 0.470178,0.85149 0.470178,0.85149 z m 0.126039,-1.38404 c 0.0088,-0.10999 -0.01945,-0.205 -0.08804,-0.28231 -0.06883,-0.0743 -0.161089,-0.11764 -0.277021,-0.12695 0,0 -0.520207,-0.0417 -0.520207,-0.0417 0,0 -0.06084,0.75802 -0.06084,0.75802 0,0 0.520207,0.0417 0.520207,0.0417 0.115932,0.009 0.213918,-0.0187 0.29396,-0.0841 0.08004,-0.0654 0.123108,-0.15467 0.131935,-0.26465 z m 0.499463,0.71023 c 0.01098,-0.13674 0.05072,-0.2592 0.122451,-0.37012 0.07173,-0.11093 0.162119,-0.19342 0.274621,-0.25321 0.112501,-0.0598 0.237002,-0.0827 0.37077,-0.072 0.139712,0.0112 0.261938,0.0539 0.360492,0.13065 0.09855,0.0767 0.168446,0.17508 0.215621,0.29554 0.04717,0.12047 0.06343,0.25341 0.05174,0.39907 0,0 -0.0045,0.0565 -0.0045,0.0565 0,0 -1.162291,-0.0933 -1.162291,-0.0933 -0.0023,0.14043 0.04167,0.26363 0.126186,0.36615 0.08452,0.10252 0.202576,0.15986 0.351207,0.17179 0.08323,0.007 0.164686,-0.002 0.247571,-0.028 0.07991,-0.0265 0.148888,-0.0658 0.209901,-0.11778 0,0 0.09532,0.15425 0.09532,0.15425 -0.157349,0.13397 -0.35356,0.19301 -0.588396,0.17416 -0.139713,-0.0112 -0.264911,-0.0542 -0.369888,-0.12542 -0.104976,-0.0712 -0.184025,-0.16735 -0.237145,-0.28829 -0.05312,-0.12094 -0.07532,-0.25436 -0.06363,-0.40002 z m 0.750077,-0.51122 c -0.0981,-0.008 -0.183238,0.009 -0.255425,0.0513 -0.07219,0.0421 -0.130466,0.0972 -0.172101,0.16868 -0.04461,0.0712 -0.07138,0.14386 -0.08056,0.22091 0,0 0.942318,0.0756 0.942318,0.0756 0.0032,-0.0775 -0.0086,-0.15327 -0.03538,-0.23021 -0.02971,-0.0772 -0.07844,-0.14093 -0.142996,-0.19398 -0.06752,-0.0533 -0.151822,-0.084 -0.255864,-0.0923 z m 2.165491,2.01971 c 0,0 -0.222946,-0.0179 -0.222946,-0.0179 0,0 0.06131,-0.76396 0.06131,-0.76396 -0.06292,0.0757 -0.139274,0.13243 -0.226086,0.17034 -0.08681,0.0379 -0.17766,0.0516 -0.275756,0.0437 -0.12485,-0.01 -0.232451,-0.0486 -0.325537,-0.11887 -0.09309,-0.0703 -0.160483,-0.16247 -0.204685,-0.28269 -0.04444,-0.11726 -0.06046,-0.25317 -0.04829,-0.40478 0.01217,-0.1516 0.04966,-0.28322 0.112468,-0.39486 0.06257,-0.10866 0.143807,-0.1889 0.246913,-0.24345 0.102868,-0.0516 0.21524,-0.0725 0.34009,-0.0625 0.0981,0.008 0.188338,0.039 0.270965,0.0906 0.07965,0.0513 0.143015,0.11918 0.190558,0.19779 0,0 0.01718,-0.21403 0.01718,-0.21403 0,0 0.222946,0.0179 0.222946,0.0179 z m -0.147318,-0.96021 c 0,0 0.05201,-0.64803 0.05201,-0.64803 -0.03339,-0.0685 -0.08855,-0.12677 -0.165235,-0.1778 -0.07668,-0.051 -0.158245,-0.0785 -0.244451,-0.0854 -0.139712,-0.0112 -0.256728,0.0303 -0.348311,0.12761 -0.09158,0.0974 -0.143697,0.22482 -0.156819,0.38831 -0.01312,0.1635 0.018,0.29763 0.09288,0.40835 0.07488,0.11073 0.183548,0.1733 0.32326,0.18451 0.08621,0.007 0.171348,-0.0102 0.255187,-0.0483 0.08384,-0.0382 0.147586,-0.0869 0.191478,-0.14918 z m 1.606179,0.52681 c 0,0 0.01622,-0.20213 0.01622,-0.20213 -0.06494,0.0636 -0.143788,0.11411 -0.236545,0.15154 -0.09573,0.0372 -0.192762,0.0533 -0.293831,0.0452 -0.306179,-0.0246 -0.445615,-0.18834 -0.421041,-0.49452 0,0 0.08135,-1.01366 0.08135,-1.01366 0,0 0.222946,0.0179 0.222946,0.0179 0,0 -0.07587,0.94529 -0.07587,0.94529 -0.0095,0.1189 0.01053,0.20428 0.06295,0.25935 0.04945,0.0548 0.127803,0.0851 0.231845,0.0934 0.08323,0.007 0.165163,-0.008 0.248764,-0.0429 0.08063,-0.0354 0.144136,-0.0812 0.193735,-0.14002 0,0 0.08469,-1.05528 0.08469,-1.05528 0,0 0.222946,0.0179 0.222946,0.0179 0,0 -0.115233,1.43578 -0.115233,1.43578 z m 0.64334,-0.67237 c 0.01097,-0.13674 0.05072,-0.2592 0.12245,-0.37013 0.07173,-0.11092 0.16212,-0.19342 0.274621,-0.2532 0.112502,-0.0598 0.237003,-0.0827 0.370771,-0.072 0.139712,0.0112 0.261938,0.0539 0.360492,0.13065 0.09855,0.0767 0.168446,0.17508 0.215621,0.29554 0.04717,0.12047 0.06343,0.25341 0.05174,0.39907 0,0 -0.0045,0.0565 -0.0045,0.0565 0,0 -1.162291,-0.0933 -1.162291,-0.0933 -0.0023,0.14043 0.04167,0.26363 0.126185,0.36615 0.08452,0.10252 0.202577,0.15986 0.351207,0.17179 0.08323,0.007 0.164687,-0.002 0.247572,-0.028 0.07991,-0.0265 0.148888,-0.0658 0.209901,-0.11778 0,0 0.09532,0.15425 0.09532,0.15425 -0.157348,0.13396 -0.353559,0.19301 -0.588396,0.17416 -0.139712,-0.0112 -0.26491,-0.0542 -0.369887,-0.12542 -0.104976,-0.0712 -0.184025,-0.16735 -0.237145,-0.28829 -0.05312,-0.12094 -0.07532,-0.25436 -0.06363,-0.40002 z m 0.750077,-0.51123 c -0.0981,-0.008 -0.183238,0.009 -0.255425,0.0513 -0.07219,0.0421 -0.130466,0.0972 -0.172101,0.16868 -0.04461,0.0712 -0.07138,0.14386 -0.08056,0.22091 0,0 0.942318,0.0756 0.942318,0.0756 0.0032,-0.0775 -0.0086,-0.15328 -0.03537,-0.23022 -0.02971,-0.0772 -0.07844,-0.14092 -0.142996,-0.19397 -0.06752,-0.0533 -0.151822,-0.084 -0.255864,-0.0923 z m 0.83942,1.17134 c 0,0 0.128815,-0.15122 0.128815,-0.15122 0.046,0.0605 0.110316,0.11656 0.19342,0.16212 0.0831,0.0456 0.170613,0.0735 0.262764,0.0809 0.107014,0.009 0.191917,-0.006 0.254948,-0.0453 0.06303,-0.0398 0.09729,-0.0939 0.103016,-0.16526 0.0057,-0.0713 -0.01971,-0.12723 -0.07927,-0.16791 -0.0598,-0.0377 -0.149327,-0.0778 -0.268819,-0.11731 -0.107839,-0.0356 -0.195109,-0.0665 -0.261332,-0.0988 -0.06622,-0.0323 -0.122573,-0.0757 -0.168575,-0.1362 -0.046,-0.0605 -0.06406,-0.13378 -0.05666,-0.22593 0.006,-0.0743 0.0325,-0.14399 0.0821,-0.20284 0.04663,-0.0591 0.112869,-0.10163 0.196231,-0.13384 0.08336,-0.0322 0.179917,-0.0424 0.289904,-0.0336 0.217,0.0174 0.386897,0.0999 0.515397,0.25078 0,0 -0.116448,0.14623 -0.116448,0.14623 -0.04029,-0.0571 -0.09914,-0.10668 -0.170831,-0.14535 -0.07169,-0.0387 -0.153493,-0.0632 -0.242671,-0.0703 -0.0981,-0.008 -0.177055,0.007 -0.236636,0.0408 -0.05958,0.0341 -0.0936,0.0852 -0.09885,0.15063 -0.005,0.0624 0.0209,0.11237 0.07796,0.14687 0.05386,0.0372 0.140648,0.0741 0.254433,0.11017 0.107839,0.0356 0.197843,0.0697 0.270011,0.10245 0.0692,0.0325 0.128042,0.0821 0.174043,0.14261 0.04576,0.0635 0.06608,0.14592 0.0582,0.24402 -0.01026,0.12782 -0.06914,0.2278 -0.173681,0.30019 -0.104538,0.0724 -0.247591,0.10279 -0.425947,0.0885 -0.243754,-0.0196 -0.43101,-0.10939 -0.561528,-0.27244 z m 1.85164,0.37597 c -0.104041,-0.008 -0.181916,-0.0445 -0.23089,-0.10529 -0.04897,-0.0608 -0.06905,-0.14615 -0.06022,-0.25614 0,0 0.07539,-0.93934 0.07539,-0.93934 0,0 -0.237809,-0.0191 -0.237809,-0.0191 0,0 0.01575,-0.19619 0.01575,-0.19619 0,0 0.237809,0.0191 0.237809,0.0191 0,0 0.03149,-0.39238 0.03149,-0.39238 0,0 0.222946,0.0179 0.222946,0.0179 0,0 -0.03149,0.39239 -0.03149,0.39239 0,0 0.291316,0.0234 0.291316,0.0234 0,0 -0.01575,0.19619 -0.01575,0.19619 0,0 -0.291316,-0.0234 -0.291316,-0.0234 0,0 -0.07157,0.89178 -0.07157,0.89178 -0.0045,0.0565 0.0038,0.10203 0.02791,0.13687 0.02116,0.0346 0.0554,0.0553 0.102958,0.0591 0.02973,0.002 0.05993,-10e-4 0.08764,-0.0109 0.02747,-0.007 0.05244,-0.0197 0.06874,-0.0364 0,0 0.05204,0.17171 0.05204,0.17171 -0.07041,0.0572 -0.161972,0.0798 -0.274931,0.0707 z m 2.217571,0.17799 c -0.187274,-0.015 -0.353135,-0.0732 -0.500792,-0.17183 -0.147657,-0.0986 -0.259991,-0.2273 -0.336525,-0.39201 -0.07653,-0.1647 -0.107047,-0.34367 -0.09106,-0.54283 0.01599,-0.19917 0.07465,-0.37097 0.176473,-0.52136 0.101822,-0.15039 0.233481,-0.26249 0.394976,-0.33629 0.161494,-0.0738 0.334273,-0.10182 0.521548,-0.0868 0.169438,0.0136 0.315206,0.0612 0.437541,0.13983 0.119124,0.0814 0.215531,0.18484 0.291955,0.31363 0,0 -0.217387,0.0992 -0.217387,0.0992 -0.04956,-0.0907 -0.121362,-0.16532 -0.215164,-0.2267 -0.0938,-0.0614 -0.198668,-0.0967 -0.3146,-0.10602 -0.139713,-0.0112 -0.270159,0.0112 -0.391578,0.0703 -0.12142,0.0591 -0.218471,0.15 -0.29365,0.26663 -0.07815,0.11639 -0.122064,0.25348 -0.13447,0.40806 -0.01241,0.15457 0.0093,0.29394 0.06791,0.4213 0.05562,0.12713 0.136921,0.23238 0.247366,0.31006 0.110445,0.0777 0.235404,0.1236 0.375117,0.13481 0.115932,0.009 0.225093,-0.009 0.327483,-0.0545 0.102152,-0.0427 0.185166,-0.1078 0.248564,-0.18948 0,0 0.201751,0.13288 0.201751,0.13288 -0.214214,0.24608 -0.477383,0.35659 -0.795453,0.33107 z m 1.697363,0.13622 c -0.142685,-0.0114 -0.264911,-0.0542 -0.366437,-0.13113 -0.101527,-0.0769 -0.177603,-0.17281 -0.224778,-0.29328 -0.05015,-0.1207 -0.06985,-0.24794 -0.05864,-0.38765 0.01121,-0.13971 0.05096,-0.26218 0.119716,-0.37334 0.06578,-0.1114 0.156175,-0.19389 0.268676,-0.25368 0.112263,-0.0568 0.239737,-0.0795 0.382422,-0.068 0.142685,0.0114 0.264911,0.0542 0.366676,0.12816 0.101527,0.077 0.177603,0.17281 0.227751,0.29352 0.04717,0.12046 0.06688,0.2477 0.05567,0.38741 -0.01121,0.13971 -0.05096,0.26218 -0.116744,0.37358 -0.06876,0.11116 -0.159147,0.19365 -0.271648,0.25344 -0.112502,0.0598 -0.239976,0.0824 -0.382661,0.071 z m 0.01599,-0.19916 c 0.0981,0.008 0.186449,-0.012 0.261847,-0.0568 0.0754,-0.0448 0.134154,-0.10591 0.179717,-0.18902 0.04556,-0.0831 0.07079,-0.17382 0.07867,-0.27192 0.0079,-0.0981 -0.0026,-0.19168 -0.03429,-0.28098 -0.03196,-0.0863 -0.07998,-0.159 -0.14727,-0.21526 -0.06729,-0.0563 -0.151584,-0.087 -0.24968,-0.0948 -0.0981,-0.008 -0.186211,0.009 -0.261609,0.0538 -0.07837,0.0446 -0.137366,0.10865 -0.18269,0.18878 -0.04556,0.0831 -0.07079,0.17382 -0.07867,0.27192 -0.0079,0.0981 0.0026,0.19168 0.03429,0.28099 0.03173,0.0893 0.07998,0.15899 0.150243,0.21549 0.06729,0.0563 0.151345,0.0899 0.249442,0.0978 z m 2.029061,0.3274 c 0,0 0.01622,-0.20214 0.01622,-0.20214 -0.06494,0.0636 -0.143788,0.11411 -0.236545,0.15154 -0.09573,0.0372 -0.192761,0.0533 -0.29383,0.0452 -0.306179,-0.0246 -0.445615,-0.18834 -0.421042,-0.49452 0,0 0.08136,-1.01366 0.08136,-1.01366 0,0 0.222946,0.0179 0.222946,0.0179 0,0 -0.07587,0.94529 -0.07587,0.94529 -0.0095,0.11891 0.01053,0.20429 0.06295,0.25935 0.04945,0.0548 0.127803,0.0851 0.231844,0.0934 0.08323,0.007 0.165164,-0.008 0.248764,-0.0429 0.08063,-0.0354 0.144136,-0.0812 0.193736,-0.14002 0,0 0.08469,-1.05528 0.08469,-1.05528 0,0 0.222946,0.0179 0.222946,0.0179 0,0 -0.115232,1.43577 -0.115232,1.43577 z m 1.637913,0.13145 c 0,0 0.07539,-0.93935 0.07539,-0.93935 0.0098,-0.12187 -0.01005,-0.21023 -0.06248,-0.26529 -0.05242,-0.0551 -0.127803,-0.0851 -0.231845,-0.0934 -0.08323,-0.007 -0.165163,0.008 -0.24603,0.0461 -0.08384,0.0382 -0.147347,0.0839 -0.196946,0.14276 0,0 -0.08422,1.04933 -0.08422,1.04933 0,0 -0.222946,-0.0179 -0.222946,-0.0179 0,0 0.115233,-1.43577 0.115233,-1.43577 0,0 0.222945,0.0179 0.222945,0.0179 0,0 -0.0167,0.20808 -0.0167,0.20808 0.06173,-0.0609 0.140577,-0.11138 0.236783,-0.15452 0.09597,-0.0402 0.195973,-0.0561 0.29407,-0.0482 0.306179,0.0246 0.445376,0.19132 0.420564,0.50047 0,0 -0.08088,1.00771 -0.08088,1.00771 z m 1.028633,0.11846 c -0.104042,-0.008 -0.181916,-0.0445 -0.23089,-0.1053 -0.04897,-0.0608 -0.06905,-0.14615 -0.06022,-0.25614 0,0 0.07539,-0.93934 0.07539,-0.93934 0,0 -0.237809,-0.0191 -0.237809,-0.0191 0,0 0.01575,-0.19619 0.01575,-0.19619 0,0 0.237809,0.0191 0.237809,0.0191 0,0 0.03149,-0.39239 0.03149,-0.39239 0,0 0.222946,0.0179 0.222946,0.0179 0,0 -0.03149,0.39239 -0.03149,0.39239 0,0 0.291315,0.0234 0.291315,0.0234 0,0 -0.01575,0.19619 -0.01575,0.19619 0,0 -0.291315,-0.0234 -0.291315,-0.0234 0,0 -0.07157,0.89178 -0.07157,0.89178 -0.0045,0.0565 0.0038,0.10203 0.02791,0.13687 0.02116,0.0346 0.0554,0.0553 0.102958,0.0591 0.02973,0.002 0.05993,-10e-4 0.08764,-0.0109 0.02747,-0.007 0.05244,-0.0197 0.06874,-0.0364 0,0 0.05204,0.17172 0.05204,0.17172 -0.07041,0.0572 -0.161972,0.0797 -0.274931,0.0707 z m 0.488657,-0.7207 c 0.01098,-0.13674 0.05072,-0.2592 0.122451,-0.37012 0.07173,-0.11092 0.162119,-0.19342 0.274621,-0.2532 0.112501,-0.0598 0.237002,-0.0827 0.37077,-0.072 0.139713,0.0112 0.261938,0.0539 0.360492,0.13066 0.09855,0.0767 0.168446,0.17507 0.215621,0.29553 0.04718,0.12047 0.06343,0.25341 0.05174,0.39907 0,0 -0.0045,0.0565 -0.0045,0.0565 0,0 -1.162292,-0.0933 -1.162292,-0.0933 -0.0023,0.14042 0.04167,0.26362 0.126186,0.36614 0.08452,0.10252 0.202576,0.15987 0.351207,0.17179 0.08323,0.007 0.164686,-0.002 0.247571,-0.028 0.07991,-0.0265 0.148888,-0.0658 0.209901,-0.11779 0,0 0.09532,0.15425 0.09532,0.15425 -0.157349,0.13397 -0.35356,0.19301 -0.588396,0.17417 -0.139713,-0.0112 -0.264911,-0.0542 -0.369888,-0.12543 -0.104976,-0.0712 -0.184025,-0.16735 -0.237145,-0.28829 -0.05312,-0.12094 -0.07532,-0.25436 -0.06363,-0.40002 z m 0.750077,-0.51122 c -0.0981,-0.008 -0.183237,0.009 -0.255425,0.0513 -0.07219,0.0421 -0.130466,0.0972 -0.172101,0.16868 -0.04461,0.0712 -0.07138,0.14386 -0.08056,0.22091 0,0 0.942318,0.0756 0.942318,0.0756 0.0032,-0.0775 -0.0086,-0.15327 -0.03538,-0.23021 -0.02971,-0.0772 -0.07844,-0.14093 -0.142996,-0.19398 -0.06752,-0.0533 -0.151822,-0.084 -0.255864,-0.0923 z m 0.949001,1.3716 c 0,0 0.115233,-1.43577 0.115233,-1.43577 0,0 0.222945,0.0179 0.222945,0.0179 0,0 -0.01861,0.23186 -0.01861,0.23186 0.06887,-0.0752 0.145219,-0.13195 0.232269,-0.17283 0.08408,-0.0411 0.175165,-0.0577 0.267316,-0.0503 0,0 -0.01837,0.2289 -0.01837,0.2289 -0.02628,-0.008 -0.05576,-0.0134 -0.08846,-0.0161 -0.06837,-0.005 -0.141622,0.0126 -0.225699,0.0537 -0.08408,0.0411 -0.144852,0.0901 -0.182084,0.14395 0,0 -0.08159,1.01663 -0.08159,1.01663 z m 2.348358,0.18847 c 0,0 -0.637529,-2.04667 -0.637529,-2.04667 0,0 0.282398,0.0227 0.282398,0.0227 0,0 0.531418,1.7659 0.531418,1.7659 0,0 0.806257,-1.65854 0.806257,-1.65854 0,0 0.282398,0.0227 0.282398,0.0227 0,0 -0.958763,1.91856 -0.958763,1.91856 z m 2.253244,0.18084 c 0,0 0.01312,-0.16349 0.01312,-0.16349 -0.132613,0.12398 -0.29541,0.17674 -0.491602,0.16099 -0.08621,-0.007 -0.165035,-0.0312 -0.236249,-0.0758 -0.07442,-0.0419 -0.132555,-0.10039 -0.174152,-0.17853 -0.04481,-0.0754 -0.06167,-0.16351 -0.0538,-0.26161 0.0081,-0.10106 0.03881,-0.18536 0.09507,-0.25265 0.05329,-0.0675 0.120007,-0.11602 0.200158,-0.14549 0.07718,-0.0297 0.15887,-0.0411 0.245076,-0.0342 0.20511,0.0165 0.35741,0.0945 0.459872,0.23436 0,0 0.02076,-0.25861 0.02076,-0.25861 0.0076,-0.0951 -0.0191,-0.17207 -0.08318,-0.23106 -0.06408,-0.059 -0.148134,-0.0927 -0.255148,-0.10126 -0.08621,-0.007 -0.167659,0.002 -0.241626,0.0285 -0.07397,0.027 -0.146393,0.072 -0.214305,0.13538 0,0 -0.09164,-0.16293 -0.09164,-0.16293 0.08373,-0.074 0.174946,-0.12956 0.273171,-0.16057 0.09525,-0.0312 0.203698,-0.0405 0.319629,-0.0312 0.163494,0.0131 0.29416,0.0625 0.39176,0.15111 0.0976,0.0886 0.138353,0.21455 0.125231,0.37804 0,0 -0.07921,0.98691 -0.07921,0.98691 z m 0.02433,-0.3032 c 0,0 0.02171,-0.27051 0.02171,-0.27051 -0.03708,-0.0598 -0.08999,-0.10894 -0.15573,-0.14713 -0.06896,-0.0354 -0.145052,-0.0565 -0.225313,-0.063 -0.104041,-0.008 -0.18966,0.0147 -0.259591,0.0659 -0.07314,0.054 -0.112043,0.12863 -0.119439,0.22078 -0.0074,0.0922 0.01934,0.16909 0.08318,0.23105 0.06063,0.0647 0.141473,0.10111 0.245515,0.10946 0.08026,0.006 0.158741,-0.002 0.232708,-0.0292 0.07076,-0.0242 0.130814,-0.0643 0.176963,-0.11743 z m 0.644507,0.35688 c 0,0 0.159131,-1.98273 0.159131,-1.98273 0,0 0.222945,0.0179 0.222945,0.0179 0,0 -0.15913,1.98273 -0.15913,1.98273 z m 1.637906,0.13146 c 0,0 0.01622,-0.20214 0.01622,-0.20214 -0.06494,0.0636 -0.143788,0.11412 -0.236545,0.15155 -0.09573,0.0372 -0.192762,0.0533 -0.293831,0.0452 -0.306179,-0.0246 -0.445615,-0.18835 -0.421041,-0.49453 0,0 0.08135,-1.01366 0.08135,-1.01366 0,0 0.222946,0.0179 0.222946,0.0179 0,0 -0.07587,0.94529 -0.07587,0.94529 -0.0095,0.1189 0.01053,0.20428 0.06295,0.25935 0.04945,0.0548 0.127803,0.085 0.231845,0.0934 0.08323,0.007 0.165163,-0.008 0.248764,-0.0429 0.08063,-0.0354 0.144136,-0.0812 0.193735,-0.14002 0,0 0.0847,-1.05528 0.0847,-1.05528 0,0 0.222946,0.0179 0.222946,0.0179 0,0 -0.115233,1.43577 -0.115233,1.43577 z m 0.643348,-0.67237 c 0.01097,-0.13674 0.05072,-0.25921 0.12245,-0.37013 0.07173,-0.11092 0.16212,-0.19342 0.274621,-0.2532 0.112501,-0.0598 0.237003,-0.0827 0.37077,-0.072 0.139713,0.0112 0.261938,0.0539 0.360492,0.13065 0.09856,0.0767 0.168447,0.17507 0.215622,0.29554 0.04717,0.12046 0.06343,0.25341 0.05174,0.39906 0,0 -0.0045,0.0565 -0.0045,0.0565 0,0 -1.162291,-0.0933 -1.162291,-0.0933 -0.0023,0.14043 0.04167,0.26363 0.126185,0.36615 0.08452,0.10252 0.202576,0.15986 0.351207,0.17179 0.08323,0.007 0.164686,-0.002 0.247571,-0.028 0.07991,-0.0265 0.148889,-0.0658 0.209901,-0.11778 0,0 0.09532,0.15424 0.09532,0.15424 -0.157348,0.13397 -0.35356,0.19302 -0.588396,0.17417 -0.139713,-0.0112 -0.264911,-0.0542 -0.369887,-0.12542 -0.104977,-0.0713 -0.184025,-0.16735 -0.237146,-0.28829 -0.05312,-0.12095 -0.07532,-0.25436 -0.06363,-0.40002 z m 0.750077,-0.51123 c -0.0981,-0.008 -0.183238,0.009 -0.255425,0.0513 -0.07219,0.0421 -0.130466,0.0972 -0.172102,0.16869 -0.04461,0.0712 -0.07138,0.14386 -0.08056,0.22091 0,0 0.942318,0.0756 0.942318,0.0756 0.0032,-0.0775 -0.0086,-0.15328 -0.03538,-0.23022 -0.02971,-0.0772 -0.07844,-0.14092 -0.142995,-0.19397 -0.06753,-0.0533 -0.151823,-0.084 -0.255864,-0.0923 z m 0.839416,1.17133 c 0,0 0.128815,-0.15122 0.128815,-0.15122 0.046,0.0605 0.110316,0.11656 0.19342,0.16212 0.0831,0.0456 0.170613,0.0735 0.262764,0.0809 0.107014,0.009 0.191917,-0.006 0.254948,-0.0454 0.06303,-0.0398 0.09729,-0.0939 0.103015,-0.16526 0.0057,-0.0713 -0.01971,-0.12723 -0.07927,-0.16791 -0.0598,-0.0377 -0.149328,-0.0778 -0.268819,-0.11731 -0.107839,-0.0356 -0.195109,-0.0665 -0.261332,-0.0988 -0.06622,-0.0322 -0.122574,-0.0757 -0.168575,-0.1362 -0.046,-0.0605 -0.06406,-0.13378 -0.05666,-0.22593 0.006,-0.0743 0.0325,-0.14399 0.0821,-0.20284 0.04663,-0.0591 0.112869,-0.10163 0.196231,-0.13384 0.08336,-0.0322 0.179917,-0.0424 0.289903,-0.0336 0.217001,0.0174 0.386898,0.0999 0.515398,0.25079 0,0 -0.116448,0.14622 -0.116448,0.14622 -0.0403,-0.0571 -0.09914,-0.10668 -0.170832,-0.14535 -0.07169,-0.0387 -0.153492,-0.0632 -0.242671,-0.0703 -0.0981,-0.008 -0.177054,0.007 -0.236635,0.0408 -0.05958,0.0341 -0.0936,0.0852 -0.09885,0.15063 -0.005,0.0624 0.0209,0.11237 0.07796,0.14687 0.05385,0.0372 0.140648,0.0741 0.254433,0.11017 0.107839,0.0356 0.197843,0.0697 0.270011,0.10245 0.0692,0.0325 0.128042,0.0821 0.174043,0.14262 0.04576,0.0635 0.06607,0.14591 0.0582,0.24401 -0.01026,0.12782 -0.06914,0.2278 -0.173681,0.30019 -0.104538,0.0724 -0.247591,0.10279 -0.425947,0.0885 -0.243755,-0.0196 -0.43101,-0.10939 -0.561528,-0.27244 z"
         id="text72-4"
         style="font-size:2.98217px;line-height:1.85;font-family:'Proxima Nova';-inkscape-font-specification:'Proxima Nova, Normal';text-align:center;text-anchor:middle;stroke-width:0.381;stroke-linecap:square"
         transform="translate(-5.9679145,-1.3289296)"
         aria-label="Request Counter Values" /><path
         d="m 18.781476,112.82017 c 0,0 0.141476,-1.76276 0.141476,-1.76276 0,0 -0.627221,-0.0503 -0.627221,-0.0503 0,0 0.01766,-0.21998 0.01766,-0.21998 0,0 1.504141,0.12072 1.504141,0.12072 0,0 -0.01765,0.21997 -0.01765,0.21997 0,0 -0.630193,-0.0506 -0.630193,-0.0506 0,0 -0.141476,1.76276 -0.141476,1.76276 z m 1.194987,0.0959 c 0,0 0.115232,-1.43577 0.115232,-1.43577 0,0 0.222946,0.0179 0.222946,0.0179 0,0 -0.01861,0.23186 -0.01861,0.23186 0.06887,-0.0752 0.145219,-0.13194 0.23227,-0.17283 0.08408,-0.0411 0.175164,-0.0577 0.267315,-0.0503 0,0 -0.01837,0.22889 -0.01837,0.22889 -0.02628,-0.008 -0.05576,-0.0135 -0.08846,-0.0161 -0.06837,-0.005 -0.141621,0.0126 -0.225699,0.0537 -0.08408,0.0411 -0.144851,0.0901 -0.182083,0.14395 0,0 -0.08159,1.01663 -0.08159,1.01663 z m 1.87869,0.15078 c 0,0 0.01312,-0.1635 0.01312,-0.1635 -0.132613,0.12399 -0.29541,0.17674 -0.491602,0.161 -0.08621,-0.007 -0.165035,-0.0312 -0.236249,-0.0758 -0.07442,-0.0419 -0.132555,-0.10039 -0.174153,-0.17852 -0.04481,-0.0754 -0.06167,-0.16352 -0.0538,-0.26161 0.0081,-0.10107 0.03881,-0.18537 0.09507,-0.25265 0.05329,-0.0675 0.120007,-0.11603 0.200158,-0.14549 0.07718,-0.0297 0.15887,-0.0411 0.245076,-0.0342 0.20511,0.0165 0.35741,0.0945 0.459871,0.23437 0,0 0.02076,-0.25862 0.02076,-0.25862 0.0076,-0.0951 -0.0191,-0.17206 -0.08318,-0.23106 -0.06408,-0.059 -0.148134,-0.0927 -0.255148,-0.10125 -0.08621,-0.007 -0.167659,0.002 -0.241626,0.0285 -0.07397,0.027 -0.146393,0.072 -0.214305,0.13538 0,0 -0.09164,-0.16292 -0.09164,-0.16292 0.08373,-0.0741 0.174945,-0.12957 0.273171,-0.16058 0.09525,-0.0312 0.203697,-0.0405 0.319629,-0.0312 0.163494,0.0131 0.29416,0.0625 0.39176,0.15112 0.0976,0.0886 0.138352,0.21454 0.125231,0.37803 0,0 -0.07921,0.98691 -0.07921,0.98691 z m 0.02433,-0.30321 c 0,0 0.02171,-0.27051 0.02171,-0.27051 -0.03708,-0.0598 -0.08999,-0.10894 -0.155731,-0.14713 -0.06896,-0.0355 -0.145051,-0.0565 -0.225312,-0.063 -0.104041,-0.008 -0.18966,0.0147 -0.259591,0.0659 -0.07314,0.054 -0.112043,0.12863 -0.119439,0.22078 -0.0074,0.0922 0.01934,0.16909 0.08318,0.23106 0.06063,0.0647 0.141473,0.10111 0.245514,0.10946 0.08026,0.006 0.158742,-0.002 0.232709,-0.0292 0.07076,-0.0242 0.130814,-0.0643 0.176963,-0.11743 z m 1.613579,0.43466 c 0,0 0.07539,-0.93934 0.07539,-0.93934 0.0098,-0.12188 -0.01005,-0.21023 -0.06248,-0.2653 -0.05242,-0.0551 -0.127803,-0.085 -0.231845,-0.0934 -0.08323,-0.007 -0.165164,0.008 -0.24603,0.0461 -0.08384,0.0381 -0.147347,0.0839 -0.196947,0.14276 0,0 -0.08422,1.04933 -0.08422,1.04933 0,0 -0.222946,-0.0179 -0.222946,-0.0179 0,0 0.115232,-1.43577 0.115232,-1.43577 0,0 0.222946,0.0179 0.222946,0.0179 0,0 -0.0167,0.20808 -0.0167,0.20808 0.06173,-0.0609 0.140577,-0.11138 0.236783,-0.15451 0.09597,-0.0402 0.195973,-0.0561 0.294069,-0.0482 0.306179,0.0246 0.445377,0.19132 0.420565,0.50047 0,0 -0.08088,1.00772 -0.08088,1.00772 z m 0.559256,-0.14658 c 0,0 0.128815,-0.15122 0.128815,-0.15122 0.046,0.0605 0.110316,0.11656 0.19342,0.16212 0.0831,0.0456 0.170613,0.0735 0.262764,0.0809 0.107014,0.009 0.191917,-0.006 0.254948,-0.0453 0.06303,-0.0398 0.09729,-0.0939 0.103016,-0.16526 0.0057,-0.0713 -0.01971,-0.12723 -0.07927,-0.16791 -0.0598,-0.0377 -0.149327,-0.0778 -0.268819,-0.11732 -0.107839,-0.0356 -0.195109,-0.0665 -0.261332,-0.0988 -0.06622,-0.0322 -0.122573,-0.0757 -0.168575,-0.13619 -0.046,-0.0605 -0.06406,-0.13378 -0.05666,-0.22593 0.006,-0.0743 0.0325,-0.14399 0.0821,-0.20284 0.04663,-0.0591 0.112869,-0.10164 0.196231,-0.13384 0.08336,-0.0322 0.179917,-0.0424 0.289904,-0.0336 0.217,0.0174 0.386897,0.0999 0.515397,0.25078 0,0 -0.116448,0.14623 -0.116448,0.14623 -0.04029,-0.0571 -0.09914,-0.10669 -0.170832,-0.14535 -0.07169,-0.0387 -0.153492,-0.0632 -0.24267,-0.0703 -0.0981,-0.008 -0.177055,0.007 -0.236636,0.0408 -0.05958,0.0341 -0.0936,0.0852 -0.09885,0.15063 -0.005,0.0624 0.0209,0.11237 0.07796,0.14687 0.05386,0.0372 0.140648,0.0741 0.254433,0.11017 0.107839,0.0356 0.197843,0.0697 0.270011,0.10245 0.0692,0.0325 0.128042,0.0821 0.174043,0.14261 0.04576,0.0635 0.06607,0.14592 0.0582,0.24402 -0.01026,0.12782 -0.06914,0.2278 -0.173681,0.30019 -0.104538,0.0724 -0.247591,0.10279 -0.425947,0.0885 -0.243754,-0.0196 -0.43101,-0.10939 -0.561528,-0.27244 z m 3.224881,0.45029 c 0,0 0.07825,-0.97501 0.07825,-0.97501 0.0074,-0.0922 -0.0074,-0.16814 -0.04774,-0.22523 -0.04053,-0.0541 -0.103784,-0.0861 -0.192962,-0.0933 -0.07134,-0.006 -0.144356,0.009 -0.219277,0.0482 -0.07492,0.0389 -0.135457,0.0849 -0.178872,0.14122 0,0 -0.08446,1.0523 -0.08446,1.0523 0,0 -0.222946,-0.0179 -0.222946,-0.0179 0,0 0.07825,-0.97502 0.07825,-0.97502 0.01599,-0.19916 -0.06532,-0.30442 -0.240705,-0.31849 -0.06837,-0.005 -0.141383,0.01 -0.213331,0.0487 -0.07492,0.0389 -0.135457,0.0849 -0.182084,0.14395 0,0 -0.08422,1.04934 -0.08422,1.04934 0,0 -0.222946,-0.0179 -0.222946,-0.0179 0,0 0.115232,-1.43577 0.115232,-1.43577 0,0 0.222946,0.0179 0.222946,0.0179 0,0 -0.0167,0.20809 -0.0167,0.20809 0.0402,-0.0536 0.106923,-0.10212 0.200396,-0.14847 0.09347,-0.0464 0.187771,-0.0657 0.282895,-0.0581 0.104041,0.008 0.188338,0.0391 0.24968,0.0948 0.06134,0.0558 0.100921,0.12179 0.115287,0.20372 0.05031,-0.0678 0.120723,-0.12494 0.214196,-0.17129 0.09347,-0.0463 0.190743,-0.0655 0.288839,-0.0576 0.130795,0.0105 0.229001,0.0543 0.291407,0.13408 0.0624,0.0798 0.08651,0.18944 0.07506,0.33212 0,0 -0.08326,1.03745 -0.08326,1.03745 z m 0.912666,-1.60512 c -0.03864,-0.003 -0.07312,-0.0208 -0.100463,-0.0529 -0.02758,-0.0291 -0.03958,-0.066 -0.03624,-0.10762 0.0033,-0.0416 0.02107,-0.0761 0.05318,-0.10344 0.03211,-0.0273 0.06898,-0.0393 0.10762,-0.0362 0.04162,0.003 0.07609,0.0211 0.103435,0.0532 0.02734,0.0321 0.03934,0.069 0.036,0.11059 -0.0033,0.0416 -0.02107,0.0761 -0.05294,0.10047 -0.03211,0.0273 -0.06898,0.0393 -0.110592,0.036 z m -0.243828,1.6588 c 0,0 0.115232,-1.43577 0.115232,-1.43577 0,0 0.222946,0.0179 0.222946,0.0179 0,0 -0.115232,1.43577 -0.115232,1.43577 z m 1.028634,0.11846 c -0.104041,-0.008 -0.181916,-0.0445 -0.23089,-0.10529 -0.04897,-0.0608 -0.06905,-0.14615 -0.06022,-0.25614 0,0 0.07539,-0.93935 0.07539,-0.93935 0,0 -0.237809,-0.0191 -0.237809,-0.0191 0,0 0.01575,-0.19619 0.01575,-0.19619 0,0 0.237809,0.0191 0.237809,0.0191 0,0 0.03149,-0.39238 0.03149,-0.39238 0,0 0.222946,0.0179 0.222946,0.0179 0,0 -0.03149,0.39239 -0.03149,0.39239 0,0 0.291316,0.0234 0.291316,0.0234 0,0 -0.01575,0.19619 -0.01575,0.19619 0,0 -0.291316,-0.0234 -0.291316,-0.0234 0,0 -0.07157,0.89178 -0.07157,0.89178 -0.0045,0.0565 0.0038,0.10202 0.02791,0.13687 0.02116,0.0346 0.0554,0.0553 0.102958,0.0591 0.02973,0.002 0.05993,-10e-4 0.08764,-0.0109 0.02747,-0.007 0.05244,-0.0197 0.06874,-0.0364 0,0 0.05204,0.17171 0.05204,0.17171 -0.07041,0.0572 -0.161972,0.0797 -0.274931,0.0707 z m 1.290003,0.0676 c 0,0 0.15913,-1.98273 0.15913,-1.98273 0,0 1.299031,0.10426 1.299031,0.10426 0,0 -0.01765,0.21997 -0.01765,0.21997 0,0 -1.052305,-0.0845 -1.052305,-0.0845 0,0 -0.05129,0.63912 -0.05129,0.63912 0,0 1.031497,0.0828 1.031497,0.0828 0,0 -0.01765,0.21998 -0.01765,0.21998 0,0 -1.031496,-0.0828 -1.031496,-0.0828 0,0 -0.05487,0.6837 -0.05487,0.6837 0,0 1.052305,0.0845 1.052305,0.0845 0,0 -0.01766,0.21997 -0.01766,0.21997 z m 2.651571,0.21281 c 0,0 0.07539,-0.93934 0.07539,-0.93934 0.0098,-0.12188 -0.01005,-0.21023 -0.06248,-0.2653 -0.05242,-0.0551 -0.127803,-0.085 -0.231844,-0.0934 -0.08323,-0.007 -0.165164,0.008 -0.246031,0.0461 -0.08384,0.0382 -0.147347,0.0839 -0.196946,0.14276 0,0 -0.08422,1.04933 -0.08422,1.04933 0,0 -0.222945,-0.0179 -0.222945,-0.0179 0,0 0.115232,-1.43578 0.115232,-1.43578 0,0 0.222946,0.0179 0.222946,0.0179 0,0 -0.0167,0.20808 -0.0167,0.20808 0.06173,-0.0609 0.140577,-0.11138 0.236784,-0.15452 0.09597,-0.0402 0.195973,-0.0561 0.294069,-0.0482 0.306179,0.0246 0.445376,0.19132 0.420564,0.50047 0,0 -0.08088,1.00771 -0.08088,1.00771 z m 0.643344,-0.67237 c 0.01121,-0.13971 0.0512,-0.26515 0.122927,-0.37607 0.06876,-0.11116 0.159147,-0.19366 0.274382,-0.25023 0.112263,-0.0568 0.239737,-0.0795 0.37945,-0.0683 0.121877,0.01 0.224248,0.0389 0.303903,0.0902 0.07965,0.0513 0.146225,0.11645 0.202209,0.20172 0,0 -0.159605,0.12481 -0.159605,0.12481 -0.08213,-0.13224 -0.198998,-0.20445 -0.350601,-0.21662 -0.151604,-0.0122 -0.274564,0.0288 -0.372092,0.12571 -0.100501,0.0966 -0.155588,0.22386 -0.16871,0.38736 -0.01312,0.16349 0.02097,0.29786 0.104771,0.4093 0.08083,0.1112 0.195439,0.17425 0.347042,0.18642 0.151603,0.0122 0.27849,-0.0405 0.380661,-0.15793 0,0 0.137656,0.14867 0.137656,0.14867 -0.06887,0.0752 -0.14498,0.12897 -0.231792,0.16688 -0.08681,0.0379 -0.192523,0.0504 -0.3144,0.0406 -0.139713,-0.0112 -0.261938,-0.0539 -0.363704,-0.12792 -0.104738,-0.0742 -0.180814,-0.17008 -0.230961,-0.29079 -0.05312,-0.12094 -0.07259,-0.25115 -0.06114,-0.39383 z m 1.496941,0.84415 c 0,0 0.115232,-1.43578 0.115232,-1.43578 0,0 0.222946,0.0179 0.222946,0.0179 0,0 -0.01861,0.23186 -0.01861,0.23186 0.06887,-0.0752 0.145219,-0.13195 0.232269,-0.17283 0.08408,-0.0411 0.175165,-0.0577 0.267316,-0.0503 0,0 -0.01837,0.22889 -0.01837,0.22889 -0.02628,-0.008 -0.05576,-0.0135 -0.08846,-0.0161 -0.06837,-0.005 -0.141621,0.0126 -0.225699,0.0537 -0.08408,0.0411 -0.144852,0.0901 -0.182084,0.14395 0,0 -0.08159,1.01663 -0.08159,1.01663 z m 0.907503,0.43483 c 0.03448,0.0177 0.07538,0.03 0.119969,0.0336 0.05053,0.004 0.09608,-0.004 0.130447,-0.0224 0.03437,-0.0182 0.06744,-0.0574 0.09575,-0.11198 0,0 0.11254,-0.20937 0.11254,-0.20937 0,0 -0.484042,-1.49883 -0.484042,-1.49883 0,0 0.240781,0.0193 0.240781,0.0193 0,0 0.384114,1.21556 0.384114,1.21556 0,0 0.570095,-1.13898 0.570095,-1.13898 0,0 0.243754,0.0196 0.243754,0.0196 0,0 -0.857985,1.66935 -0.857985,1.66935 -0.04973,0.0977 -0.112172,0.16751 -0.184121,0.20661 -0.07492,0.0389 -0.163036,0.0557 -0.26137,0.0508 -0.05945,-0.005 -0.112483,-0.015 -0.161824,-0.0339 z m 1.709086,0.32565 c 0,0 -0.222946,-0.0179 -0.222946,-0.0179 0,0 0.159131,-1.98273 0.159131,-1.98273 0,0 0.222946,0.0179 0.222946,0.0179 0,0 -0.01718,0.21403 -0.01718,0.21403 0.05947,-0.07 0.132852,-0.12696 0.222636,-0.16463 0.08978,-0.0377 0.183844,-0.0541 0.28194,-0.0462 0.12485,0.01 0.232451,0.0486 0.325775,0.1159 0.09309,0.0703 0.160483,0.16246 0.204924,0.27972 0.0442,0.12022 0.06022,0.25614 0.04805,0.40774 -0.01217,0.1516 -0.04966,0.28323 -0.11223,0.39189 -0.06281,0.11164 -0.144045,0.19188 -0.247151,0.24643 -0.103107,0.0546 -0.215479,0.0755 -0.340329,0.0654 -0.0981,-0.008 -0.185604,-0.0358 -0.265259,-0.0871 -0.08263,-0.0515 -0.14896,-0.11966 -0.198998,-0.20445 z m 0.990445,-1.195 c 0.01312,-0.16349 -0.018,-0.29762 -0.09288,-0.40835 -0.07488,-0.11072 -0.183786,-0.17032 -0.323499,-0.18153 -0.08621,-0.007 -0.168136,0.007 -0.251975,0.0456 -0.08384,0.0382 -0.150797,0.0896 -0.194451,0.14895 0,0 -0.05201,0.64802 -0.05201,0.64802 0.03339,0.0685 0.09153,0.12702 0.168208,0.17805 0.07668,0.051 0.155033,0.0812 0.241239,0.0882 0.139713,0.0112 0.256966,-0.0332 0.34855,-0.13059 0.09158,-0.0974 0.143697,-0.22481 0.156819,-0.38831 z m 0.896579,0.83187 c -0.104041,-0.008 -0.181916,-0.0445 -0.23089,-0.1053 -0.04897,-0.0608 -0.06905,-0.14615 -0.06022,-0.25614 0,0 0.07539,-0.93934 0.07539,-0.93934 0,0 -0.237809,-0.0191 -0.237809,-0.0191 0,0 0.01575,-0.19619 0.01575,-0.19619 0,0 0.237809,0.0191 0.237809,0.0191 0,0 0.03149,-0.39239 0.03149,-0.39239 0,0 0.222946,0.0179 0.222946,0.0179 0,0 -0.03149,0.39239 -0.03149,0.39239 0,0 0.291316,0.0234 0.291316,0.0234 0,0 -0.01575,0.19619 -0.01575,0.19619 0,0 -0.291316,-0.0234 -0.291316,-0.0234 0,0 -0.07157,0.89178 -0.07157,0.89178 -0.0045,0.0565 0.0038,0.10203 0.02791,0.13687 0.02116,0.0346 0.0554,0.0553 0.102958,0.0591 0.02973,0.002 0.05993,-10e-4 0.08764,-0.0109 0.02747,-0.007 0.05244,-0.0197 0.06874,-0.0364 0,0 0.05204,0.17172 0.05204,0.17172 -0.07041,0.0572 -0.161972,0.0797 -0.274931,0.0707 z m 0.488658,-0.72069 c 0.01097,-0.13674 0.05072,-0.2592 0.12245,-0.37012 0.07173,-0.11093 0.16212,-0.19342 0.274621,-0.25321 0.112501,-0.0598 0.237003,-0.0827 0.37077,-0.072 0.139713,0.0112 0.261938,0.0539 0.360492,0.13065 0.09855,0.0767 0.168446,0.17508 0.215622,0.29554 0.04717,0.12047 0.06343,0.25341 0.05174,0.39907 0,0 -0.0045,0.0565 -0.0045,0.0565 0,0 -1.162291,-0.0933 -1.162291,-0.0933 -0.0023,0.14043 0.04167,0.26363 0.126185,0.36615 0.08452,0.10252 0.202576,0.15986 0.351207,0.17179 0.08323,0.007 0.164686,-0.002 0.247571,-0.028 0.07991,-0.0265 0.148889,-0.0658 0.209901,-0.11778 0,0 0.09532,0.15425 0.09532,0.15425 -0.157348,0.13397 -0.35356,0.19301 -0.588396,0.17416 -0.139713,-0.0112 -0.264911,-0.0542 -0.369887,-0.12542 -0.104977,-0.0712 -0.184025,-0.16735 -0.237146,-0.28829 -0.05312,-0.12094 -0.07532,-0.25436 -0.06363,-0.40002 z m 0.750077,-0.51123 c -0.0981,-0.008 -0.183238,0.009 -0.255426,0.0513 -0.07219,0.0421 -0.130465,0.0972 -0.172101,0.16868 -0.04461,0.0712 -0.07138,0.14386 -0.08056,0.22091 0,0 0.942318,0.0756 0.942318,0.0756 0.0032,-0.0775 -0.0086,-0.15327 -0.03538,-0.23021 -0.02971,-0.0772 -0.07844,-0.14093 -0.142995,-0.19398 -0.06753,-0.0533 -0.151823,-0.084 -0.255864,-0.0923 z m 1.989415,1.4551 c 0,0 0.01718,-0.21403 0.01718,-0.21403 -0.06244,0.0698 -0.135824,0.12672 -0.225608,0.16439 -0.08978,0.0377 -0.180872,0.0543 -0.278968,0.0464 -0.12485,-0.01 -0.232451,-0.0486 -0.322564,-0.11863 -0.09333,-0.0673 -0.160721,-0.15949 -0.204924,-0.27972 -0.04741,-0.11749 -0.06343,-0.25341 -0.05126,-0.40501 0.01217,-0.1516 0.04942,-0.28025 0.11223,-0.39189 0.06257,-0.10866 0.144045,-0.19188 0.247152,-0.24643 0.103106,-0.0545 0.215478,-0.0754 0.340328,-0.0654 0.09512,0.008 0.182632,0.0356 0.265259,0.0871 0.07966,0.0513 0.145987,0.11942 0.198998,0.20445 0,0 0.06131,-0.76396 0.06131,-0.76396 0,0 0.222946,0.0179 0.222946,0.0179 0,0 -0.15913,1.98273 -0.15913,1.98273 z m 0.03125,-0.38941 c 0,0 0.05225,-0.651 0.05225,-0.651 -0.03637,-0.0687 -0.09129,-0.12999 -0.167969,-0.18102 -0.07668,-0.051 -0.158245,-0.0785 -0.24445,-0.0854 -0.139713,-0.0112 -0.256728,0.0303 -0.348312,0.12762 -0.09158,0.0974 -0.143935,0.22778 -0.157057,0.39128 -0.01312,0.16349 0.018,0.29763 0.09288,0.40835 0.07488,0.11072 0.183787,0.17032 0.3235,0.18153 0.0862,0.007 0.171109,-0.007 0.254948,-0.0454 0.08384,-0.0381 0.147585,-0.0869 0.194212,-0.14597 z m 3.107824,0.64135 c 0,0 0.13241,-1.6498 0.13241,-1.6498 0,0 -0.807193,1.59564 -0.807193,1.59564 0,0 -0.101069,-0.008 -0.101069,-0.008 0,0 -0.5394,-1.70372 -0.5394,-1.70372 0,0 -0.13241,1.6498 -0.13241,1.6498 0,0 -0.246727,-0.0198 -0.246727,-0.0198 0,0 0.159131,-1.98273 0.159131,-1.98273 0,0 0.35374,0.0284 0.35374,0.0284 0,0 0.494134,1.55947 0.494134,1.55947 0,0 0.7395,-1.46046 0.7395,-1.46046 0,0 0.353741,0.0284 0.353741,0.0284 0,0 -0.15913,1.98273 -0.15913,1.98273 z m 0.676038,-0.66975 c 0.01098,-0.13674 0.05072,-0.2592 0.12245,-0.37012 0.07173,-0.11092 0.16212,-0.19342 0.274621,-0.2532 0.112501,-0.0598 0.237003,-0.0827 0.37077,-0.072 0.139713,0.0112 0.261939,0.0539 0.360493,0.13066 0.09855,0.0767 0.168446,0.17507 0.215621,0.29553 0.04718,0.12047 0.06343,0.25341 0.05174,0.39907 0,0 -0.0045,0.0565 -0.0045,0.0565 0,0 -1.162291,-0.0933 -1.162291,-0.0933 -0.0023,0.14042 0.04167,0.26362 0.126185,0.36614 0.08452,0.10252 0.202577,0.15987 0.351207,0.17179 0.08323,0.007 0.164687,-0.002 0.247572,-0.028 0.07991,-0.0265 0.148888,-0.0658 0.2099,-0.11779 0,0 0.09532,0.15425 0.09532,0.15425 -0.157348,0.13397 -0.353559,0.19301 -0.588396,0.17417 -0.139713,-0.0112 -0.264911,-0.0542 -0.369887,-0.12543 -0.104977,-0.0712 -0.184025,-0.16735 -0.237145,-0.28829 -0.05312,-0.12094 -0.07532,-0.25436 -0.06363,-0.40002 z m 0.750077,-0.51122 c -0.0981,-0.008 -0.183238,0.009 -0.255425,0.0513 -0.07219,0.0421 -0.130466,0.0972 -0.172102,0.16868 -0.04461,0.0712 -0.07138,0.14386 -0.08056,0.22091 0,0 0.942318,0.0756 0.942318,0.0756 0.0032,-0.0775 -0.0086,-0.15327 -0.03538,-0.23021 -0.02971,-0.0772 -0.07844,-0.14093 -0.142995,-0.19398 -0.06752,-0.0533 -0.151823,-0.084 -0.255864,-0.0923 z m 0.839416,1.17132 c 0,0 0.128815,-0.15121 0.128815,-0.15121 0.046,0.0605 0.110316,0.11655 0.19342,0.16212 0.0831,0.0456 0.170613,0.0735 0.262764,0.0809 0.107014,0.009 0.191917,-0.006 0.254948,-0.0454 0.06303,-0.0398 0.09729,-0.0939 0.103016,-0.16525 0.0057,-0.0713 -0.01971,-0.12724 -0.07927,-0.16792 -0.0598,-0.0377 -0.149327,-0.0778 -0.268819,-0.11731 -0.107839,-0.0356 -0.195109,-0.0665 -0.261332,-0.0988 -0.06622,-0.0322 -0.122573,-0.0756 -0.168575,-0.13619 -0.046,-0.0605 -0.06406,-0.13379 -0.05666,-0.22594 0.006,-0.0743 0.0325,-0.14399 0.0821,-0.20283 0.04663,-0.0591 0.112869,-0.10164 0.196231,-0.13384 0.08336,-0.0322 0.179917,-0.0424 0.289904,-0.0336 0.217,0.0174 0.386897,0.0999 0.515397,0.25079 0,0 -0.116448,0.14623 -0.116448,0.14623 -0.04029,-0.0571 -0.09914,-0.10669 -0.170831,-0.14535 -0.07169,-0.0387 -0.153493,-0.0632 -0.242671,-0.0703 -0.0981,-0.008 -0.177055,0.007 -0.236636,0.0409 -0.05958,0.0341 -0.0936,0.0852 -0.09885,0.15063 -0.005,0.0624 0.0209,0.11237 0.07796,0.14687 0.05386,0.0372 0.140648,0.0741 0.254433,0.11017 0.107839,0.0356 0.197843,0.0697 0.270011,0.10245 0.0692,0.0325 0.128042,0.0821 0.174043,0.14261 0.04576,0.0635 0.06607,0.14592 0.0582,0.24401 -0.01026,0.12782 -0.06914,0.22781 -0.173681,0.3002 -0.104538,0.0724 -0.24759,0.10279 -0.425947,0.0885 -0.243754,-0.0196 -0.43101,-0.10938 -0.561528,-0.27244 z m 1.382271,0.11094 c 0,0 0.128815,-0.15121 0.128815,-0.15121 0.046,0.0605 0.110316,0.11655 0.19342,0.16212 0.0831,0.0456 0.170613,0.0735 0.262764,0.0809 0.107014,0.009 0.191917,-0.006 0.254948,-0.0454 0.06303,-0.0398 0.09729,-0.0939 0.103015,-0.16525 0.0057,-0.0713 -0.01971,-0.12724 -0.07927,-0.16792 -0.0598,-0.0377 -0.149328,-0.0778 -0.268819,-0.11731 -0.107839,-0.0356 -0.195109,-0.0665 -0.261332,-0.0988 -0.06622,-0.0322 -0.122574,-0.0757 -0.168575,-0.13619 -0.046,-0.0605 -0.06406,-0.13379 -0.05666,-0.22594 0.006,-0.0743 0.0325,-0.14399 0.0821,-0.20283 0.04663,-0.0591 0.112869,-0.10164 0.196231,-0.13384 0.08336,-0.0322 0.179917,-0.0424 0.289904,-0.0336 0.217,0.0174 0.386897,0.0999 0.515397,0.25079 0,0 -0.116448,0.14623 -0.116448,0.14623 -0.0403,-0.0571 -0.09914,-0.10669 -0.170832,-0.14535 -0.07169,-0.0387 -0.153492,-0.0632 -0.242671,-0.0703 -0.0981,-0.008 -0.177054,0.007 -0.236635,0.0408 -0.05958,0.0341 -0.0936,0.0852 -0.09885,0.15063 -0.005,0.0624 0.0209,0.11238 0.07797,0.14687 0.05385,0.0372 0.140648,0.0741 0.254433,0.11018 0.107839,0.0356 0.197843,0.0697 0.270011,0.10245 0.0692,0.0325 0.128042,0.0821 0.174043,0.14261 0.04576,0.0635 0.06607,0.14592 0.0582,0.24401 -0.01026,0.12782 -0.06914,0.22781 -0.173681,0.3002 -0.104538,0.0724 -0.247591,0.10279 -0.425947,0.0885 -0.243755,-0.0196 -0.43101,-0.10938 -0.561528,-0.27244 z m 2.389573,0.38326 c 0,0 0.01312,-0.16349 0.01312,-0.16349 -0.132613,0.12398 -0.295411,0.17673 -0.491603,0.16099 -0.08621,-0.007 -0.165035,-0.0312 -0.236249,-0.0758 -0.07443,-0.0419 -0.132555,-0.10039 -0.174152,-0.17852 -0.04481,-0.0754 -0.06167,-0.16351 -0.0538,-0.26161 0.0081,-0.10107 0.03881,-0.18537 0.09507,-0.25265 0.05329,-0.0675 0.120007,-0.11602 0.200158,-0.14549 0.07718,-0.0297 0.15887,-0.0411 0.245076,-0.0342 0.20511,0.0165 0.35741,0.0945 0.459872,0.23437 0,0 0.02076,-0.25862 0.02076,-0.25862 0.0076,-0.0951 -0.0191,-0.17206 -0.08318,-0.23106 -0.06408,-0.059 -0.148134,-0.0927 -0.255148,-0.10125 -0.08621,-0.007 -0.167659,0.002 -0.241626,0.0285 -0.07397,0.027 -0.146393,0.072 -0.214305,0.13538 0,0 -0.09164,-0.16293 -0.09164,-0.16293 0.08373,-0.0741 0.174946,-0.12956 0.273171,-0.16057 0.09525,-0.0312 0.203698,-0.0405 0.31963,-0.0312 0.163493,0.0131 0.294159,0.0625 0.391759,0.15111 0.0976,0.0886 0.138353,0.21454 0.125231,0.37803 0,0 -0.07921,0.98691 -0.07921,0.98691 z m 0.02434,-0.30321 c 0,0 0.02171,-0.27051 0.02171,-0.27051 -0.03708,-0.0598 -0.08998,-0.10894 -0.15573,-0.14712 -0.06896,-0.0355 -0.145052,-0.0565 -0.225313,-0.063 -0.104041,-0.008 -0.18966,0.0147 -0.25959,0.0659 -0.07314,0.054 -0.112044,0.12863 -0.11944,0.22078 -0.0074,0.0922 0.01934,0.16909 0.08318,0.23106 0.06063,0.0647 0.141473,0.10111 0.245515,0.10946 0.08026,0.006 0.158741,-0.002 0.232708,-0.0292 0.07076,-0.0242 0.130814,-0.0643 0.176964,-0.11744 z m 0.611947,0.72525 c 0,0 0.126319,-0.1574 0.126319,-0.1574 0.05099,0.0729 0.115307,0.12892 0.187236,0.16461 0.07169,0.0387 0.159677,0.0607 0.263718,0.069 0.133768,0.0107 0.246617,-0.0161 0.338549,-0.0805 0.09169,-0.0615 0.145109,-0.16786 0.156799,-0.31352 0,0 0.01646,-0.20511 0.01646,-0.20511 -0.05947,0.07 -0.132851,0.12696 -0.222874,0.1676 -0.09002,0.0406 -0.18111,0.0573 -0.279206,0.0494 -0.12485,-0.01 -0.232451,-0.0486 -0.322803,-0.11566 -0.09333,-0.0673 -0.160721,-0.15949 -0.205162,-0.27675 -0.04765,-0.11452 -0.06367,-0.25043 -0.0515,-0.40203 0.01217,-0.15161 0.04942,-0.28025 0.111991,-0.38892 0.06257,-0.10866 0.143807,-0.18891 0.246913,-0.24346 0.102868,-0.0516 0.21524,-0.0725 0.34009,-0.0625 0.09512,0.008 0.182632,0.0356 0.262287,0.0869 0.07965,0.0513 0.145987,0.11942 0.198997,0.20446 0,0 0.01742,-0.217 0.01742,-0.217 0,0 0.222946,0.0179 0.222946,0.0179 0,0 -0.111892,1.39415 -0.111892,1.39415 -0.01766,0.21998 -0.0957,0.37228 -0.231392,0.46011 -0.135695,0.0878 -0.303245,0.12525 -0.50241,0.10927 -0.127822,-0.0103 -0.233643,-0.0337 -0.320197,-0.0736 -0.08679,-0.0369 -0.168465,-0.10028 -0.242284,-0.18698 z m 1.103159,-0.6983 c 0,0 0.05034,-0.62722 0.05034,-0.62722 -0.0334,-0.0685 -0.08832,-0.12975 -0.164997,-0.18078 -0.07668,-0.051 -0.158245,-0.0785 -0.24445,-0.0854 -0.142686,-0.0114 -0.259701,0.03 -0.348073,0.12465 -0.09135,0.0944 -0.143459,0.22184 -0.15658,0.38534 -0.01288,0.16052 0.01824,0.29465 0.09336,0.4024 0.07488,0.11072 0.183787,0.17032 0.3235,0.18153 0.0862,0.007 0.171347,-0.0102 0.255186,-0.0483 0.08384,-0.0382 0.147825,-0.0899 0.191717,-0.15216 z m 0.610175,-0.25917 c 0.01097,-0.13674 0.05072,-0.25921 0.12245,-0.37013 0.07173,-0.11092 0.16212,-0.19342 0.274621,-0.2532 0.112501,-0.0598 0.237003,-0.0827 0.37077,-0.072 0.139713,0.0112 0.261938,0.0539 0.360492,0.13065 0.09855,0.0767 0.168447,0.17508 0.215622,0.29554 0.04717,0.12047 0.06343,0.25341 0.05174,0.39907 0,0 -0.0045,0.0565 -0.0045,0.0565 0,0 -1.162291,-0.0933 -1.162291,-0.0933 -0.0023,0.14043 0.04167,0.26363 0.126185,0.36615 0.08452,0.10252 0.202576,0.15986 0.351207,0.17179 0.08323,0.007 0.164686,-0.002 0.247571,-0.028 0.07991,-0.0265 0.148889,-0.0658 0.209901,-0.11778 0,0 0.09532,0.15425 0.09532,0.15425 -0.157348,0.13396 -0.35356,0.19301 -0.588396,0.17416 -0.139713,-0.0112 -0.264911,-0.0542 -0.369887,-0.12542 -0.104977,-0.0713 -0.184025,-0.16735 -0.237146,-0.28829 -0.05312,-0.12094 -0.07532,-0.25436 -0.06363,-0.40002 z m 0.750077,-0.51123 c -0.0981,-0.008 -0.183238,0.009 -0.255425,0.0513 -0.07219,0.0421 -0.130466,0.0972 -0.172102,0.16868 -0.04461,0.0712 -0.07138,0.14386 -0.08056,0.22091 0,0 0.942318,0.0756 0.942318,0.0756 0.0032,-0.0775 -0.0086,-0.15328 -0.03538,-0.23022 -0.02971,-0.0772 -0.07844,-0.14092 -0.142995,-0.19397 -0.06753,-0.0533 -0.151823,-0.084 -0.255864,-0.0923 z m 0.839416,1.17133 c 0,0 0.128815,-0.15122 0.128815,-0.15122 0.046,0.0605 0.110316,0.11656 0.19342,0.16212 0.0831,0.0456 0.170613,0.0735 0.262764,0.0809 0.107014,0.009 0.191917,-0.006 0.254948,-0.0454 0.06303,-0.0398 0.09729,-0.0939 0.103015,-0.16525 0.0057,-0.0713 -0.01971,-0.12724 -0.07927,-0.16792 -0.0598,-0.0377 -0.149328,-0.0778 -0.268819,-0.11731 -0.107839,-0.0356 -0.195109,-0.0665 -0.261332,-0.0988 -0.06622,-0.0322 -0.122574,-0.0757 -0.168575,-0.13619 -0.046,-0.0605 -0.06406,-0.13379 -0.05666,-0.22594 0.006,-0.0743 0.0325,-0.14399 0.0821,-0.20284 0.04663,-0.0591 0.112869,-0.10163 0.196231,-0.13383 0.08336,-0.0322 0.179917,-0.0424 0.289903,-0.0336 0.217001,0.0174 0.386898,0.0999 0.515398,0.25079 0,0 -0.116448,0.14622 -0.116448,0.14622 -0.0403,-0.0571 -0.09914,-0.10668 -0.170832,-0.14535 -0.07169,-0.0387 -0.153492,-0.0632 -0.242671,-0.0703 -0.0981,-0.008 -0.177054,0.007 -0.236635,0.0408 -0.05958,0.0341 -0.0936,0.0852 -0.09885,0.15063 -0.005,0.0624 0.0209,0.11237 0.07797,0.14687 0.05385,0.0372 0.140648,0.0741 0.254433,0.11017 0.107839,0.0356 0.197843,0.0697 0.270011,0.10245 0.0692,0.0325 0.128042,0.0821 0.174043,0.14262 0.04576,0.0635 0.06608,0.14591 0.0582,0.24401 -0.01026,0.12782 -0.06914,0.22781 -0.173681,0.30019 -0.104538,0.0724 -0.247591,0.10279 -0.425947,0.0885 -0.243755,-0.0196 -0.43101,-0.10939 -0.561528,-0.27244 z"
         id="text105"
         style="font-size:2.98217px;line-height:1.85;font-family:'Proxima Nova';-inkscape-font-specification:'Proxima Nova, Normal';text-align:center;text-anchor:middle;stroke-width:0.381;stroke-linecap:square"
         transform="translate(-2.1183851,15.821407)"
         aria-label="Transmit Encrypted Messages" /><path
         d="m 19.369231,111.87109 c 0.01551,-0.19322 0.0712,-0.36527 0.167078,-0.51613 0.09267,-0.14814 0.21838,-0.26071 0.37714,-0.33772 0.155788,-0.0773 0.328806,-0.10824 0.522025,-0.0927 0.19322,0.0155 0.35908,0.0737 0.500554,0.1748 0.141473,0.10111 0.247623,0.23229 0.31845,0.39354 0.07059,0.16423 0.09813,0.34296 0.08262,0.53618 -0.01551,0.19322 -0.0712,0.36526 -0.166839,0.51316 -0.09588,0.15086 -0.221591,0.26344 -0.377379,0.34069 -0.155788,0.0773 -0.328805,0.10824 -0.522025,0.0927 -0.19322,-0.0155 -0.35908,-0.0737 -0.500553,-0.1748 -0.144446,-0.10135 -0.250597,-0.23253 -0.318213,-0.39652 -0.07083,-0.16126 -0.09837,-0.33998 -0.08286,-0.5332 z m 1.712224,0.13742 c 0.01241,-0.15458 -0.0061,-0.29668 -0.05578,-0.42332 -0.05264,-0.12689 -0.128242,-0.2287 -0.232742,-0.30589 -0.104499,-0.0772 -0.229458,-0.12313 -0.375116,-0.13482 -0.145658,-0.0117 -0.276343,0.0137 -0.391817,0.0733 -0.115474,0.0595 -0.209314,0.14775 -0.278548,0.26486 -0.06923,0.1171 -0.110173,0.25443 -0.122579,0.40901 -0.01217,0.1516 0.0063,0.2937 0.05602,0.42035 0.04967,0.12664 0.128003,0.23166 0.232503,0.30886 0.104499,0.0772 0.229458,0.12312 0.375116,0.13481 0.145658,0.0117 0.276344,-0.0137 0.391818,-0.0733 0.115473,-0.0595 0.20658,-0.15096 0.278786,-0.26783 0.06923,-0.1171 0.110173,-0.25443 0.12234,-0.40603 z m 0.528223,0.31464 c 0.01121,-0.13971 0.0512,-0.26515 0.122927,-0.37607 0.06876,-0.11116 0.159147,-0.19366 0.274383,-0.25023 0.112262,-0.0568 0.239737,-0.0795 0.379449,-0.0683 0.121877,0.01 0.224249,0.0389 0.303903,0.0902 0.07966,0.0513 0.146226,0.11644 0.202209,0.20172 0,0 -0.159605,0.12481 -0.159605,0.12481 -0.08213,-0.13225 -0.198998,-0.20446 -0.350601,-0.21662 -0.151603,-0.0122 -0.274563,0.0288 -0.372092,0.12571 -0.100501,0.0966 -0.155588,0.22386 -0.168709,0.38735 -0.01312,0.16349 0.02097,0.29787 0.104771,0.40931 0.08083,0.11119 0.195438,0.17424 0.347041,0.18641 0.151603,0.0122 0.278491,-0.0405 0.380662,-0.15793 0,0 0.137656,0.14867 0.137656,0.14867 -0.06887,0.0752 -0.144981,0.12898 -0.231793,0.16689 -0.08681,0.0379 -0.192523,0.0504 -0.3144,0.0406 -0.139713,-0.0112 -0.261938,-0.0539 -0.363703,-0.12792 -0.104738,-0.0742 -0.180814,-0.17008 -0.230962,-0.29078 -0.05312,-0.12094 -0.07259,-0.25115 -0.06114,-0.39384 z m 1.471443,0.1181 c 0.01121,-0.13972 0.0512,-0.26515 0.122928,-0.37607 0.06876,-0.11116 0.159147,-0.19366 0.274382,-0.25023 0.112263,-0.0568 0.239737,-0.0795 0.379449,-0.0683 0.121878,0.01 0.224249,0.0389 0.303903,0.0902 0.07965,0.0513 0.146226,0.11645 0.202209,0.20172 0,0 -0.159605,0.12481 -0.159605,0.12481 -0.08213,-0.13224 -0.198998,-0.20445 -0.350601,-0.21662 -0.151603,-0.0122 -0.274563,0.0288 -0.372092,0.12571 -0.100501,0.0966 -0.155587,0.22386 -0.168709,0.38736 -0.01312,0.16349 0.02097,0.29786 0.104771,0.4093 0.08083,0.1112 0.195438,0.17425 0.347041,0.18642 0.151604,0.0122 0.278491,-0.0405 0.380662,-0.15793 0,0 0.137656,0.14867 0.137656,0.14867 -0.06887,0.0753 -0.144981,0.12897 -0.231792,0.16688 -0.08681,0.0379 -0.192524,0.0504 -0.314401,0.0406 -0.139712,-0.0112 -0.261938,-0.0539 -0.363703,-0.12792 -0.104738,-0.0742 -0.180814,-0.17008 -0.230962,-0.29079 -0.05312,-0.12094 -0.07259,-0.25115 -0.06114,-0.39383 z m 2.394674,0.9162 c 0,0 0.01312,-0.1635 0.01312,-0.1635 -0.132613,0.12399 -0.29541,0.17674 -0.491602,0.16099 -0.08621,-0.007 -0.165035,-0.0312 -0.236249,-0.0758 -0.07442,-0.0419 -0.132555,-0.10039 -0.174153,-0.17852 -0.04481,-0.0754 -0.06167,-0.16352 -0.0538,-0.26161 0.0081,-0.10107 0.03881,-0.18537 0.09507,-0.25266 0.05329,-0.0675 0.120007,-0.11602 0.200158,-0.14549 0.07718,-0.0297 0.15887,-0.0411 0.245076,-0.0342 0.20511,0.0165 0.35741,0.0945 0.459872,0.23437 0,0 0.02076,-0.25862 0.02076,-0.25862 0.0076,-0.0951 -0.0191,-0.17206 -0.08318,-0.23106 -0.06408,-0.059 -0.148134,-0.0927 -0.255148,-0.10125 -0.08621,-0.007 -0.167659,0.001 -0.241626,0.0285 -0.07397,0.027 -0.146393,0.072 -0.214305,0.13538 0,0 -0.09164,-0.16292 -0.09164,-0.16292 0.08373,-0.0741 0.174946,-0.12957 0.273171,-0.16058 0.09525,-0.0312 0.203698,-0.0405 0.319629,-0.0312 0.163494,0.0131 0.29416,0.0625 0.39176,0.15111 0.0976,0.0886 0.138353,0.21455 0.125231,0.37804 0,0 -0.07921,0.98691 -0.07921,0.98691 z m 0.02433,-0.30321 c 0,0 0.02171,-0.27051 0.02171,-0.27051 -0.03708,-0.0598 -0.08999,-0.10894 -0.15573,-0.14713 -0.06896,-0.0354 -0.145052,-0.0565 -0.225313,-0.063 -0.104041,-0.008 -0.18966,0.0147 -0.259591,0.0659 -0.07314,0.054 -0.112043,0.12863 -0.119439,0.22078 -0.0074,0.0922 0.01934,0.16909 0.08318,0.23106 0.06063,0.0647 0.141473,0.1011 0.245515,0.10945 0.08026,0.006 0.158741,-0.002 0.232708,-0.0292 0.07076,-0.0242 0.130814,-0.0643 0.176963,-0.11743 z m 0.534923,0.15662 c 0,0 0.128815,-0.15122 0.128815,-0.15122 0.046,0.0605 0.110315,0.11656 0.19342,0.16212 0.0831,0.0456 0.170612,0.0735 0.262763,0.0809 0.107014,0.009 0.191917,-0.006 0.254948,-0.0454 0.06303,-0.0398 0.09729,-0.0939 0.103016,-0.16525 0.0057,-0.0713 -0.01971,-0.12724 -0.07927,-0.16792 -0.0598,-0.0377 -0.149327,-0.0778 -0.268818,-0.11731 -0.10784,-0.0356 -0.19511,-0.0665 -0.261332,-0.0988 -0.06622,-0.0322 -0.122574,-0.0757 -0.168576,-0.13619 -0.046,-0.0605 -0.06406,-0.13379 -0.05666,-0.22594 0.006,-0.0743 0.0325,-0.14399 0.0821,-0.20284 0.04663,-0.0591 0.112868,-0.10163 0.19623,-0.13383 0.08336,-0.0322 0.179917,-0.0424 0.289904,-0.0336 0.217001,0.0174 0.386897,0.0999 0.515397,0.25079 0,0 -0.116447,0.14622 -0.116447,0.14622 -0.0403,-0.0571 -0.09914,-0.10668 -0.170832,-0.14534 -0.07169,-0.0387 -0.153493,-0.0632 -0.242671,-0.0703 -0.0981,-0.008 -0.177054,0.007 -0.236635,0.0408 -0.05958,0.0341 -0.0936,0.0852 -0.09885,0.15063 -0.005,0.0624 0.0209,0.11237 0.07797,0.14687 0.05385,0.0372 0.140647,0.0741 0.254432,0.11018 0.10784,0.0356 0.197843,0.0697 0.270011,0.10244 0.0692,0.0325 0.128042,0.0821 0.174044,0.14262 0.04576,0.0635 0.06607,0.14591 0.0582,0.24401 -0.01026,0.12782 -0.06914,0.22781 -0.173681,0.30019 -0.104537,0.0724 -0.24759,0.1028 -0.425947,0.0885 -0.243754,-0.0196 -0.431009,-0.10939 -0.561527,-0.27244 z m 1.735671,-1.34761 c -0.03864,-0.003 -0.07312,-0.0208 -0.100462,-0.0529 -0.02758,-0.0291 -0.03958,-0.066 -0.03624,-0.10762 0.0033,-0.0416 0.02107,-0.0761 0.05318,-0.10343 0.03211,-0.0273 0.06898,-0.0393 0.10762,-0.0362 0.04162,0.003 0.07609,0.0211 0.103435,0.0532 0.02734,0.0321 0.03934,0.069 0.036,0.11059 -0.0033,0.0416 -0.02107,0.0761 -0.05294,0.10046 -0.03211,0.0273 -0.06898,0.0393 -0.110593,0.036 z m -0.243827,1.65881 c 0,0 0.115232,-1.43577 0.115232,-1.43577 0,0 0.222946,0.0179 0.222946,0.0179 0,0 -0.115233,1.43577 -0.115233,1.43577 z m 1.2932,0.13969 c -0.142685,-0.0114 -0.264911,-0.0542 -0.366437,-0.13113 -0.101527,-0.077 -0.177603,-0.17282 -0.224778,-0.29328 -0.05015,-0.1207 -0.06985,-0.24794 -0.05864,-0.38765 0.01121,-0.13972 0.05096,-0.26218 0.119716,-0.37334 0.06578,-0.1114 0.156175,-0.1939 0.268676,-0.25368 0.112263,-0.0568 0.239737,-0.0795 0.382422,-0.068 0.142686,0.0114 0.264911,0.0542 0.366676,0.12815 0.101527,0.077 0.177603,0.17282 0.227751,0.29352 0.04717,0.12047 0.06688,0.2477 0.05567,0.38742 -0.01121,0.13971 -0.05096,0.26217 -0.116744,0.37357 -0.06876,0.11116 -0.159147,0.19366 -0.271648,0.25344 -0.112502,0.0598 -0.239976,0.0825 -0.382661,0.071 z m 0.01599,-0.19916 c 0.0981,0.008 0.186449,-0.012 0.261847,-0.0568 0.0754,-0.0448 0.134154,-0.10591 0.179717,-0.18901 0.04556,-0.0831 0.07079,-0.17382 0.07867,-0.27192 0.0079,-0.0981 -0.0026,-0.19168 -0.03429,-0.28099 -0.03196,-0.0863 -0.07998,-0.159 -0.14727,-0.21526 -0.06729,-0.0563 -0.151584,-0.087 -0.24968,-0.0948 -0.0981,-0.008 -0.186211,0.009 -0.261609,0.0538 -0.07837,0.0446 -0.137366,0.10864 -0.18269,0.18878 -0.04556,0.0831 -0.07079,0.17382 -0.07867,0.27192 -0.0079,0.0981 0.0026,0.19167 0.03429,0.28098 0.03173,0.0893 0.07998,0.159 0.150243,0.2155 0.06729,0.0563 0.151345,0.0899 0.249442,0.0978 z m 2.029061,0.32739 c 0,0 0.07539,-0.93934 0.07539,-0.93934 0.0098,-0.12188 -0.01005,-0.21023 -0.06248,-0.2653 -0.05242,-0.0551 -0.127803,-0.085 -0.231844,-0.0934 -0.08323,-0.007 -0.165164,0.008 -0.246031,0.0461 -0.08384,0.0382 -0.147347,0.0839 -0.196946,0.14276 0,0 -0.08422,1.04933 -0.08422,1.04933 0,0 -0.222945,-0.0179 -0.222945,-0.0179 0,0 0.115232,-1.43578 0.115232,-1.43578 0,0 0.222946,0.0179 0.222946,0.0179 0,0 -0.0167,0.20808 -0.0167,0.20808 0.06173,-0.0609 0.140577,-0.11138 0.236784,-0.15452 0.09597,-0.0402 0.195973,-0.0561 0.294069,-0.0482 0.306179,0.0246 0.445376,0.19132 0.420564,0.50047 0,0 -0.08088,1.00772 -0.08088,1.00772 z m 1.56657,0.12573 c 0,0 0.01312,-0.16349 0.01312,-0.16349 -0.132613,0.12398 -0.29541,0.17674 -0.491603,0.16099 -0.0862,-0.007 -0.165035,-0.0312 -0.236248,-0.0758 -0.07442,-0.0419 -0.132556,-0.1004 -0.174153,-0.17853 -0.04481,-0.0754 -0.06167,-0.16351 -0.0538,-0.26161 0.0081,-0.10107 0.03881,-0.18536 0.09507,-0.25265 0.05329,-0.0675 0.120007,-0.11602 0.200158,-0.14549 0.07718,-0.0297 0.15887,-0.0411 0.245076,-0.0342 0.20511,0.0165 0.35741,0.0945 0.459872,0.23436 0,0 0.02076,-0.25862 0.02076,-0.25862 0.0076,-0.0951 -0.0191,-0.17206 -0.08318,-0.23105 -0.06408,-0.059 -0.148134,-0.0927 -0.255148,-0.10126 -0.08621,-0.007 -0.167659,0.002 -0.241626,0.0285 -0.07397,0.027 -0.146393,0.072 -0.214305,0.13538 0,0 -0.09164,-0.16293 -0.09164,-0.16293 0.08373,-0.0741 0.174945,-0.12956 0.27317,-0.16057 0.09525,-0.0312 0.203698,-0.0405 0.31963,-0.0312 0.163493,0.0131 0.294159,0.0625 0.391759,0.15111 0.0976,0.0886 0.138353,0.21454 0.125231,0.37804 0,0 -0.07921,0.9869 -0.07921,0.9869 z m 0.02434,-0.30321 c 0,0 0.02171,-0.2705 0.02171,-0.2705 -0.03708,-0.0598 -0.08998,-0.10895 -0.15573,-0.14713 -0.06896,-0.0354 -0.145052,-0.0565 -0.225313,-0.063 -0.104041,-0.008 -0.18966,0.0147 -0.25959,0.0659 -0.07314,0.054 -0.112044,0.12862 -0.119439,0.22078 -0.0074,0.0921 0.01934,0.16909 0.08318,0.23105 0.06063,0.0647 0.141473,0.10111 0.245515,0.10946 0.08026,0.006 0.158741,-0.002 0.232708,-0.0292 0.07076,-0.0242 0.130814,-0.0643 0.176964,-0.11744 z m 0.644503,0.35689 c 0,0 0.15913,-1.98273 0.15913,-1.98273 0,0 0.222946,0.0179 0.222946,0.0179 0,0 -0.15913,1.98274 -0.15913,1.98274 z m 0.668838,0.0537 c 0,0 0.159131,-1.98273 0.159131,-1.98273 0,0 0.222945,0.0179 0.222945,0.0179 0,0 -0.15913,1.98274 -0.15913,1.98274 z m 0.595382,0.40979 c 0.03448,0.0177 0.07538,0.03 0.119968,0.0336 0.05053,0.004 0.09608,-0.004 0.130447,-0.0224 0.03437,-0.0182 0.06744,-0.0574 0.09575,-0.11198 0,0 0.112539,-0.20937 0.112539,-0.20937 0,0 -0.484042,-1.49882 -0.484042,-1.49882 0,0 0.240782,0.0193 0.240782,0.0193 0,0 0.384114,1.21556 0.384114,1.21556 0,0 0.570094,-1.13898 0.570094,-1.13898 0,0 0.243754,0.0196 0.243754,0.0196 0,0 -0.857985,1.66935 -0.857985,1.66935 -0.04973,0.0977 -0.112172,0.16751 -0.184121,0.20661 -0.07492,0.0389 -0.163035,0.0557 -0.26137,0.0508 -0.05945,-0.005 -0.112482,-0.015 -0.161824,-0.0339 z m 2.209407,-0.46591 c 0,0 0.160688,-0.17558 0.160688,-0.17558 0.06787,0.0862 0.151565,0.16175 0.254285,0.22385 0.102719,0.0621 0.219477,0.0984 0.347299,0.10865 0.160521,0.0129 0.282288,-0.0132 0.362091,-0.0756 0.0798,-0.0624 0.124649,-0.1366 0.132045,-0.22875 0.006,-0.0743 -0.01007,-0.13543 -0.05084,-0.18657 -0.04101,-0.0482 -0.09463,-0.0884 -0.157877,-0.12038 -0.06325,-0.032 -0.150282,-0.0659 -0.263589,-0.10791 -0.142557,-0.0503 -0.258598,-0.0956 -0.341941,-0.13814 -0.08632,-0.0428 -0.156337,-0.1023 -0.212797,-0.18163 -0.0567,-0.0764 -0.08176,-0.1741 -0.07198,-0.29598 0.0086,-0.10701 0.04595,-0.19975 0.112082,-0.27821 0.06613,-0.0785 0.151641,-0.13742 0.2595,-0.17663 0.10762,-0.0362 0.225461,-0.0507 0.353283,-0.0405 0.294288,0.0236 0.521729,0.13462 0.682321,0.333 0,0 -0.163183,0.1694 -0.163183,0.1694 -0.0649,-0.086 -0.146336,-0.15236 -0.241331,-0.19887 -0.09499,-0.0465 -0.200338,-0.0759 -0.313297,-0.085 -0.118905,-0.01 -0.219387,0.0123 -0.298235,0.0628 -0.08206,0.0533 -0.126906,0.12744 -0.134302,0.21959 -0.005,0.0624 0.01174,0.11463 0.05323,0.15685 0.03828,0.045 0.08619,0.0817 0.146941,0.10753 0.06052,0.0288 0.144575,0.0625 0.255148,0.10125 0.142557,0.0503 0.261332,0.0988 0.350382,0.1448 0.08905,0.046 0.161566,0.1117 0.22076,0.19424 0.05896,0.0855 0.08331,0.19217 0.07305,0.31999 -0.0084,0.10404 -0.03977,0.19726 -0.09722,0.27941 -0.05769,0.0851 -0.140705,0.15026 -0.254986,0.19494 -0.11452,0.0476 -0.25638,0.0632 -0.425818,0.0496 -0.163494,-0.0131 -0.306766,-0.0545 -0.430056,-0.12128 -0.123289,-0.0667 -0.227311,-0.14988 -0.305644,-0.2549 z m 1.756055,0.78417 c 0.03448,0.0177 0.07538,0.03 0.119968,0.0336 0.05053,0.004 0.09608,-0.004 0.130447,-0.0224 0.03437,-0.0182 0.06744,-0.0574 0.09575,-0.11198 0,0 0.112539,-0.20937 0.112539,-0.20937 0,0 -0.484042,-1.49882 -0.484042,-1.49882 0,0 0.240781,0.0193 0.240781,0.0193 0,0 0.384115,1.21556 0.384115,1.21556 0,0 0.570094,-1.13898 0.570094,-1.13898 0,0 0.243754,0.0196 0.243754,0.0196 0,0 -0.857985,1.66935 -0.857985,1.66935 -0.04973,0.0977 -0.112172,0.16751 -0.184121,0.20661 -0.07492,0.0389 -0.163036,0.0557 -0.26137,0.0508 -0.05945,-0.005 -0.112482,-0.015 -0.161824,-0.0339 z m 2.499109,-0.16143 c 0,0 0.07539,-0.93935 0.07539,-0.93935 0.0098,-0.12187 -0.01005,-0.21023 -0.06248,-0.2653 -0.05242,-0.0551 -0.127803,-0.0851 -0.231844,-0.0934 -0.08323,-0.007 -0.165164,0.008 -0.246031,0.0461 -0.08384,0.0381 -0.147347,0.0839 -0.196946,0.14275 0,0 -0.08422,1.04933 -0.08422,1.04933 0,0 -0.222946,-0.0179 -0.222946,-0.0179 0,0 0.115232,-1.43577 0.115232,-1.43577 0,0 0.222946,0.0179 0.222946,0.0179 0,0 -0.0167,0.20809 -0.0167,0.20809 0.06173,-0.0609 0.140577,-0.11138 0.236784,-0.15452 0.09597,-0.0402 0.195973,-0.0561 0.294069,-0.0482 0.306179,0.0246 0.445376,0.19131 0.420564,0.50047 0,0 -0.08088,1.00771 -0.08088,1.00771 z m 0.64334,-0.67237 c 0.01121,-0.13971 0.0512,-0.26515 0.122927,-0.37607 0.06876,-0.11116 0.159147,-0.19366 0.274383,-0.25023 0.112262,-0.0568 0.239736,-0.0795 0.379449,-0.0683 0.121877,0.01 0.224249,0.0389 0.303903,0.0902 0.07965,0.0513 0.146226,0.11644 0.202209,0.20172 0,0 -0.159605,0.12481 -0.159605,0.12481 -0.08213,-0.13225 -0.198998,-0.20446 -0.350601,-0.21662 -0.151603,-0.0122 -0.274564,0.0288 -0.372092,0.12571 -0.100501,0.0966 -0.155588,0.22386 -0.168709,0.38735 -0.01312,0.16349 0.02097,0.29787 0.104771,0.40931 0.08083,0.11119 0.195438,0.17424 0.347041,0.18641 0.151603,0.0122 0.27849,-0.0405 0.380662,-0.15793 0,0 0.137656,0.14867 0.137656,0.14867 -0.06887,0.0752 -0.144981,0.12898 -0.231793,0.16689 -0.08681,0.0379 -0.192523,0.0504 -0.3144,0.0406 -0.139713,-0.0112 -0.261938,-0.0539 -0.363704,-0.12792 -0.104737,-0.0742 -0.180813,-0.17008 -0.230961,-0.29078 -0.05312,-0.12094 -0.07259,-0.25115 -0.06114,-0.39384 z m 1.463091,0.7068 c 0.0036,-0.0446 0.02452,-0.0818 0.05984,-0.11187 0.03532,-0.0301 0.07219,-0.0421 0.116777,-0.0385 0.04459,0.004 0.08204,0.0215 0.112114,0.0569 0.03007,0.0353 0.04184,0.0752 0.03826,0.11975 -0.0036,0.0446 -0.0213,0.0791 -0.05663,0.10914 -0.03532,0.0301 -0.0754,0.0448 -0.119988,0.0412 -0.04459,-0.004 -0.07883,-0.0243 -0.108903,-0.0596 -0.03007,-0.0353 -0.04505,-0.0724 -0.04147,-0.11702 z m 2.420966,0.36484 c -0.187274,-0.015 -0.353135,-0.0732 -0.500792,-0.17183 -0.147657,-0.0986 -0.259991,-0.2273 -0.336525,-0.39201 -0.07653,-0.1647 -0.107047,-0.34367 -0.09106,-0.54283 0.01599,-0.19917 0.07465,-0.37097 0.176473,-0.52136 0.101822,-0.15039 0.233481,-0.26249 0.394976,-0.33629 0.161494,-0.0738 0.334273,-0.10182 0.521548,-0.0868 0.169439,0.0136 0.315206,0.0612 0.437541,0.13983 0.119124,0.0814 0.215531,0.18484 0.291955,0.31363 0,0 -0.217387,0.0992 -0.217387,0.0992 -0.04956,-0.0907 -0.121362,-0.16531 -0.215163,-0.22669 -0.0938,-0.0614 -0.198669,-0.0967 -0.314601,-0.10602 -0.139713,-0.0112 -0.270159,0.0112 -0.391578,0.0703 -0.12142,0.0591 -0.218471,0.15 -0.29365,0.26663 -0.07815,0.11639 -0.122064,0.25348 -0.134469,0.40806 -0.01241,0.15457 0.0093,0.29394 0.06791,0.4213 0.05562,0.12713 0.136921,0.23238 0.247366,0.31005 0.110445,0.0777 0.235404,0.12361 0.375117,0.13482 0.115932,0.009 0.225093,-0.009 0.327483,-0.0545 0.102152,-0.0427 0.185166,-0.1078 0.248564,-0.18948 0,0 0.201751,0.13287 0.201751,0.13287 -0.214214,0.24609 -0.477383,0.3566 -0.795453,0.33108 z m 1.697367,0.13622 c -0.142686,-0.0114 -0.264911,-0.0542 -0.366438,-0.13113 -0.101526,-0.077 -0.177602,-0.17281 -0.224777,-0.29328 -0.05015,-0.1207 -0.06985,-0.24794 -0.05864,-0.38765 0.01121,-0.13971 0.05096,-0.26218 0.119716,-0.37334 0.06578,-0.1114 0.156175,-0.19389 0.268676,-0.25368 0.112263,-0.0568 0.239737,-0.0795 0.382422,-0.068 0.142685,0.0114 0.264911,0.0542 0.366676,0.12816 0.101527,0.0769 0.177603,0.17281 0.22775,0.29352 0.04718,0.12046 0.06688,0.2477 0.05567,0.38741 -0.01121,0.13971 -0.05096,0.26218 -0.116743,0.37357 -0.06876,0.11116 -0.159147,0.19366 -0.271648,0.25344 -0.112502,0.0598 -0.239976,0.0825 -0.382661,0.071 z m 0.01598,-0.19916 c 0.0981,0.008 0.18645,-0.012 0.261848,-0.0568 0.0754,-0.0448 0.134154,-0.10591 0.179717,-0.18902 0.04556,-0.0831 0.07079,-0.17382 0.07867,-0.27192 0.0079,-0.0981 -0.0026,-0.19168 -0.03429,-0.28098 -0.03196,-0.0863 -0.07998,-0.159 -0.14727,-0.21526 -0.06729,-0.0563 -0.151584,-0.087 -0.249681,-0.0948 -0.0981,-0.008 -0.18621,0.009 -0.261609,0.0538 -0.07837,0.0446 -0.137365,0.10865 -0.182689,0.18878 -0.04556,0.0831 -0.07079,0.17382 -0.07867,0.27192 -0.0079,0.0981 0.0026,0.19168 0.03429,0.28098 0.03172,0.0893 0.07998,0.159 0.150243,0.2155 0.06729,0.0563 0.151345,0.0899 0.249441,0.0978 z m 2.029062,0.32739 c 0,0 0.01622,-0.20214 0.01622,-0.20214 -0.06494,0.0636 -0.143788,0.11411 -0.236545,0.15154 -0.09573,0.0372 -0.192762,0.0533 -0.29383,0.0452 -0.306179,-0.0246 -0.445615,-0.18834 -0.421042,-0.49452 0,0 0.08135,-1.01366 0.08135,-1.01366 0,0 0.222946,0.0179 0.222946,0.0179 0,0 -0.07587,0.94529 -0.07587,0.94529 -0.0095,0.11891 0.01053,0.20429 0.06295,0.25936 0.04945,0.0548 0.127804,0.085 0.231845,0.0934 0.08323,0.007 0.165164,-0.008 0.248764,-0.0429 0.08063,-0.0354 0.144136,-0.0812 0.193735,-0.14003 0,0 0.08469,-1.05527 0.08469,-1.05527 0,0 0.222946,0.0179 0.222946,0.0179 0,0 -0.115232,1.43577 -0.115232,1.43577 z m 1.637909,0.13146 c 0,0 0.07539,-0.93935 0.07539,-0.93935 0.0098,-0.12187 -0.01005,-0.21023 -0.06248,-0.26529 -0.05242,-0.0551 -0.127803,-0.085 -0.231845,-0.0934 -0.08323,-0.007 -0.165163,0.008 -0.24603,0.0461 -0.08384,0.0381 -0.147347,0.0839 -0.196946,0.14275 0,0 -0.08422,1.04934 -0.08422,1.04934 0,0 -0.222946,-0.0179 -0.222946,-0.0179 0,0 0.115233,-1.43577 0.115233,-1.43577 0,0 0.222945,0.0179 0.222945,0.0179 0,0 -0.0167,0.20809 -0.0167,0.20809 0.06173,-0.0609 0.140577,-0.11138 0.236783,-0.15452 0.09597,-0.0402 0.195973,-0.0561 0.29407,-0.0482 0.306179,0.0246 0.445376,0.19132 0.420564,0.50047 0,0 -0.08088,1.00771 -0.08088,1.00771 z m 1.028633,0.11846 c -0.104041,-0.008 -0.181916,-0.0445 -0.23089,-0.1053 -0.04897,-0.0608 -0.06905,-0.14615 -0.06022,-0.25614 0,0 0.07539,-0.93934 0.07539,-0.93934 0,0 -0.237809,-0.0191 -0.237809,-0.0191 0,0 0.01575,-0.19619 0.01575,-0.19619 0,0 0.237809,0.0191 0.237809,0.0191 0,0 0.03149,-0.39238 0.03149,-0.39238 0,0 0.222946,0.0179 0.222946,0.0179 0,0 -0.03149,0.39239 -0.03149,0.39239 0,0 0.291316,0.0234 0.291316,0.0234 0,0 -0.01575,0.19619 -0.01575,0.19619 0,0 -0.291315,-0.0234 -0.291315,-0.0234 0,0 -0.07157,0.89178 -0.07157,0.89178 -0.0045,0.0565 0.0038,0.10203 0.02791,0.13687 0.02116,0.0346 0.0554,0.0553 0.102958,0.0591 0.02973,0.002 0.05993,-10e-4 0.08764,-0.0109 0.02747,-0.007 0.05244,-0.0197 0.06874,-0.0364 0,0 0.05204,0.17172 0.05204,0.17172 -0.07041,0.0572 -0.161972,0.0797 -0.274931,0.0707 z m 0.488661,-0.7207 c 0.01098,-0.13674 0.05072,-0.2592 0.12245,-0.37012 0.07173,-0.11093 0.16212,-0.19342 0.274621,-0.2532 0.112502,-0.0598 0.237003,-0.0827 0.370771,-0.072 0.139712,0.0112 0.261938,0.0539 0.360492,0.13066 0.09855,0.0767 0.168446,0.17507 0.215621,0.29553 0.04718,0.12047 0.06343,0.25341 0.05174,0.39907 0,0 -0.0045,0.0565 -0.0045,0.0565 0,0 -1.162291,-0.0933 -1.162291,-0.0933 -0.0023,0.14042 0.04167,0.26362 0.126185,0.36614 0.08452,0.10252 0.202577,0.15986 0.351207,0.17179 0.08323,0.007 0.164687,-0.002 0.247572,-0.028 0.07991,-0.0265 0.148888,-0.0658 0.209901,-0.11779 0,0 0.09532,0.15425 0.09532,0.15425 -0.157348,0.13397 -0.353559,0.19301 -0.588396,0.17417 -0.139712,-0.0112 -0.26491,-0.0542 -0.369887,-0.12543 -0.104976,-0.0712 -0.184025,-0.16735 -0.237145,-0.28829 -0.05312,-0.12094 -0.07532,-0.25436 -0.06363,-0.40002 z m 0.750077,-0.51122 c -0.0981,-0.008 -0.183238,0.009 -0.255425,0.0513 -0.07219,0.0421 -0.130466,0.0972 -0.172101,0.16868 -0.04461,0.0712 -0.07138,0.14386 -0.08056,0.22091 0,0 0.942318,0.0756 0.942318,0.0756 0.0032,-0.0775 -0.0086,-0.15327 -0.03537,-0.23021 -0.02971,-0.0772 -0.07844,-0.14093 -0.142996,-0.19398 -0.06752,-0.0533 -0.151822,-0.084 -0.255864,-0.0923 z m 0.948997,1.3716 c 0,0 0.115233,-1.43577 0.115233,-1.43577 0,0 0.222946,0.0179 0.222946,0.0179 0,0 -0.01861,0.23186 -0.01861,0.23186 0.06887,-0.0753 0.145219,-0.13195 0.232269,-0.17283 0.08408,-0.0411 0.175165,-0.0577 0.267316,-0.0503 0,0 -0.01837,0.2289 -0.01837,0.2289 -0.02628,-0.008 -0.05576,-0.0135 -0.08846,-0.0161 -0.06837,-0.005 -0.141622,0.0126 -0.225699,0.0537 -0.08408,0.0411 -0.144852,0.0901 -0.182084,0.14395 0,0 -0.08159,1.01663 -0.08159,1.01663 z m 0.871384,-0.12154 c 0,0 0.128815,-0.15122 0.128815,-0.15122 0.046,0.0605 0.110316,0.11656 0.19342,0.16212 0.0831,0.0456 0.170613,0.0735 0.262764,0.0809 0.107014,0.009 0.191917,-0.006 0.254948,-0.0454 0.06303,-0.0398 0.09729,-0.0939 0.103015,-0.16526 0.0057,-0.0713 -0.01971,-0.12723 -0.07927,-0.16791 -0.0598,-0.0377 -0.149327,-0.0778 -0.268819,-0.11731 -0.107839,-0.0356 -0.195109,-0.0665 -0.261332,-0.0988 -0.06622,-0.0322 -0.122574,-0.0757 -0.168575,-0.1362 -0.046,-0.0605 -0.06406,-0.13378 -0.05666,-0.22593 0.006,-0.0743 0.0325,-0.14399 0.0821,-0.20284 0.04663,-0.0591 0.112869,-0.10163 0.196231,-0.13384 0.08336,-0.0322 0.179917,-0.0424 0.289904,-0.0336 0.217,0.0174 0.386897,0.0999 0.515397,0.25079 0,0 -0.116448,0.14622 -0.116448,0.14622 -0.04029,-0.0571 -0.09914,-0.10668 -0.170832,-0.14535 -0.07169,-0.0387 -0.153492,-0.0632 -0.242671,-0.0703 -0.0981,-0.008 -0.177054,0.007 -0.236635,0.0408 -0.05958,0.0341 -0.0936,0.0852 -0.09885,0.15063 -0.005,0.0624 0.0209,0.11237 0.07796,0.14687 0.05385,0.0372 0.140648,0.0741 0.254433,0.11017 0.107839,0.0356 0.197843,0.0697 0.270011,0.10245 0.0692,0.0325 0.128042,0.0821 0.174043,0.14262 0.04576,0.0635 0.06608,0.14591 0.0582,0.24401 -0.01026,0.12782 -0.06914,0.2278 -0.173681,0.30019 -0.104538,0.0724 -0.247591,0.10279 -0.425947,0.0885 -0.243754,-0.0196 -0.43101,-0.10939 -0.561528,-0.27244 z"
         id="text106"
         style="font-size:2.98217px;line-height:1.85;font-family:'Proxima Nova';-inkscape-font-specification:'Proxima Nova, Normal';text-align:center;text-anchor:middle;stroke-width:0.381;stroke-linecap:square"
         transform="translate(-3.2510522,28.452591)"
         aria-label="Occasionally Sync. Counters" /></g></g></svg>
