<?xml version="1.0" encoding="UTF-8" standalone="no"?>
<!-- Created with Inkscape (http://www.inkscape.org/) -->

<svg
   width="2.7975981in"
   height="0.47320715in"
   viewBox="0 0 71.058992 12.019461"
   version="1.1"
   id="svg1"
   inkscape:version="1.3 (0e150ed6c4, 2023-07-21)"
   sodipodi:docname="poster.svg"
   xml:space="preserve"
   inkscape:export-filename="poster.png"
   inkscape:export-xdpi="160"
   inkscape:export-ydpi="160"
   xmlns:inkscape="http://www.inkscape.org/namespaces/inkscape"
   xmlns:sodipodi="http://sodipodi.sourceforge.net/DTD/sodipodi-0.dtd"
   xmlns="http://www.w3.org/2000/svg"
   xmlns:svg="http://www.w3.org/2000/svg"><sodipodi:namedview
     id="namedview1"
     pagecolor="#ffffff"
     bordercolor="#999999"
     borderopacity="1"
     inkscape:showpageshadow="2"
     inkscape:pageopacity="0"
     inkscape:pagecheckerboard="false"
     inkscape:deskcolor="#d1d1d1"
     inkscape:document-units="in"
     inkscape:zoom="0.70710678"
     inkscape:cx="494.26764"
     inkscape:cy="484.36815"
     inkscape:window-width="1920"
     inkscape:window-height="1009"
     inkscape:window-x="-8"
     inkscape:window-y="-8"
     inkscape:window-maximized="1"
     inkscape:current-layer="layer1"
     inkscape:export-bgcolor="#ffffff00" /><defs
     id="defs1" /><g
     inkscape:label="Layer 1"
     inkscape:groupmode="layer"
     id="layer1"
     transform="translate(-2.5400001,-120.86166)"><g
       id="g114"
       transform="translate(0,51.858331)"
       inkscape:export-filename="..\..\Github\YesWeCan-Poster\assets\cyber_message.svg"
       inkscape:export-xdpi="160"
       inkscape:export-ydpi="160"><path
         id="rect59-8"
         style="fill:#ffd966;stroke:#000000;stroke-width:0.381;stroke-linecap:square"
         d="M 2.7341902,69.197525 H 21.063196 v 8.346398 H 2.7341902 Z" /><path
         id="rect107"
         style="fill:#74d795;stroke:#000000;stroke-width:0.38177;stroke-linecap:square"
         d="m 21.084284,69.194221 h 19.090704 v 8.355831 H 21.084284 Z" /><path
         id="rect108"
         style="fill:#7ea2cd;stroke:#000000;stroke-width:0.380189;stroke-linecap:square"
         d="m 40.148071,69.193428 h 33.260823 v 8.35741 H 40.148071 Z" /><path
         d="m 4.6702661,79.404503 c 0,0 0,-0.809976 0,-0.809976 0,-0.07655 -0.017286,-0.138289 -0.054328,-0.182739 -0.037042,-0.04198 -0.091369,-0.06421 -0.1654525,-0.06421 -0.059267,0 -0.1185331,0.01729 -0.1777997,0.05433 -0.059267,0.03704 -0.1061859,0.07902 -0.1382886,0.128411 0,0 0,0.874182 0,0.874182 0,0 -0.185208,0 -0.185208,0 0,0 0,-0.809976 0,-0.809976 0,-0.165453 -0.074083,-0.246944 -0.2197802,-0.246944 -0.056797,0 -0.1160637,0.01729 -0.1728608,0.05433 -0.059267,0.03704 -0.1061859,0.07902 -0.1407581,0.130881 0,0 0,0.871712 0,0.871712 0,0 -0.185208,0 -0.185208,0 0,0 0,-1.19274 0,-1.19274 0,0 0.185208,0 0.185208,0 0,0 0,0.172861 0,0.172861 0.029633,-0.04692 0.081492,-0.09137 0.1555747,-0.135819 0.074083,-0.04445 0.1506359,-0.06668 0.229658,-0.06668 0.08643,0 0.1580441,0.01976 0.2123718,0.06174 0.054328,0.04198 0.091369,0.09384 0.1086554,0.160514 0.037042,-0.05927 0.091369,-0.111125 0.1654524,-0.155575 0.074083,-0.04445 0.1531053,-0.06668 0.2345968,-0.06668 0.1086554,0 0.1926164,0.02963 0.2494135,0.09137 0.056797,0.06174 0.083961,0.150636 0.083961,0.269169 0,0 0,0.861835 0,0.861835 z m 1.1927395,0 c 0,0 0,-1.647117 0,-1.647117 0,0 0.185208,0 0.185208,0 0,0 0,0.634646 0,0.634646 0.049389,-0.06667 0.1086553,-0.118533 0.1777996,-0.155574 0.069144,-0.03704 0.1432276,-0.05433 0.2247191,-0.05433 0.1037165,0 0.1950857,0.02469 0.2765772,0.07655 0.079022,0.05186 0.1407581,0.125941 0.1876775,0.21978 0.04445,0.09631 0.066675,0.204963 0.066675,0.330905 0,0.125941 -0.022225,0.237066 -0.066675,0.330905 -0.046919,0.09631 -0.1086554,0.167922 -0.1876775,0.217311 -0.081491,0.05186 -0.1728607,0.07655 -0.2765772,0.07655 -0.081492,0 -0.1555747,-0.01975 -0.2271885,-0.0568 -0.071614,-0.03704 -0.1284109,-0.0889 -0.1753302,-0.150636 0,0 0,0.1778 0,0.1778 z m 0.185208,-0.323497 c 0.032103,0.05186 0.083961,0.09631 0.1506358,0.13335 0.066675,0.03704 0.1333498,0.05433 0.2049635,0.05433 0.1185331,0 0.2123718,-0.04198 0.2815162,-0.128411 0.069144,-0.08643 0.1037164,-0.195086 0.1037164,-0.330905 0,-0.135819 -0.034572,-0.246944 -0.1037164,-0.333375 -0.069144,-0.08643 -0.1629831,-0.12841 -0.2815162,-0.12841 -0.071614,0 -0.1382886,0.01729 -0.2049635,0.05433 -0.066675,0.03704 -0.1185331,0.08396 -0.1506358,0.138289 z m 1.3260912,-1.061859 c -0.032103,0 -0.061736,-0.01235 -0.08643,-0.03704 -0.024694,-0.02223 -0.037042,-0.05186 -0.037042,-0.08643 0,-0.03457 0.012347,-0.06421 0.037042,-0.0889 0.024694,-0.02469 0.054328,-0.03704 0.08643,-0.03704 0.034572,0 0.064205,0.01235 0.0889,0.03704 0.024694,0.02469 0.037042,0.05433 0.037042,0.0889 0,0.03457 -0.012347,0.06421 -0.037042,0.08643 -0.024694,0.02469 -0.054328,0.03704 -0.0889,0.03704 z m -0.091369,1.385356 c 0,0 0,-1.19274 0,-1.19274 0,0 0.185208,0 0.185208,0 0,0 0,1.19274 0,1.19274 z m 0.8568967,0.02963 c -0.08643,0 -0.1531053,-0.02469 -0.1975552,-0.07161 -0.04445,-0.04692 -0.066675,-0.116063 -0.066675,-0.207433 0,0 0,-0.780343 0,-0.780343 0,0 -0.1975552,0 -0.1975552,0 0,0 0,-0.162983 0,-0.162983 0,0 0.1975552,0 0.1975552,0 0,0 0,-0.325966 0,-0.325966 0,0 0.185208,0 0.185208,0 0,0 0,0.325966 0,0.325966 0,0 0.2420051,0 0.2420051,0 0,0 0,0.162983 0,0.162983 0,0 -0.2420051,0 -0.2420051,0 0,0 0,0.740832 0,0.740832 0,0.04692 0.00988,0.08396 0.032103,0.111125 0.019755,0.02716 0.049389,0.04198 0.0889,0.04198 0.024694,0 0.049389,-0.0049 0.071614,-0.01482 0.022225,-0.0074 0.04198,-0.01976 0.054328,-0.03457 0,0 0.054328,0.138289 0.054328,0.138289 -0.054328,0.05186 -0.1284109,0.07655 -0.2222496,0.07655 z M 8.460861,79.246459 c 0,0 0.096308,-0.13335 0.096308,-0.13335 0.04198,0.04692 0.098778,0.0889 0.1703913,0.121003 0.071614,0.0321 0.145697,0.04939 0.2222496,0.04939 0.0889,0 0.1580442,-0.01729 0.207433,-0.05433 0.049389,-0.03704 0.074083,-0.08396 0.074083,-0.143228 0,-0.05927 -0.024694,-0.103716 -0.076553,-0.13335 -0.051858,-0.02716 -0.1284109,-0.05433 -0.229658,-0.07902 -0.091369,-0.02222 -0.1654524,-0.04198 -0.2222496,-0.0642 -0.056797,-0.02223 -0.1061859,-0.05433 -0.1481664,-0.101247 -0.04198,-0.04692 -0.061736,-0.106186 -0.061736,-0.182739 0,-0.06174 0.017286,-0.121002 0.054328,-0.172861 0.034572,-0.05186 0.08643,-0.09137 0.1531053,-0.123472 0.066675,-0.0321 0.145697,-0.04692 0.2370662,-0.04692 0.1802692,0 0.3259661,0.0568 0.4420298,0.172861 0,0 -0.08643,0.128411 -0.08643,0.128411 -0.037042,-0.04445 -0.0889,-0.08149 -0.1506358,-0.108656 -0.061736,-0.02716 -0.1308804,-0.04198 -0.2049636,-0.04198 -0.081492,0 -0.1456969,0.01729 -0.1926163,0.04939 -0.046919,0.0321 -0.071614,0.07655 -0.071614,0.13088 0,0.05186 0.024694,0.09137 0.074083,0.116064 0.046919,0.02716 0.1210025,0.05186 0.2173107,0.07408 0.091369,0.02223 0.1679219,0.04445 0.2296579,0.06668 0.059267,0.02222 0.1111248,0.05927 0.1531053,0.106186 0.04198,0.04939 0.064205,0.116063 0.064205,0.197555 0,0.106186 -0.04198,0.192616 -0.123472,0.259291 -0.081492,0.06668 -0.1975552,0.101247 -0.3457216,0.101247 -0.2024941,0 -0.3630077,-0.06174 -0.4815408,-0.187677 z m 2.160759,0.649462 c -0.111125,-0.153105 -0.197556,-0.323496 -0.256822,-0.513643 -0.06174,-0.187678 -0.09137,-0.380294 -0.09137,-0.577849 0,-0.197555 0.02963,-0.390172 0.09137,-0.580318 0.05927,-0.187678 0.145697,-0.358069 0.256822,-0.511175 0,0 0.111124,0.08396 0.111124,0.08396 -0.08643,0.172861 -0.150635,0.335844 -0.192616,0.48648 -0.04198,0.153105 -0.0642,0.325966 -0.0642,0.521052 0,0.192616 0.02223,0.365477 0.0642,0.518582 0.04198,0.155575 0.106186,0.316089 0.192616,0.48648 z m 1.780464,-0.491418 c 0,0 0,-0.809976 0,-0.809976 0,-0.07655 -0.01729,-0.138289 -0.05433,-0.182739 -0.03704,-0.04198 -0.09137,-0.06421 -0.165452,-0.06421 -0.05927,0 -0.118533,0.01729 -0.1778,0.05433 -0.05927,0.03704 -0.106186,0.07902 -0.138289,0.128411 0,0 0,0.874182 0,0.874182 0,0 -0.185208,0 -0.185208,0 0,0 0,-0.809976 0,-0.809976 0,-0.165453 -0.07408,-0.246944 -0.21978,-0.246944 -0.0568,0 -0.116063,0.01729 -0.172861,0.05433 -0.05927,0.03704 -0.106185,0.07902 -0.140758,0.130881 0,0 0,0.871712 0,0.871712 0,0 -0.185208,0 -0.185208,0 0,0 0,-1.19274 0,-1.19274 0,0 0.185208,0 0.185208,0 0,0 0,0.172861 0,0.172861 0.02963,-0.04692 0.08149,-0.09137 0.155575,-0.135819 0.07408,-0.04445 0.150636,-0.06668 0.229658,-0.06668 0.08643,0 0.158044,0.01976 0.212372,0.06174 0.05433,0.04198 0.09137,0.09384 0.108655,0.160514 0.03704,-0.05927 0.09137,-0.111125 0.165453,-0.155575 0.07408,-0.04445 0.153105,-0.06668 0.234596,-0.06668 0.108656,0 0.192617,0.02963 0.249414,0.09137 0.0568,0.06174 0.08396,0.150636 0.08396,0.269169 0,0 0,0.861835 0,0.861835 z m 1.079145,-0.760588 c 0,0 0,-0.13088 0,-0.13088 0,0 1.089023,-0.540807 1.089023,-0.540807 0,0 0,0.155574 0,0.155574 0,0 -0.930979,0.451908 -0.930979,0.451908 0,0 0.930979,0.449438 0.930979,0.449438 0,0 0,0.153105 0,0.153105 z m 1.232252,0 c 0,0 0,-0.13088 0,-0.13088 0,0 1.089023,-0.540807 1.089023,-0.540807 0,0 0,0.155574 0,0.155574 0,0 -0.930979,0.451908 -0.930979,0.451908 0,0 0.930979,0.449438 0.930979,0.449438 0,0 0,0.153105 0,0.153105 z m 2.237312,0.760588 c 0,0 0,-1.375478 0,-1.375478 0,0 -0.26423,0.279047 -0.26423,0.279047 0,0 -0.123472,-0.125942 -0.123472,-0.125942 0,0 0.412397,-0.424744 0.412397,-0.424744 0,0 0.180269,0 0.180269,0 0,0 0,1.647117 0,1.647117 z m 0.530932,0 c 0,0 0,-0.162983 0,-0.162983 0.227188,-0.180269 0.402519,-0.323497 0.52846,-0.434622 0.123472,-0.108655 0.21978,-0.212371 0.286455,-0.30868 0.06668,-0.09631 0.09878,-0.190146 0.09878,-0.281516 0,-0.09878 -0.03457,-0.172861 -0.101247,-0.224719 -0.06668,-0.05186 -0.148167,-0.07655 -0.242006,-0.07655 -0.09631,0 -0.180269,0.01729 -0.256821,0.05433 -0.07655,0.03704 -0.140758,0.0889 -0.190147,0.153106 0,0 -0.125942,-0.130881 -0.125942,-0.130881 0.06174,-0.08149 0.145697,-0.145697 0.246944,-0.192616 0.101247,-0.04445 0.209903,-0.06668 0.325966,-0.06668 0.09631,0 0.185208,0.01729 0.269169,0.05433 0.08396,0.03704 0.153106,0.09137 0.204964,0.162983 0.05186,0.07408 0.07902,0.162983 0.07902,0.266699 0,0.106186 -0.0321,0.212372 -0.09878,0.318558 -0.06667,0.106186 -0.155574,0.212372 -0.266699,0.318558 -0.111125,0.106186 -0.256822,0.227188 -0.434622,0.367946 0,0 0.807507,0 0.807507,0 0,0 0,0.182739 0,0.182739 z m 1.44709,-0.417335 c 0,-0.103717 0.03704,-0.192617 0.113594,-0.269169 0.07408,-0.07655 0.167922,-0.130881 0.279047,-0.162983 -0.106186,-0.02963 -0.192616,-0.07902 -0.26176,-0.145697 -0.06914,-0.06667 -0.103717,-0.148167 -0.103717,-0.249414 0,-0.09384 0.02716,-0.172861 0.08149,-0.237066 0.05186,-0.06421 0.123472,-0.111125 0.209902,-0.143228 0.08643,-0.0321 0.17533,-0.04692 0.271638,-0.04692 0.09631,0 0.187678,0.01482 0.274108,0.04692 0.08643,0.0321 0.155575,0.07902 0.209903,0.143228 0.05433,0.06421 0.08149,0.143227 0.08149,0.237066 0,0.101247 -0.03457,0.182739 -0.103716,0.249414 -0.06914,0.06667 -0.158045,0.116063 -0.26423,0.145697 0.111124,0.0321 0.204963,0.08643 0.281516,0.162983 0.07408,0.07655 0.111125,0.165452 0.111125,0.269169 0,0.09137 -0.02716,0.170391 -0.07902,0.237066 -0.05186,0.06668 -0.123472,0.118533 -0.212371,0.155574 -0.09137,0.03704 -0.190147,0.05433 -0.298803,0.05433 -0.111124,0 -0.209902,-0.01729 -0.298802,-0.05433 -0.09137,-0.03704 -0.160513,-0.0889 -0.212372,-0.155574 -0.05186,-0.06667 -0.07902,-0.145697 -0.07902,-0.237066 z m 0.948265,-0.800099 c 0,-0.08149 -0.03457,-0.148166 -0.101247,-0.197555 -0.06914,-0.04939 -0.155575,-0.07408 -0.256822,-0.07408 -0.103716,0 -0.190147,0.02469 -0.256821,0.07408 -0.06668,0.04939 -0.101247,0.116063 -0.101247,0.197555 0,0.08643 0.03951,0.153105 0.116063,0.195086 0.07655,0.04445 0.158044,0.07408 0.242005,0.0889 0.08396,-0.01482 0.165453,-0.04445 0.242005,-0.0889 0.07655,-0.04198 0.116064,-0.108656 0.116064,-0.195086 z m 0.0247,0.777874 c 0,-0.06668 -0.02223,-0.121003 -0.06914,-0.167922 -0.04692,-0.04692 -0.09878,-0.08149 -0.158044,-0.106186 -0.05927,-0.0247 -0.111125,-0.03951 -0.155575,-0.04445 -0.04445,0.0049 -0.09631,0.01976 -0.155574,0.04445 -0.06174,0.02469 -0.113595,0.05927 -0.160514,0.106186 -0.04692,0.04692 -0.06914,0.101247 -0.06914,0.167922 0,0.08643 0.03704,0.155574 0.113594,0.207433 0.07408,0.05186 0.165452,0.07902 0.271638,0.07902 0.106186,0 0.195086,-0.02716 0.271639,-0.07902 0.07408,-0.05186 0.111125,-0.121003 0.111125,-0.207433 z m 0.634645,-0.160514 c 0,-0.195086 -0.02222,-0.367947 -0.06421,-0.521052 -0.04198,-0.153105 -0.108655,-0.316088 -0.195085,-0.48648 0,0 0.111124,-0.08396 0.111124,-0.08396 0.111125,0.153106 0.197556,0.323497 0.259292,0.511175 0.06174,0.190146 0.09137,0.382763 0.09137,0.580318 0,0.200025 -0.02963,0.392641 -0.09137,0.580318 -0.06174,0.190147 -0.148167,0.360539 -0.259292,0.511174 0,0 -0.111124,-0.08643 -0.111124,-0.08643 0.08643,-0.170391 0.153105,-0.330905 0.195085,-0.48648 0.04198,-0.153105 0.06421,-0.325966 0.06421,-0.518582 z"
         id="text72-9"
         style="font-size:2.46944px;line-height:1.85;font-family:'Proxima Nova';-inkscape-font-specification:'Proxima Nova, Normal';stroke-width:0.381;stroke-linecap:square"
         transform="scale(0.99281964,1.0072323)"
         aria-label="m bits (m &lt;&lt; 128)&#10;" /><path
         d="m 9.7906153,74.333488 c 0,0 0,-2.147164 0,-2.147164 0,0 -0.8409729,2.147164 -0.8409729,2.147164 0,0 -0.2773421,0 -0.2773421,0 0,0 -0.8409728,-2.147164 -0.8409728,-2.147164 0,0 0,2.147164 0,2.147164 0,0 -0.6352029,0 -0.6352029,0 0,0 0,-2.983664 0,-2.983664 0,0 0.8901787,0 0.8901787,0 0,0 0.7246681,1.860876 0.7246681,1.860876 0,0 0.7246681,-1.860876 0.7246681,-1.860876 0,0 0.8946515,0 0.8946515,0 0,0 0,2.983664 0,2.983664 z m 3.3191567,0 c 0,0 -0.187877,-0.514424 -0.187877,-0.514424 0,0 -1.333031,0 -1.333031,0 0,0 -0.187877,0.514424 -0.187877,0.514424 0,0 -0.697829,0 -0.697829,0 0,0 1.154101,-2.983664 1.154101,-2.983664 0,0 0.796241,0 0.796241,0 0,0 1.149627,2.983664 1.149627,2.983664 z M 12.25538,71.900035 c 0,0 -0.496532,1.368818 -0.496532,1.368818 0,0 0.98859,0 0.98859,0 z m 3.247586,2.487133 c -0.290762,0 -0.554684,-0.0671 -0.791767,-0.196824 -0.237083,-0.129724 -0.424959,-0.308655 -0.56363,-0.545738 -0.138672,-0.237082 -0.210244,-0.501005 -0.210244,-0.800713 0,-0.299709 0.07157,-0.563631 0.210244,-0.800714 0.138671,-0.237082 0.326547,-0.420486 0.56363,-0.550211 0.237083,-0.129724 0.501005,-0.19235 0.791767,-0.19235 0.313128,0 0.572578,0.0671 0.778347,0.201297 0.20577,0.138671 0.371281,0.313128 0.492059,0.527845 0,0 -0.545738,0.268395 -0.545738,0.268395 -0.0671,-0.125251 -0.161037,-0.228136 -0.290762,-0.313128 -0.129724,-0.08052 -0.277342,-0.120778 -0.433906,-0.120778 -0.169984,0 -0.326548,0.04026 -0.465219,0.125251 -0.138671,0.08499 -0.250502,0.20577 -0.326548,0.353388 -0.08052,0.147617 -0.120778,0.317601 -0.120778,0.501005 0,0.183404 0.04026,0.353387 0.120778,0.501005 0.07605,0.147618 0.187877,0.263922 0.326548,0.348914 0.138671,0.08499 0.295235,0.129725 0.465219,0.129725 0.161038,0 0.304182,-0.04026 0.433906,-0.120778 0.129725,-0.08052 0.223663,-0.183404 0.290762,-0.313128 0,0 0.545738,0.263922 0.545738,0.263922 -0.281815,0.487585 -0.706775,0.733615 -1.270406,0.733615 z"
         id="text65-5"
         style="font-size:4.47326px;line-height:1.85;font-family:'Proxima Nova Bold';-inkscape-font-specification:'Proxima Nova Bold, Normal';stroke-width:0.381;stroke-linecap:square"
         transform="scale(0.99281964,1.0072323)"
         aria-label="MAC" /><path
         d="m 24.3202,74.388571 c -0.290762,0 -0.554684,-0.0671 -0.791767,-0.196823 -0.237082,-0.129725 -0.424959,-0.308655 -0.56363,-0.545738 -0.138672,-0.237083 -0.210244,-0.501005 -0.210244,-0.800713 0,-0.299709 0.07157,-0.563631 0.210244,-0.800714 0.138671,-0.237083 0.326548,-0.420486 0.56363,-0.550211 0.237083,-0.129724 0.501005,-0.19235 0.791767,-0.19235 0.313128,0 0.572578,0.0671 0.778348,0.201297 0.205769,0.138671 0.37128,0.313128 0.492058,0.527844 0,0 -0.545738,0.268396 -0.545738,0.268396 -0.0671,-0.125251 -0.161037,-0.228136 -0.290761,-0.313128 -0.129725,-0.08052 -0.277343,-0.120778 -0.433907,-0.120778 -0.169984,0 -0.326548,0.04026 -0.465219,0.125251 -0.138671,0.08499 -0.250502,0.20577 -0.326548,0.353388 -0.08052,0.147617 -0.120778,0.317601 -0.120778,0.501005 0,0.183403 0.04026,0.353387 0.120778,0.501005 0.07605,0.147617 0.187877,0.263922 0.326548,0.348914 0.138671,0.08499 0.295235,0.129725 0.465219,0.129725 0.161038,0 0.304182,-0.04026 0.433907,-0.120778 0.129724,-0.08052 0.223663,-0.183404 0.290761,-0.313129 0,0 0.545738,0.263923 0.545738,0.263923 -0.281815,0.487585 -0.706775,0.733614 -1.270406,0.733614 z m 2.639225,0 c -0.228136,0 -0.429433,-0.04921 -0.60389,-0.15209 -0.174457,-0.102885 -0.304182,-0.237083 -0.39812,-0.41154 -0.09394,-0.174457 -0.138671,-0.362334 -0.138671,-0.572578 0,-0.20577 0.04473,-0.393647 0.138671,-0.568104 0.09394,-0.174457 0.223663,-0.308655 0.39812,-0.41154 0.174457,-0.102885 0.375754,-0.15209 0.60389,-0.15209 0.232609,0 0.433906,0.04921 0.608363,0.15209 0.174457,0.102885 0.304182,0.237083 0.39812,0.41154 0.09394,0.174457 0.138671,0.362334 0.138671,0.568104 0,0.210244 -0.04473,0.398121 -0.138671,0.572578 -0.09394,0.174457 -0.223663,0.308655 -0.39812,0.41154 -0.174457,0.102885 -0.375754,0.15209 -0.608363,0.15209 z m 0,-0.505478 c 0.169984,0 0.304182,-0.06263 0.407067,-0.183404 0.09841,-0.120778 0.147617,-0.268395 0.147617,-0.447326 0,-0.174457 -0.04921,-0.326548 -0.147617,-0.447326 -0.102885,-0.120778 -0.237083,-0.17893 -0.407067,-0.17893 -0.169984,0 -0.304182,0.05815 -0.402593,0.17893 -0.09841,0.120778 -0.147618,0.272869 -0.147618,0.447326 0,0.178931 0.04921,0.326548 0.147618,0.447326 0.09841,0.120778 0.232609,0.183404 0.402593,0.183404 z m 3.023921,0.451799 c 0,0 0,-0.272869 0,-0.272869 -0.08499,0.09394 -0.187877,0.169984 -0.317601,0.23261 -0.129725,0.06263 -0.277342,0.09394 -0.442853,0.09394 -0.23261,0 -0.407067,-0.05815 -0.523372,-0.17893 -0.116304,-0.120778 -0.174457,-0.286289 -0.174457,-0.501005 0,0 0,-1.534328 0,-1.534328 0,0 0.568104,0 0.568104,0 0,0 0,1.310665 0,1.310665 0,0.143144 0.03579,0.246029 0.102885,0.304182 0.0671,0.06263 0.165511,0.09394 0.295236,0.09394 0.102884,0 0.196823,-0.02237 0.281815,-0.07157 0.08499,-0.04921 0.156564,-0.107358 0.210243,-0.174457 0,0 0,-1.462756 0,-1.462756 0,0 0.568104,0 0.568104,0 0,0 0,2.160584 0,2.160584 z m 2.590019,0 c 0,0 0,-1.306192 0,-1.306192 0,-0.143144 -0.03579,-0.246029 -0.102885,-0.308655 -0.0671,-0.06262 -0.16551,-0.09394 -0.295235,-0.09394 -0.102885,0 -0.196823,0.02237 -0.281815,0.07157 -0.08499,0.04921 -0.156564,0.111832 -0.210243,0.183404 0,0 0,1.453809 0,1.453809 0,0 -0.568104,0 -0.568104,0 0,0 0,-2.160584 0,-2.160584 0,0 0.568104,0 0.568104,0 0,0 0,0.281815 0,0.281815 0.07605,-0.09394 0.183403,-0.169984 0.313128,-0.237083 0.129724,-0.0671 0.277342,-0.09841 0.442853,-0.09841 0.232609,0 0.407066,0.06263 0.527844,0.183403 0.116305,0.120778 0.174457,0.290762 0.174457,0.505479 0,0 0,1.525381 0,1.525381 z m 1.856406,0.05368 c -0.201297,0 -0.353388,-0.04921 -0.456273,-0.15209 -0.102885,-0.102885 -0.156564,-0.24603 -0.156564,-0.43838 0,0 0,-1.127261 0,-1.127261 0,0 -0.357861,0 -0.357861,0 0,0 0,-0.496532 0,-0.496532 0,0 0.357861,0 0.357861,0 0,0 0,-0.590471 0,-0.590471 0,0 0.572578,0 0.572578,0 0,0 0,0.590471 0,0.590471 0,0 0.438379,0 0.438379,0 0,0 0,0.496532 0,0.496532 0,0 -0.438379,0 -0.438379,0 0,0 0,0.97517 0,0.97517 0,0.0671 0.01789,0.125252 0.05368,0.169984 0.03579,0.04473 0.08499,0.0671 0.143144,0.0671 0.04026,0 0.08052,-0.0045 0.116305,-0.01789 0.03579,-0.01342 0.06262,-0.02684 0.08052,-0.04473 0,0 0.120778,0.429433 0.120778,0.429433 -0.102885,0.09394 -0.263922,0.138671 -0.474165,0.138671 z m 0.64862,-1.136208 c 0,-0.210243 0.04921,-0.39812 0.143144,-0.572577 0.09394,-0.169984 0.228136,-0.304182 0.39812,-0.407067 0.169984,-0.102885 0.362334,-0.15209 0.577051,-0.15209 0.210243,0 0.39812,0.04921 0.563631,0.147617 0.16551,0.102885 0.290761,0.241556 0.3847,0.420487 0.08946,0.183403 0.134198,0.389173 0.134198,0.621783 0,0 0,0.125251 0,0.125251 0,0 -1.605901,0 -1.605901,0 0.01789,0.143144 0.08052,0.263922 0.192351,0.357861 0.111831,0.09394 0.254975,0.143144 0.429432,0.143144 0.102885,0 0.210244,-0.01789 0.317602,-0.05815 0.102885,-0.04026 0.19235,-0.08947 0.259449,-0.156564 0,0 0.250503,0.366807 0.250503,0.366807 -0.102885,0.09394 -0.237083,0.169984 -0.393647,0.21919 -0.156564,0.05368 -0.322075,0.08052 -0.496532,0.08052 -0.21919,0 -0.416013,-0.04921 -0.59047,-0.143144 -0.174458,-0.09394 -0.313129,-0.223663 -0.41154,-0.39812 -0.102885,-0.169984 -0.152091,-0.366807 -0.152091,-0.594944 z m 1.118315,-0.679935 c -0.161038,0 -0.286289,0.04921 -0.375754,0.143144 -0.08946,0.09841 -0.143144,0.210243 -0.156564,0.335495 0,0 1.064636,0 1.064636,0 -0.0089,-0.120778 -0.05815,-0.23261 -0.143145,-0.331022 -0.08946,-0.09841 -0.219189,-0.147617 -0.389173,-0.147617 z m 1.494066,1.762464 c 0,0 0,-2.160584 0,-2.160584 0,0 0.568104,0 0.568104,0 0,0 0,0.295235 0,0.295235 0.07605,-0.09841 0.17893,-0.178931 0.304182,-0.246029 0.125251,-0.0671 0.254975,-0.09841 0.3847,-0.09841 0,0 0,0.554684 0,0.554684 -0.05368,-0.01342 -0.107358,-0.01789 -0.156564,-0.01789 -0.09394,0 -0.196824,0.02237 -0.304182,0.07157 -0.107358,0.04921 -0.183403,0.107358 -0.228136,0.174457 0,0 0,1.42697 0,1.42697 z"
         id="text65-5-8"
         style="font-size:4.47326px;line-height:1.85;font-family:'Proxima Nova Bold';-inkscape-font-specification:'Proxima Nova Bold, Normal';stroke-width:0.381;stroke-linecap:square"
         transform="scale(0.99281964,1.0072323)"
         aria-label="Counter" /><path
         d="m 23.97994,79.404503 c 0,0 0,-0.780343 0,-0.780343 0,-0.101247 -0.02222,-0.172861 -0.06914,-0.214841 -0.04692,-0.04198 -0.111125,-0.06174 -0.197555,-0.06174 -0.06914,0 -0.13582,0.01729 -0.200025,0.05433 -0.06668,0.03704 -0.116064,0.07902 -0.153105,0.130881 0,0 0,0.871712 0,0.871712 0,0 -0.185208,0 -0.185208,0 0,0 0,-1.19274 0,-1.19274 0,0 0.185208,0 0.185208,0 0,0 0,0.172861 0,0.172861 0.04692,-0.05433 0.108655,-0.101247 0.185208,-0.143227 0.07655,-0.03951 0.158044,-0.05927 0.239535,-0.05927 0.254353,0 0.380294,0.128411 0.380294,0.385233 0,0 0,0.83714 0,0.83714 z m 1.19274,0 c 0,0 0,-1.647117 0,-1.647117 0,0 0.185208,0 0.185208,0 0,0 0,0.634646 0,0.634646 0.04939,-0.06667 0.108655,-0.118533 0.177799,-0.155574 0.06914,-0.03704 0.143228,-0.05433 0.224719,-0.05433 0.103717,0 0.195086,0.02469 0.276578,0.07655 0.07902,0.05186 0.140758,0.125941 0.187677,0.21978 0.04445,0.09631 0.06668,0.204963 0.06668,0.330905 0,0.125941 -0.02223,0.237066 -0.06668,0.330905 -0.04692,0.09631 -0.108655,0.167922 -0.187677,0.217311 -0.08149,0.05186 -0.172861,0.07655 -0.276578,0.07655 -0.08149,0 -0.155574,-0.01975 -0.227188,-0.0568 -0.07161,-0.03704 -0.128411,-0.0889 -0.17533,-0.150636 0,0 0,0.1778 0,0.1778 z m 0.185208,-0.323497 c 0.0321,0.05186 0.08396,0.09631 0.150635,0.13335 0.06668,0.03704 0.13335,0.05433 0.204964,0.05433 0.118533,0 0.212372,-0.04198 0.281516,-0.128411 0.06914,-0.08643 0.103717,-0.195086 0.103717,-0.330905 0,-0.135819 -0.03457,-0.246944 -0.103717,-0.333375 -0.06914,-0.08643 -0.162983,-0.12841 -0.281516,-0.12841 -0.07161,0 -0.138289,0.01729 -0.204964,0.05433 -0.06667,0.03704 -0.118533,0.08396 -0.150635,0.138289 z m 1.326091,-1.061859 c -0.0321,0 -0.06174,-0.01235 -0.08643,-0.03704 -0.02469,-0.02223 -0.03704,-0.05186 -0.03704,-0.08643 0,-0.03457 0.01235,-0.06421 0.03704,-0.0889 0.0247,-0.02469 0.05433,-0.03704 0.08643,-0.03704 0.03457,0 0.0642,0.01235 0.0889,0.03704 0.02469,0.02469 0.03704,0.05433 0.03704,0.0889 0,0.03457 -0.01235,0.06421 -0.03704,0.08643 -0.0247,0.02469 -0.05433,0.03704 -0.0889,0.03704 z m -0.09137,1.385356 c 0,0 0,-1.19274 0,-1.19274 0,0 0.185208,0 0.185208,0 0,0 0,1.19274 0,1.19274 z m 0.856896,0.02963 c -0.08643,0 -0.153105,-0.02469 -0.197555,-0.07161 -0.04445,-0.04692 -0.06667,-0.116063 -0.06667,-0.207433 0,0 0,-0.780343 0,-0.780343 0,0 -0.197555,0 -0.197555,0 0,0 0,-0.162983 0,-0.162983 0,0 0.197555,0 0.197555,0 0,0 0,-0.325966 0,-0.325966 0,0 0.185208,0 0.185208,0 0,0 0,0.325966 0,0.325966 0,0 0.242005,0 0.242005,0 0,0 0,0.162983 0,0.162983 0,0 -0.242005,0 -0.242005,0 0,0 0,0.740832 0,0.740832 0,0.04692 0.0099,0.08396 0.0321,0.111125 0.01975,0.02716 0.04939,0.04198 0.0889,0.04198 0.02469,0 0.04939,-0.0049 0.07161,-0.01482 0.02223,-0.0074 0.04198,-0.01976 0.05433,-0.03457 0,0 0.05433,0.138289 0.05433,0.138289 -0.05433,0.05186 -0.128411,0.07655 -0.22225,0.07655 z m 0.321029,-0.187677 c 0,0 0.09631,-0.13335 0.09631,-0.13335 0.04198,0.04692 0.09878,0.0889 0.170392,0.121003 0.07161,0.0321 0.145697,0.04939 0.222249,0.04939 0.0889,0 0.158044,-0.01729 0.207433,-0.05433 0.04939,-0.03704 0.07408,-0.08396 0.07408,-0.143228 0,-0.05927 -0.02469,-0.103716 -0.07655,-0.13335 -0.05186,-0.02716 -0.128411,-0.05433 -0.229658,-0.07902 -0.09137,-0.02222 -0.165453,-0.04198 -0.22225,-0.0642 -0.0568,-0.02223 -0.106186,-0.05433 -0.148166,-0.101247 -0.04198,-0.04692 -0.06174,-0.106186 -0.06174,-0.182739 0,-0.06174 0.01729,-0.121002 0.05433,-0.172861 0.03457,-0.05186 0.08643,-0.09137 0.153106,-0.123472 0.06668,-0.0321 0.145697,-0.04692 0.237066,-0.04692 0.180269,0 0.325966,0.0568 0.44203,0.172861 0,0 -0.08643,0.128411 -0.08643,0.128411 -0.03704,-0.04445 -0.0889,-0.08149 -0.150636,-0.108656 -0.06174,-0.02716 -0.13088,-0.04198 -0.204963,-0.04198 -0.08149,0 -0.145697,0.01729 -0.192616,0.04939 -0.04692,0.0321 -0.07161,0.07655 -0.07161,0.13088 0,0.05186 0.02469,0.09137 0.07408,0.116064 0.04692,0.02716 0.121003,0.05186 0.217311,0.07408 0.09137,0.02223 0.167922,0.04445 0.229658,0.06668 0.05927,0.02222 0.111125,0.05927 0.153105,0.106186 0.04198,0.04939 0.06421,0.116063 0.06421,0.197555 0,0.106186 -0.04198,0.192616 -0.123472,0.259291 -0.08149,0.06668 -0.197555,0.101247 -0.345721,0.101247 -0.202494,0 -0.363008,-0.06174 -0.481541,-0.187677 z m 2.160759,0.649462 c -0.111125,-0.153105 -0.197556,-0.323496 -0.256822,-0.513643 -0.06174,-0.187678 -0.09137,-0.380294 -0.09137,-0.577849 0,-0.197555 0.02963,-0.390172 0.09137,-0.580318 0.05927,-0.187678 0.145697,-0.358069 0.256822,-0.511175 0,0 0.111124,0.08396 0.111124,0.08396 -0.08643,0.172861 -0.150635,0.335844 -0.192616,0.48648 -0.04198,0.153105 -0.06421,0.325966 -0.06421,0.521052 0,0.192616 0.02223,0.365477 0.06421,0.518582 0.04198,0.155575 0.106186,0.316089 0.192616,0.48648 z M 31.077111,79.4045 c 0,0 0,-0.780343 0,-0.780343 0,-0.101247 -0.02222,-0.172861 -0.06914,-0.214841 -0.04692,-0.04198 -0.111124,-0.06174 -0.197555,-0.06174 -0.06914,0 -0.135819,0.01729 -0.200024,0.05433 -0.06668,0.03704 -0.116064,0.07902 -0.153106,0.130881 0,0 0,0.871712 0,0.871712 0,0 -0.185208,0 -0.185208,0 0,0 0,-1.19274 0,-1.19274 0,0 0.185208,0 0.185208,0 0,0 0,0.172861 0,0.172861 0.04692,-0.05433 0.108656,-0.101247 0.185208,-0.143227 0.07655,-0.03951 0.158045,-0.05927 0.239536,-0.05927 0.254352,0 0.380294,0.128411 0.380294,0.385233 0,0 0,0.83714 0,0.83714 z m 1.079145,-0.760588 c 0,0 0,-0.13088 0,-0.13088 0,0 1.089023,-0.540807 1.089023,-0.540807 0,0 0,0.155574 0,0.155574 0,0 -0.930979,0.451908 -0.930979,0.451908 0,0 0.930979,0.449438 0.930979,0.449438 0,0 0,0.153105 0,0.153105 z m 1.232252,0 c 0,0 0,-0.13088 0,-0.13088 0,0 1.089023,-0.540807 1.089023,-0.540807 0,0 0,0.155574 0,0.155574 0,0 -0.930979,0.451908 -0.930979,0.451908 0,0 0.930979,0.449438 0.930979,0.449438 0,0 0,0.153105 0,0.153105 z m 1.923694,-0.05927 c 0,-0.155575 0.02469,-0.296333 0.07408,-0.427213 0.04692,-0.128411 0.121002,-0.232128 0.222249,-0.30868 0.101247,-0.07655 0.224719,-0.116064 0.372886,-0.116064 0.190147,0 0.340783,0.06668 0.456846,0.197555 0,0 -0.103716,0.153105 -0.103716,0.153105 -0.04692,-0.05433 -0.09631,-0.09631 -0.150636,-0.125941 -0.05433,-0.02716 -0.121003,-0.04198 -0.202494,-0.04198 -0.101247,0 -0.187678,0.02963 -0.256822,0.09137 -0.06914,0.06174 -0.121002,0.140758 -0.155575,0.237066 -0.03457,0.09878 -0.05186,0.204964 -0.05186,0.318558 0,0.02716 0,0.04939 0.0025,0.06421 0.04198,-0.06667 0.106185,-0.125941 0.192616,-0.177799 0.08643,-0.05186 0.1778,-0.07902 0.274108,-0.07902 0.101247,0 0.192616,0.01975 0.274108,0.05927 0.08149,0.03951 0.145697,0.09878 0.192616,0.1778 0.04692,0.07902 0.07161,0.17533 0.07161,0.288924 0,0.09631 -0.02222,0.185208 -0.06914,0.2667 -0.04692,0.08149 -0.116063,0.148166 -0.202494,0.197555 -0.08643,0.04939 -0.190147,0.07408 -0.30621,0.07408 -0.214842,0 -0.375355,-0.08149 -0.479072,-0.242005 -0.103716,-0.160514 -0.155574,-0.363008 -0.155574,-0.607482 z m 1.005062,0.318558 c 0,-0.116064 -0.03457,-0.202495 -0.106186,-0.264231 -0.07161,-0.06174 -0.162983,-0.09137 -0.274108,-0.09137 -0.08149,0 -0.158044,0.02223 -0.232127,0.06668 -0.07408,0.04692 -0.13335,0.106186 -0.18027,0.180269 0.01235,0.121003 0.05186,0.227189 0.118534,0.318558 0.06667,0.09137 0.165452,0.138289 0.296332,0.138289 0.08149,0 0.150636,-0.01729 0.207433,-0.05186 0.0568,-0.03457 0.09878,-0.07902 0.128411,-0.133349 0.02716,-0.05186 0.04198,-0.106186 0.04198,-0.162983 z m 1.190269,0.501296 c 0,0 0,-0.417335 0,-0.417335 0,0 -0.782812,0 -0.782812,0 0,0 0,-0.170392 0,-0.170392 0,0 0.706259,-1.05939 0.706259,-1.05939 0,0 0.281517,0 0.281517,0 0,0 0,1.049512 0,1.049512 0,0 0.232127,0 0.232127,0 0,0 0,0.18027 0,0.18027 0,0 -0.232127,0 -0.232127,0 0,0 0,0.417335 0,0.417335 z m 0,-1.45697 c 0,0 -0.577849,0.859365 -0.577849,0.859365 0,0 0.577849,0 0.577849,0 z m 0.817386,0.856896 c 0,-0.195086 -0.02222,-0.367947 -0.06421,-0.521052 -0.04198,-0.153105 -0.108656,-0.316088 -0.195086,-0.48648 0,0 0.111125,-0.08396 0.111125,-0.08396 0.111124,0.153106 0.197555,0.323497 0.259291,0.511175 0.06174,0.190146 0.09137,0.382763 0.09137,0.580318 0,0.200025 -0.02963,0.392641 -0.09137,0.580318 -0.06174,0.190147 -0.148167,0.360539 -0.259291,0.511174 0,0 -0.111125,-0.08643 -0.111125,-0.08643 0.08643,-0.170391 0.153105,-0.330905 0.195086,-0.48648 0.04198,-0.153105 0.06421,-0.325966 0.06421,-0.518583 z"
         id="text111"
         style="font-size:2.46944px;line-height:1.85;font-family:'Proxima Nova';-inkscape-font-specification:'Proxima Nova, Normal';stroke-width:0.381;stroke-linecap:square"
         transform="scale(0.99281964,1.0072323)"
         aria-label="n bits (n &lt;&lt; 64)&#10;" /><path
         d="m 52.686787,74.310287 c 0,0 0,-2.983664 0,-2.983664 0,0 1.176467,0 1.176467,0 0.308655,0 0.585998,0.06263 0.82308,0.183404 0.237083,0.125251 0.42496,0.299708 0.559158,0.527844 0.134198,0.228137 0.201297,0.487586 0.201297,0.782821 0,0.295235 -0.0671,0.554684 -0.201297,0.778347 -0.134198,0.228136 -0.322075,0.402594 -0.559158,0.523372 -0.237082,0.125251 -0.514425,0.187876 -0.82308,0.187876 z M 53.32199,73.75113 c 0,0 0.541264,0 0.541264,0 0.192351,0 0.357861,-0.04026 0.501006,-0.125251 0.138671,-0.08499 0.246029,-0.196824 0.322074,-0.339968 0.07605,-0.138671 0.111832,-0.295235 0.111832,-0.465219 0,-0.272869 -0.08052,-0.501005 -0.246029,-0.675462 -0.165511,-0.174457 -0.393647,-0.259449 -0.688883,-0.259449 0,0 -0.541264,0 -0.541264,0 z m 3.860425,0.559157 c 0,0 0,-0.223663 0,-0.223663 -0.07605,0.08499 -0.169984,0.152091 -0.290762,0.201297 -0.120778,0.04921 -0.254976,0.07605 -0.393647,0.07605 -0.120778,0 -0.241556,-0.02684 -0.353387,-0.08052 -0.116305,-0.05368 -0.210243,-0.134198 -0.286289,-0.246029 -0.07605,-0.107359 -0.111831,-0.237083 -0.111831,-0.389174 0,-0.156564 0.03579,-0.290762 0.111831,-0.393647 0.07605,-0.102885 0.169984,-0.174457 0.281816,-0.223663 0.111831,-0.04921 0.232609,-0.07157 0.35786,-0.07157 0.147618,0 0.277343,0.02237 0.398121,0.0671 0.120778,0.04473 0.214716,0.111831 0.286288,0.196823 0,0 0,-0.299708 0,-0.299708 0,-0.111832 -0.04473,-0.196824 -0.129724,-0.263922 -0.08499,-0.0671 -0.201297,-0.09841 -0.344441,-0.09841 -0.237083,0 -0.447326,0.08499 -0.63073,0.254976 0,0 -0.214716,-0.380227 -0.214716,-0.380227 0.129724,-0.111832 0.272868,-0.196824 0.438379,-0.254976 0.161037,-0.05815 0.331021,-0.08499 0.505478,-0.08499 0.277342,0 0.505479,0.06262 0.679936,0.19235 0.174457,0.129725 0.263922,0.335494 0.263922,0.626256 0,0 0,1.395657 0,1.395657 z m 0,-0.518898 c 0,0 0,-0.268395 0,-0.268395 -0.04473,-0.05815 -0.107358,-0.107359 -0.187877,-0.138671 -0.08499,-0.03131 -0.174457,-0.04921 -0.268395,-0.04921 -0.116305,0 -0.214717,0.02684 -0.290762,0.08499 -0.07605,0.05815 -0.116305,0.138671 -0.116305,0.241556 0,0.09841 0.04026,0.174457 0.116305,0.232609 0.07605,0.05815 0.174457,0.08499 0.290762,0.08499 0.09394,0 0.183403,-0.01789 0.268395,-0.04921 0.08052,-0.03131 0.143145,-0.08052 0.187877,-0.138671 z m 1.8564,0.572578 c -0.201297,0 -0.353388,-0.04921 -0.456273,-0.152091 -0.102885,-0.102885 -0.156564,-0.24603 -0.156564,-0.43838 0,0 0,-1.127261 0,-1.127261 0,0 -0.35786,0 -0.35786,0 0,0 0,-0.496532 0,-0.496532 0,0 0.35786,0 0.35786,0 0,0 0,-0.59047 0,-0.59047 0,0 0.572578,0 0.572578,0 0,0 0,0.59047 0,0.59047 0,0 0.438379,0 0.438379,0 0,0 0,0.496532 0,0.496532 0,0 -0.438379,0 -0.438379,0 0,0 0,0.97517 0,0.97517 0,0.0671 0.01789,0.125252 0.05368,0.169984 0.03579,0.04473 0.08499,0.0671 0.143144,0.0671 0.04026,0 0.08052,-0.0045 0.116305,-0.01789 0.03579,-0.01342 0.06262,-0.02684 0.08052,-0.04473 0,0 0.120779,0.429433 0.120779,0.429433 -0.102885,0.09394 -0.263923,0.138671 -0.474166,0.138671 z m 2.084536,-0.05368 c 0,0 0,-0.223663 0,-0.223663 -0.07605,0.08499 -0.169984,0.152091 -0.290762,0.201297 -0.120778,0.04921 -0.254976,0.07605 -0.393647,0.07605 -0.120778,0 -0.241556,-0.02684 -0.353387,-0.08052 -0.116305,-0.05368 -0.210244,-0.134198 -0.286289,-0.246029 -0.07605,-0.107359 -0.111832,-0.237083 -0.111832,-0.389174 0,-0.156564 0.03579,-0.290762 0.111832,-0.393647 0.07605,-0.102885 0.169984,-0.174457 0.281815,-0.223663 0.111832,-0.04921 0.23261,-0.07157 0.357861,-0.07157 0.147618,0 0.277342,0.02237 0.39812,0.0671 0.120778,0.04473 0.214717,0.111831 0.286289,0.196823 0,0 0,-0.299708 0,-0.299708 0,-0.111832 -0.04473,-0.196824 -0.129725,-0.263922 -0.08499,-0.0671 -0.201296,-0.09841 -0.344441,-0.09841 -0.237083,0 -0.447326,0.08499 -0.630729,0.254976 0,0 -0.214717,-0.380227 -0.214717,-0.380227 0.129725,-0.111832 0.272869,-0.196824 0.43838,-0.254976 0.161037,-0.05815 0.331021,-0.08499 0.505478,-0.08499 0.277342,0 0.505478,0.06262 0.679935,0.19235 0.174458,0.129725 0.263923,0.335494 0.263923,0.626256 0,0 0,1.395657 0,1.395657 z m 0,-0.518898 c 0,0 0,-0.268395 0,-0.268395 -0.04473,-0.05815 -0.107358,-0.107359 -0.187877,-0.138671 -0.08499,-0.03131 -0.174457,-0.04921 -0.268396,-0.04921 -0.116304,0 -0.214716,0.02684 -0.290762,0.08499 -0.07605,0.05815 -0.116304,0.138671 -0.116304,0.241556 0,0.09841 0.04026,0.174457 0.116304,0.232609 0.07605,0.05815 0.174458,0.08499 0.290762,0.08499 0.09394,0 0.183404,-0.01789 0.268396,-0.04921 0.08052,-0.03131 0.143144,-0.08052 0.187877,-0.138671 z"
         id="text112"
         style="font-size:4.47326px;line-height:1.85;font-family:'Proxima Nova Bold';-inkscape-font-specification:'Proxima Nova Bold, Normal';stroke-width:0.381;stroke-linecap:square"
         transform="scale(0.99281964,1.0072323)"
         aria-label="Data" /><path
         style="fill:#7ea2cd;fill-opacity:1;stroke:#000000;stroke-width:0.381;stroke-linecap:square;stroke-linejoin:round;stroke-dasharray:none;stroke-dashoffset:5.04;stroke-opacity:1"
         d="m 2.7305,77.55824 v 3.274052"
         id="path112" /><path
         style="fill:#7ea2cd;fill-opacity:1;stroke:#000000;stroke-width:0.381;stroke-linecap:square;stroke-linejoin:round;stroke-dasharray:none;stroke-dashoffset:5.04;stroke-opacity:1"
         d="m 21.0947,77.55824 v 3.274052"
         id="path113" /><path
         style="fill:#7ea2cd;fill-opacity:1;stroke:#000000;stroke-width:0.381;stroke-linecap:square;stroke-linejoin:round;stroke-dasharray:none;stroke-dashoffset:5.04;stroke-opacity:1"
         d="m 40.144699,77.55824 v 3.274052"
         id="path114" /></g></g></svg>
