<?xml version="1.0" encoding="UTF-8" standalone="no"?>
<!-- Created with Inkscape (http://www.inkscape.org/) -->

<svg
   width="3.3838973in"
   height="2.7596731in"
   viewBox="0 0 85.950992 70.095694"
   version="1.1"
   id="svg1"
   inkscape:version="1.3 (0e150ed6c4, 2023-07-21)"
   sodipodi:docname="poster.svg"
   xml:space="preserve"
   inkscape:export-filename="poster.png"
   inkscape:export-xdpi="160"
   inkscape:export-ydpi="160"
   xmlns:inkscape="http://www.inkscape.org/namespaces/inkscape"
   xmlns:sodipodi="http://sodipodi.sourceforge.net/DTD/sodipodi-0.dtd"
   xmlns="http://www.w3.org/2000/svg"
   xmlns:svg="http://www.w3.org/2000/svg"><sodipodi:namedview
     id="namedview1"
     pagecolor="#ffffff"
     bordercolor="#999999"
     borderopacity="1"
     inkscape:showpageshadow="2"
     inkscape:pageopacity="0"
     inkscape:pagecheckerboard="false"
     inkscape:deskcolor="#d1d1d1"
     inkscape:document-units="in"
     inkscape:zoom="0.70710678"
     inkscape:cx="494.26764"
     inkscape:cy="484.36815"
     inkscape:window-width="1920"
     inkscape:window-height="1009"
     inkscape:window-x="-8"
     inkscape:window-y="-8"
     inkscape:window-maximized="1"
     inkscape:current-layer="layer1"
     inkscape:export-bgcolor="#ffffff00" /><defs
     id="defs1" /><g
     inkscape:label="Layer 1"
     inkscape:groupmode="layer"
     id="layer1"
     transform="translate(-79.932814,-40.490514)"><g
       id="g83"
       transform="translate(-0.60726661,-0.342078)"
       inkscape:export-filename="..\..\Github\YesWeCan-Poster\assets\diagram.svg"
       inkscape:export-xdpi="160"
       inkscape:export-ydpi="160"><path
         id="rect80"
         style="fill:#b3c1d1;fill-opacity:0.25;stroke:#b3c1d1;stroke-width:0.508;stroke-linecap:square;stroke-dasharray:1.524, 1.524;stroke-dashoffset:2.7178"
         d="m 107.24031,41.086594 h 58.99675 v 69.587696 h -58.99675 z" /><path
         id="rect16"
         style="fill:#7ea2cd;stroke:#000000;stroke-width:0.381;stroke-linecap:square"
         d="m 85.81604,85.119598 h 17.13105 v 8.593805 H 85.81604 Z" /><path
         style="fill:none;fill-opacity:1;stroke:#000000;stroke-width:0.381;stroke-linecap:square;stroke-linejoin:miter;stroke-dasharray:0.762, 0.762;stroke-dashoffset:0.1143;stroke-opacity:1"
         d="M 130.59209,62.868546 V 54.411939"
         id="path53" /><path
         style="fill:none;fill-opacity:1;stroke:#000000;stroke-width:0.381;stroke-linecap:square;stroke-linejoin:miter;stroke-dasharray:0.762, 0.762;stroke-dashoffset:0.5715;stroke-opacity:1"
         d="m 132.03748,63.934553 v -4.422706 h 17.91675 v -4.56851"
         id="path54" /><path
         style="fill:none;fill-opacity:1;stroke:#000000;stroke-width:0.381;stroke-linecap:square;stroke-linejoin:miter;stroke-dasharray:0.762, 0.762;stroke-dashoffset:0.4191;stroke-opacity:1"
         d="m 155.81391,75.112829 v 5.151724"
         id="path56" /><path
         style="fill:none;fill-opacity:1;stroke:#000000;stroke-width:0.381;stroke-linecap:square;stroke-linejoin:miter;stroke-dasharray:none;stroke-opacity:1"
         d="M 125.92359,76.76527 V 87.068718"
         id="path57" /><path
         style="fill:none;fill-opacity:1;stroke:#000000;stroke-width:0.381;stroke-linecap:square;stroke-linejoin:miter;stroke-dasharray:none;stroke-opacity:1"
         d="m 135.01584,90.524502 h 8.44647 v 8.140033"
         id="path58" /><path
         id="rect58"
         style="fill:#7ea2cd;stroke:#000000;stroke-width:0.381;stroke-linecap:square"
         d="m 85.81604,50.114079 h 17.13105 v 8.593804 H 85.81604 Z" /><path
         style="fill:none;fill-opacity:1;stroke:#000000;stroke-width:0.381;stroke-linecap:square;stroke-linejoin:miter;stroke-dasharray:none;stroke-opacity:1"
         d="M 100.50054,90.556412 H 116.7603"
         id="path59" /><path
         style="fill:none;fill-opacity:1;stroke:#000000;stroke-width:0.381;stroke-linecap:square;stroke-linejoin:miter;stroke-dasharray:none;stroke-opacity:1"
         d="M 113.64384,71.632863 H 100.0263"
         id="path60" /><path
         style="fill:none;fill-opacity:1;stroke:#000000;stroke-width:0.381;stroke-linecap:square;stroke-linejoin:miter;stroke-dasharray:none;stroke-opacity:1"
         d="M 118.22248,66.412047 V 55.346122 h -16.73399"
         id="path61" /><g
         id="g62"
         transform="matrix(1.0490874,0,0,1.0643168,-4.6458267,1.9374821)"
         style="stroke-width:0.240377;stroke-dasharray:none"><path
           style="fill:none;fill-opacity:1;stroke:#000000;stroke-width:0.240377;stroke-linecap:square;stroke-linejoin:miter;stroke-dasharray:none;stroke-dashoffset:0;stroke-opacity:1"
           d="m 136.21633,65.299817 h 9.63515"
           id="path55" /><path
           style="fill:none;fill-opacity:1;stroke:#000000;stroke-width:0.240377;stroke-linecap:square;stroke-linejoin:miter;stroke-dasharray:none;stroke-dashoffset:0;stroke-opacity:1"
           d="m 136.21633,65.667534 h 9.63515"
           id="path62" /></g><path
         id="rect9-4"
         style="fill:#7ea2cd;stroke:#000000;stroke-width:0.381;stroke-linecap:square"
         d="m 115.38139,85.267914 h 21.08437 v 10.576989 h -21.08437 z" /><path
         id="rect9-4-1"
         style="fill:#7ea2cd;stroke:#000000;stroke-width:0.381;stroke-linecap:square"
         d="M 80.730583,66.344368 H 101.81495 V 76.921357 H 80.730583 Z" /><path
         id="rect9-6"
         style="fill:#74d795;stroke:#000000;stroke-width:0.381;stroke-linecap:square"
         d="m 112.74586,65.022247 h 26.35546 v 13.221239 h -26.35546 z" /><path
         id="rect10"
         style="fill:#ffd966;stroke:#000000;stroke-width:0.381;stroke-linecap:square"
         d="m 147.24835,67.335968 h 17.13105 v 8.593804 h -17.13105 z" /><path
         id="rect10-3"
         style="fill:#7ea2cd;stroke:#000000;stroke-width:0.381;stroke-linecap:square"
         d="m 84.70575,86.245995 h 17.13105 v 8.593804 H 84.70575 Z" /><path
         id="rect10-7"
         style="fill:none;stroke:#000000;stroke-width:0.381;stroke-linecap:square"
         d="m 134.67847,98.771149 h 17.13105 v 8.593801 h -17.13105 z" /><path
         id="rect12"
         style="fill:#ffd966;stroke:#000000;stroke-width:0.381;stroke-linecap:square"
         d="m 121.69905,49.93869 h 17.86203 v 5.245894 h -17.86203 z" /><path
         id="rect12-3"
         style="fill:#ffd966;stroke:#000000;stroke-width:0.381;stroke-linecap:square"
         d="m 141.09258,49.938698 h 17.86398 v 5.245878 h -17.86398 z" /><path
         id="rect13"
         style="fill:#ffd966;stroke:#000000;stroke-width:0.381;stroke-linecap:square"
         d="m 125.97108,63.233047 h 10.56371 v 3.508091 h -10.56371 z" /><path
         id="rect14"
         style="fill:#ffd966;stroke:#000000;stroke-width:0.381;stroke-linecap:square"
         d="m 147.8911,78.869072 h 15.84557 v 5.262136 H 147.8911 Z" /><path
         id="rect59"
         style="fill:#7ea2cd;stroke:#000000;stroke-width:0.381;stroke-linecap:square"
         d="m 84.70575,51.240482 h 17.13105 v 8.593805 H 84.70575 Z" /><path
         d="m 89.676118,72.583496 c 0,0 0,-2.147165 0,-2.147165 0,0 -0.840973,2.147165 -0.840973,2.147165 0,0 -0.277342,0 -0.277342,0 0,0 -0.840973,-2.147165 -0.840973,-2.147165 0,0 0,2.147165 0,2.147165 0,0 -0.635203,0 -0.635203,0 0,0 0,-2.983664 0,-2.983664 0,0 0.890179,0 0.890179,0 0,0 0.724668,1.860876 0.724668,1.860876 0,0 0.724668,-1.860876 0.724668,-1.860876 0,0 0.894652,0 0.894652,0 0,0 0,2.983664 0,2.983664 z m 1.230145,0 c 0,0 0,-2.983664 0,-2.983664 0,0 1.176467,0 1.176467,0 0.308655,0 0.585997,0.06262 0.82308,0.183403 0.237083,0.125252 0.42496,0.299709 0.559157,0.527845 0.134198,0.228136 0.201297,0.487585 0.201297,0.782821 0,0.295235 -0.0671,0.554684 -0.201297,0.778347 -0.134197,0.228136 -0.322074,0.402593 -0.559157,0.523371 -0.237083,0.125251 -0.514425,0.187877 -0.82308,0.187877 z m 0.635203,-0.559157 c 0,0 0.541264,0 0.541264,0 0.19235,0 0.357861,-0.04026 0.501005,-0.125252 0.138671,-0.08499 0.246029,-0.196823 0.322075,-0.339967 0.07604,-0.138671 0.111831,-0.295236 0.111831,-0.465219 0,-0.272869 -0.08052,-0.501006 -0.246029,-0.675463 -0.165511,-0.174457 -0.393647,-0.259449 -0.688882,-0.259449 0,0 -0.541264,0 -0.541264,0 z m 2.576599,-0.63073 c 0,0 0,-1.793777 0,-1.793777 0,0 0.64415,0 0.64415,0 0,0 0,1.771411 0,1.771411 0,0.214716 0.05815,0.3847 0.17893,0.509951 0.116305,0.129725 0.286289,0.19235 0.514425,0.19235 0.21919,0 0.389174,-0.06262 0.509952,-0.19235 0.116304,-0.125251 0.174457,-0.295235 0.174457,-0.509951 0,0 0,-1.771411 0,-1.771411 0,0 0.644149,0 0.644149,0 0,0 0,1.789304 0,1.789304 0,0.3847 -0.111831,0.688882 -0.335494,0.912545 -0.223663,0.223663 -0.554684,0.335494 -0.993064,0.335494 -0.442853,0 -0.773874,-0.111831 -0.997537,-0.335494 -0.228136,-0.223663 -0.339968,-0.527845 -0.339968,-0.908072 z"
         id="text62-1"
         style="font-size:4.47326px;line-height:1.85;font-family:'Proxima Nova Bold';-inkscape-font-specification:'Proxima Nova Bold, Normal';stroke-width:0.381;stroke-linecap:square"
         transform="scale(0.99281964,1.0072323)"
         aria-label="MDU" /><path
         d="m 87.888308,91.178835 c -0.242302,0 -0.462237,-0.05592 -0.659807,-0.16402 -0.197569,-0.108104 -0.354133,-0.257213 -0.469692,-0.454782 -0.11556,-0.197569 -0.175203,-0.417505 -0.175203,-0.667262 0,-0.249757 0.05964,-0.469693 0.175203,-0.667262 0.115559,-0.197569 0.272123,-0.350405 0.469692,-0.458509 0.19757,-0.108104 0.417505,-0.160292 0.659807,-0.160292 0.26094,0 0.477148,0.05591 0.648623,0.167747 0.171475,0.115559 0.309401,0.26094 0.410049,0.439871 0,0 -0.454781,0.223663 -0.454781,0.223663 -0.05592,-0.104376 -0.134198,-0.190113 -0.242302,-0.26094 -0.108104,-0.0671 -0.231119,-0.100649 -0.361589,-0.100649 -0.141653,0 -0.272124,0.03355 -0.387683,0.104377 -0.115559,0.07083 -0.208752,0.171475 -0.272124,0.294489 -0.0671,0.123015 -0.100648,0.264669 -0.100648,0.417505 0,0.152837 0.03355,0.29449 0.100648,0.417505 0.06337,0.123015 0.156565,0.219935 0.272124,0.290762 0.115559,0.07083 0.24603,0.108104 0.387683,0.108104 0.134198,0 0.253485,-0.03355 0.361589,-0.100649 0.108104,-0.0671 0.186386,-0.152836 0.242302,-0.26094 0,0 0.454781,0.219935 0.454781,0.219935 -0.234846,0.406322 -0.588979,0.611347 -1.058672,0.611347 z m 2.445385,-0.04473 c 0,0 0,-0.186386 0,-0.186386 -0.06337,0.07083 -0.141653,0.126742 -0.242301,0.167747 -0.100649,0.041 -0.21248,0.06337 -0.32804,0.06337 -0.100648,0 -0.201297,-0.02237 -0.29449,-0.0671 -0.09692,-0.04473 -0.175203,-0.111832 -0.238574,-0.205025 -0.06337,-0.08947 -0.09319,-0.197569 -0.09319,-0.324312 0,-0.13047 0.02982,-0.242301 0.09319,-0.328039 0.06337,-0.08574 0.141654,-0.145381 0.234847,-0.186386 0.09319,-0.04101 0.193841,-0.05964 0.298217,-0.05964 0.123015,0 0.231119,0.01864 0.331767,0.05592 0.100649,0.03728 0.178931,0.09319 0.238574,0.16402 0,0 0,-0.249757 0,-0.249757 0,-0.09319 -0.03728,-0.16402 -0.108104,-0.219936 -0.07083,-0.05592 -0.167747,-0.08201 -0.287034,-0.08201 -0.197569,0 -0.372772,0.07083 -0.525608,0.21248 0,0 -0.178931,-0.316856 -0.178931,-0.316856 0.108104,-0.09319 0.227391,-0.16402 0.365317,-0.21248 0.134197,-0.04846 0.275851,-0.07083 0.421232,-0.07083 0.231119,0 0.421232,0.05219 0.566613,0.160292 0.145381,0.108104 0.219936,0.279579 0.219936,0.521881 0,0 0,1.163049 0,1.163049 z m 0,-0.432416 c 0,0 0,-0.223663 0,-0.223663 -0.03728,-0.04846 -0.08946,-0.08946 -0.156564,-0.115559 -0.07083,-0.02609 -0.145381,-0.041 -0.223663,-0.041 -0.09692,0 -0.178931,0.02237 -0.242302,0.07083 -0.06337,0.04846 -0.09692,0.115559 -0.09692,0.201296 0,0.08201 0.03355,0.145382 0.09692,0.193842 0.06337,0.04846 0.145381,0.07083 0.242302,0.07083 0.07828,0 0.152836,-0.01491 0.223663,-0.041 0.0671,-0.02609 0.119287,-0.0671 0.156564,-0.11556 z m 3.176015,0.432416 c 0,0 0,-1.136955 0,-1.136955 0,-0.08947 -0.02237,-0.160292 -0.06337,-0.21248 -0.04473,-0.04846 -0.111832,-0.07455 -0.205025,-0.07455 -0.07828,0 -0.149109,0.02237 -0.21248,0.06337 -0.0671,0.041 -0.119287,0.08947 -0.160292,0.145381 0,0 0,1.215237 0,1.215237 0,0 -0.477148,0 -0.477148,0 0,0 0,-1.136955 0,-1.136955 0,-0.08947 -0.02237,-0.160292 -0.06337,-0.21248 -0.04473,-0.04846 -0.111832,-0.07455 -0.205025,-0.07455 -0.07455,0 -0.145381,0.02237 -0.21248,0.06337 -0.0671,0.041 -0.119287,0.09319 -0.160292,0.149109 0,0 0,1.211509 0,1.211509 0,0 -0.47342,0 -0.47342,0 0,0 0,-1.800489 0,-1.800489 0,0 0.47342,0 0.47342,0 0,0 0,0.234846 0,0.234846 0.04473,-0.06337 0.123015,-0.126742 0.234847,-0.190113 0.111831,-0.05964 0.231118,-0.08947 0.354133,-0.08947 0.13047,0 0.234846,0.02982 0.320584,0.08574 0.08574,0.05592 0.145381,0.137926 0.17893,0.242302 0.05592,-0.08946 0.141654,-0.167748 0.257213,-0.231119 0.111832,-0.06337 0.231119,-0.09692 0.361589,-0.09692 0.167747,0 0.298218,0.04473 0.391411,0.134198 0.09319,0.09319 0.137925,0.227391 0.137925,0.41005 0,0 0,1.300974 0,1.300974 z m 0.827551,-0.902108 c 0,-0.175203 0.041,-0.331767 0.119287,-0.477149 0.07828,-0.141653 0.190114,-0.253485 0.331767,-0.339222 0.141654,-0.08574 0.301946,-0.126743 0.480876,-0.126743 0.175203,0 0.331767,0.041 0.469693,0.123015 0.137926,0.08574 0.242302,0.201297 0.320584,0.350406 0.07455,0.152836 0.111832,0.324312 0.111832,0.518153 0,0 0,0.104376 0,0.104376 0,0 -1.338252,0 -1.338252,0 0.01491,0.119287 0.0671,0.219936 0.160292,0.298218 0.09319,0.07828 0.21248,0.119287 0.357861,0.119287 0.08574,0 0.175203,-0.01491 0.264668,-0.04846 0.08574,-0.03355 0.160292,-0.07455 0.216208,-0.13047 0,0 0.208752,0.305673 0.208752,0.305673 -0.08574,0.07828 -0.197569,0.141654 -0.328039,0.182659 -0.13047,0.04473 -0.268396,0.0671 -0.413777,0.0671 -0.182658,0 -0.346678,-0.04101 -0.492059,-0.119288 -0.145381,-0.07828 -0.26094,-0.186386 -0.34295,-0.331767 -0.08574,-0.141653 -0.126743,-0.305673 -0.126743,-0.495786 z m 0.93193,-0.566614 c -0.134198,0 -0.238574,0.041 -0.313128,0.119287 -0.07456,0.08201 -0.119287,0.175203 -0.13047,0.279579 0,0 0.887197,0 0.887197,0 -0.0075,-0.100648 -0.04846,-0.193841 -0.119287,-0.275851 -0.07455,-0.08201 -0.182658,-0.123015 -0.324312,-0.123015 z m 1.245057,1.468722 c 0,0 0,-1.800489 0,-1.800489 0,0 0.473421,0 0.473421,0 0,0 0,0.24603 0,0.24603 0.06337,-0.08201 0.149108,-0.149109 0.253485,-0.205025 0.104376,-0.05592 0.21248,-0.08201 0.320584,-0.08201 0,0 0,0.462237 0,0.462237 -0.04473,-0.01118 -0.08947,-0.01491 -0.130471,-0.01491 -0.07828,0 -0.164019,0.01864 -0.253485,0.05964 -0.08947,0.041 -0.152836,0.08947 -0.190113,0.145381 0,0 0,1.189143 0,1.189143 z m 2.42302,0 c 0,0 0,-0.186386 0,-0.186386 -0.06337,0.07083 -0.141653,0.126742 -0.242302,0.167747 -0.100648,0.041 -0.21248,0.06337 -0.328039,0.06337 -0.100649,0 -0.201297,-0.02237 -0.29449,-0.0671 -0.09692,-0.04473 -0.175203,-0.111832 -0.238574,-0.205025 -0.06337,-0.08947 -0.09319,-0.197569 -0.09319,-0.324312 0,-0.13047 0.02982,-0.242301 0.09319,-0.328039 0.06337,-0.08574 0.141653,-0.145381 0.234846,-0.186386 0.09319,-0.04101 0.193842,-0.05964 0.298218,-0.05964 0.123015,0 0.231118,0.01864 0.331767,0.05592 0.100648,0.03728 0.17893,0.09319 0.238574,0.16402 0,0 0,-0.249757 0,-0.249757 0,-0.09319 -0.03728,-0.16402 -0.108104,-0.219936 -0.07083,-0.05592 -0.167747,-0.08201 -0.287034,-0.08201 -0.19757,0 -0.372772,0.07083 -0.525609,0.21248 0,0 -0.17893,-0.316856 -0.17893,-0.316856 0.108103,-0.09319 0.22739,-0.16402 0.365316,-0.21248 0.134198,-0.04846 0.275851,-0.07083 0.421232,-0.07083 0.231119,0 0.421233,0.05219 0.566614,0.160292 0.145381,0.108104 0.219935,0.279579 0.219935,0.521881 0,0 0,1.163049 0,1.163049 z m 0,-0.432416 c 0,0 0,-0.223663 0,-0.223663 -0.03728,-0.04846 -0.08946,-0.08946 -0.156564,-0.115559 -0.07083,-0.02609 -0.145381,-0.041 -0.223663,-0.041 -0.09692,0 -0.178931,0.02237 -0.242302,0.07083 -0.06337,0.04846 -0.09692,0.115559 -0.09692,0.201296 0,0.08201 0.03355,0.145382 0.09692,0.193842 0.06337,0.04846 0.145381,0.07083 0.242302,0.07083 0.07828,0 0.152836,-0.01491 0.223663,-0.041 0.0671,-0.02609 0.119287,-0.0671 0.156564,-0.11556 z m 0.786547,0.19757 c 0,0 0.205024,-0.331768 0.205024,-0.331768 0.07083,0.06337 0.164023,0.123015 0.283303,0.171476 0.11929,0.04846 0.23112,0.07455 0.33923,0.07455 0.10065,0 0.1752,-0.01491 0.22739,-0.04846 0.0485,-0.03355 0.0745,-0.07828 0.0745,-0.134198 0,-0.05592 -0.0298,-0.100649 -0.0895,-0.130471 -0.0597,-0.02982 -0.14911,-0.05591 -0.27213,-0.08201 -0.14538,-0.02609 -0.26466,-0.05592 -0.35786,-0.08947 -0.0932,-0.03355 -0.175201,-0.08574 -0.246027,-0.164019 -0.07083,-0.07456 -0.104377,-0.178931 -0.104377,-0.309401 0,-0.100649 0.02982,-0.197569 0.08947,-0.283307 0.05591,-0.08574 0.141644,-0.156564 0.253484,-0.208752 0.11183,-0.04846 0.2423,-0.07455 0.39513,-0.07455 0.27958,0 0.52189,0.08201 0.72691,0.24603 0,0 -0.19011,0.324312 -0.19011,0.324312 -0.0559,-0.05964 -0.1342,-0.108104 -0.22739,-0.149109 -0.0969,-0.04101 -0.19757,-0.05964 -0.30568,-0.05964 -0.0857,0 -0.15656,0.01491 -0.20502,0.04473 -0.0522,0.02982 -0.0783,0.07083 -0.0783,0.123015 0,0.05219 0.0298,0.08946 0.0857,0.115559 0.0559,0.02609 0.14166,0.05219 0.25722,0.07828 0.14538,0.02609 0.26466,0.05964 0.36158,0.09319 0.0969,0.03355 0.18266,0.09319 0.25349,0.171475 0.0708,0.07828 0.1081,0.186386 0.1081,0.324312 0,0.108104 -0.0298,0.208752 -0.0895,0.29449 -0.0634,0.08947 -0.15284,0.160292 -0.2684,0.208752 -0.11928,0.04846 -0.26094,0.07456 -0.42123,0.07456 -0.15656,0 -0.30567,-0.0261 -0.44733,-0.07456 -0.145373,-0.04846 -0.26466,-0.119287 -0.357853,-0.205024 z"
         id="text64"
         style="font-size:3.72772px;line-height:1.85;font-family:'Proxima Nova Bold';-inkscape-font-specification:'Proxima Nova Bold, Normal';stroke-width:0.381;stroke-linecap:square"
         transform="scale(0.99281964,1.0072323)"
         aria-label="Cameras" /><path
         d="m 88.627144,56.628204 c 0,0 0,-2.983664 0,-2.983664 0,0 2.111379,0 2.111379,0 0,0 0,0.545738 0,0.545738 0,0 -1.476176,0 -1.476176,0 0,0 0,0.648622 0,0.648622 0,0 1.444863,0 1.444863,0 0,0 0,0.545738 0,0.545738 0,0 -1.444863,0 -1.444863,0 0,0 0,0.693355 0,0.693355 0,0 1.476176,0 1.476176,0 0,0 0,0.550211 0,0.550211 z m 4.030408,0.05368 c -0.290762,0 -0.554684,-0.0671 -0.791767,-0.196823 -0.237082,-0.129725 -0.424959,-0.308655 -0.56363,-0.545738 -0.138671,-0.237082 -0.210244,-0.501005 -0.210244,-0.800713 0,-0.299709 0.07157,-0.563631 0.210244,-0.800714 0.138671,-0.237083 0.326548,-0.420486 0.56363,-0.550211 0.237083,-0.129724 0.501005,-0.19235 0.791767,-0.19235 0.313129,0 0.572578,0.0671 0.778348,0.201297 0.20577,0.138671 0.37128,0.313128 0.492058,0.527844 0,0 -0.545738,0.268396 -0.545738,0.268396 -0.0671,-0.125251 -0.161037,-0.228136 -0.290761,-0.313128 -0.129725,-0.08052 -0.277343,-0.120778 -0.433907,-0.120778 -0.169984,0 -0.326548,0.04026 -0.465219,0.125251 -0.138671,0.08499 -0.250502,0.20577 -0.326548,0.353388 -0.08052,0.147617 -0.120778,0.317601 -0.120778,0.501005 0,0.183403 0.04026,0.353387 0.120778,0.501005 0.07605,0.147617 0.187877,0.263922 0.326548,0.348914 0.138671,0.08499 0.295235,0.129725 0.465219,0.129725 0.161038,0 0.304182,-0.04026 0.433907,-0.120778 0.129724,-0.08052 0.223663,-0.183404 0.290761,-0.313128 0,0 0.545738,0.263922 0.545738,0.263922 -0.281815,0.487585 -0.706775,0.733614 -1.270406,0.733614 z m 1.650635,-1.243566 c 0,0 0,-1.793777 0,-1.793777 0,0 0.644149,0 0.644149,0 0,0 0,1.771411 0,1.771411 0,0.214716 0.05815,0.3847 0.17893,0.509952 0.116305,0.129724 0.286289,0.19235 0.514425,0.19235 0.21919,0 0.389174,-0.06263 0.509952,-0.19235 0.116305,-0.125252 0.174457,-0.295236 0.174457,-0.509952 0,0 0,-1.771411 0,-1.771411 0,0 0.644149,0 0.644149,0 0,0 0,1.789304 0,1.789304 0,0.3847 -0.111831,0.688882 -0.335494,0.912545 -0.223663,0.223663 -0.554684,0.335494 -0.993064,0.335494 -0.442852,0 -0.773874,-0.111831 -0.997537,-0.335494 -0.228136,-0.223663 -0.339967,-0.527845 -0.339967,-0.908072 z m 3.055239,0.908072 c 0,0 0.246029,-0.39812 0.246029,-0.39812 0.08499,0.07604 0.196824,0.147617 0.339968,0.20577 0.143144,0.05815 0.277342,0.08947 0.407067,0.08947 0.120778,0 0.210243,-0.01789 0.272868,-0.05815 0.05815,-0.04026 0.08947,-0.09394 0.08947,-0.161038 0,-0.0671 -0.03579,-0.120778 -0.107359,-0.156564 -0.07157,-0.03579 -0.17893,-0.0671 -0.326548,-0.09841 -0.174457,-0.03131 -0.317601,-0.0671 -0.429433,-0.107358 -0.111831,-0.04026 -0.210243,-0.102885 -0.295235,-0.196823 -0.08499,-0.08946 -0.125251,-0.214717 -0.125251,-0.371281 0,-0.120778 0.03579,-0.237083 0.107358,-0.339968 0.0671,-0.102885 0.169984,-0.187876 0.304182,-0.250502 0.134198,-0.05815 0.290762,-0.08946 0.474165,-0.08946 0.335495,0 0.626257,0.09841 0.872286,0.295235 0,0 -0.228136,0.389173 -0.228136,0.389173 -0.0671,-0.07157 -0.161037,-0.129724 -0.272869,-0.17893 -0.116305,-0.04921 -0.237083,-0.07157 -0.366807,-0.07157 -0.102885,0 -0.187877,0.01789 -0.24603,0.05368 -0.06263,0.03579 -0.09394,0.08499 -0.09394,0.147618 0,0.06263 0.03579,0.107358 0.102885,0.138671 0.0671,0.03131 0.169984,0.06262 0.308655,0.09394 0.174457,0.03131 0.317601,0.07157 0.433906,0.111832 0.116305,0.04026 0.21919,0.111831 0.304182,0.20577 0.08499,0.09394 0.129724,0.223663 0.129724,0.389173 0,0.129725 -0.03579,0.250503 -0.107358,0.353388 -0.07604,0.107358 -0.183404,0.19235 -0.322075,0.250502 -0.143144,0.05815 -0.313128,0.08946 -0.505478,0.08946 -0.187877,0 -0.366807,-0.03131 -0.536791,-0.08946 -0.174457,-0.05815 -0.317602,-0.143144 -0.429433,-0.246029 z"
         id="text65"
         style="font-size:4.47326px;line-height:1.85;font-family:'Proxima Nova Bold';-inkscape-font-specification:'Proxima Nova Bold, Normal';stroke-width:0.381;stroke-linecap:square"
         transform="scale(0.99281964,1.0072323)"
         aria-label="ECUs" /><path
         style="font-size:2.98217px;line-height:1.85;font-family:'Proxima Nova Bold';-inkscape-font-specification:'Proxima Nova Bold, Normal';stroke-width:0.381;stroke-linecap:square"
         d="m 124.86794,53.20562 c 0,0 0,-1.616336 0,-1.616336 0,0 -0.58153,0 -0.58153,0 0,0 0,-0.372772 0,-0.372772 0,0 1.58652,0 1.58652,0 0,0 0,0.372772 0,0.372772 0,0 -0.57854,0 -0.57854,0 0,0 0,1.616336 0,1.616336 z m 2.24259,0 c 0,0 0,-0.876758 0,-0.876758 0,-0.09543 -0.0239,-0.16402 -0.0686,-0.202788 -0.0447,-0.03877 -0.11332,-0.05964 -0.1998,-0.05964 -0.0686,0 -0.13122,0.01491 -0.18788,0.04771 -0.0567,0.0328 -0.10438,0.07455 -0.14016,0.122269 0,0 0,0.969205 0,0.969205 0,0 -0.37874,0 -0.37874,0 0,0 0,-1.989108 0,-1.989108 0,0 0.37874,0 0.37874,0 0,0 0,0.736596 0,0.736596 0.0507,-0.06262 0.12227,-0.113322 0.21173,-0.158055 0.0865,-0.04473 0.1849,-0.06561 0.29524,-0.06561 0.15507,0 0.27137,0.03877 0.35189,0.119286 0.0775,0.08052 0.11631,0.190859 0.11631,0.334003 0,0 0,1.022885 0,1.022885 z m 0.66204,-0.721685 c 0,-0.140162 0.0328,-0.265413 0.0954,-0.381718 0.0626,-0.113323 0.15209,-0.202788 0.26542,-0.271378 0.11332,-0.06859 0.24155,-0.101393 0.3847,-0.101393 0.14016,0 0.26541,0.0328 0.37575,0.09841 0.11034,0.06859 0.19384,0.161037 0.25647,0.280324 0.0596,0.122269 0.0895,0.259449 0.0895,0.414522 0,0 0,0.0835 0,0.0835 0,0 -1.0706,0 -1.0706,0 0.0119,0.09543 0.0537,0.175948 0.12824,0.238573 0.0746,0.06263 0.16998,0.09543 0.28628,0.09543 0.0686,0 0.14017,-0.01193 0.21174,-0.03877 0.0686,-0.02684 0.12823,-0.05964 0.17296,-0.104375 0,0 0.16701,0.244537 0.16701,0.244537 -0.0686,0.06263 -0.15806,0.113323 -0.26244,0.146127 -0.10437,0.03579 -0.21471,0.05368 -0.33102,0.05368 -0.14612,0 -0.27734,-0.0328 -0.39364,-0.09543 -0.11631,-0.06262 -0.20875,-0.149108 -0.27436,-0.265413 -0.0686,-0.113322 -0.1014,-0.244538 -0.1014,-0.396628 z m 0.74555,-0.45329 c -0.10736,0 -0.19086,0.0328 -0.25051,0.09543 -0.0596,0.06561 -0.0954,0.140162 -0.10437,0.223663 0,0 0.70975,0 0.70975,0 -0.006,-0.08052 -0.0388,-0.155073 -0.0954,-0.220681 -0.0597,-0.06561 -0.14613,-0.09841 -0.25945,-0.09841 z m 0.99604,1.174975 c 0,0 0,-1.440388 0,-1.440388 0,0 0.37874,0 0.37874,0 0,0 0,0.196823 0,0.196823 0.0507,-0.06561 0.11928,-0.119287 0.20278,-0.164019 0.0835,-0.04473 0.16999,-0.06561 0.25647,-0.06561 0,0 0,0.369789 0,0.369789 -0.0358,-0.0089 -0.0716,-0.01193 -0.10438,-0.01193 -0.0626,0 -0.13121,0.01491 -0.20278,0.04771 -0.0716,0.0328 -0.12227,0.07157 -0.15209,0.116305 0,0 0,0.951312 0,0.951312 z m 2.8599,0 c 0,0 0,-0.909562 0,-0.909562 0,-0.07157 -0.0179,-0.128233 -0.0507,-0.169984 -0.0358,-0.03877 -0.0895,-0.05964 -0.16402,-0.05964 -0.0626,0 -0.11929,0.01789 -0.16999,0.0507 -0.0537,0.0328 -0.0954,0.07157 -0.12823,0.116304 0,0 0,0.972188 0,0.972188 0,0 -0.38172,0 -0.38172,0 0,0 0,-0.909562 0,-0.909562 0,-0.07157 -0.0179,-0.128233 -0.0507,-0.169984 -0.0358,-0.03877 -0.0895,-0.05964 -0.16401,-0.05964 -0.0597,0 -0.11631,0.01789 -0.16999,0.0507 -0.0537,0.0328 -0.0954,0.07455 -0.12823,0.119287 0,0 0,0.969205 0,0.969205 0,0 -0.37874,0 -0.37874,0 0,0 0,-1.440388 0,-1.440388 0,0 0.37874,0 0.37874,0 0,0 0,0.187876 0,0.187876 0.0358,-0.0507 0.0984,-0.101393 0.18788,-0.15209 0.0895,-0.04771 0.18489,-0.07157 0.2833,-0.07157 0.10438,0 0.18788,0.02386 0.25647,0.06859 0.0686,0.04473 0.1163,0.11034 0.14314,0.193841 0.0447,-0.07157 0.11332,-0.134198 0.20577,-0.184895 0.0895,-0.0507 0.1849,-0.07754 0.28927,-0.07754 0.1342,0 0.23858,0.03579 0.31313,0.107358 0.0745,0.07455 0.11034,0.181912 0.11034,0.328038 0,0 0,1.040778 0,1.040778 z m 0.94237,-1.625283 c -0.0626,0 -0.11333,-0.02386 -0.15806,-0.06859 -0.0447,-0.04473 -0.0686,-0.09543 -0.0686,-0.158055 0,-0.06263 0.0239,-0.116304 0.0686,-0.161037 0.0447,-0.04473 0.0954,-0.06561 0.15806,-0.06561 0.0626,0 0.1163,0.02088 0.16103,0.06561 0.0447,0.04473 0.0656,0.09841 0.0656,0.161037 0,0.06263 -0.0209,0.113323 -0.0656,0.158055 -0.0447,0.04473 -0.0984,0.06859 -0.16103,0.06859 z m -0.18788,1.625283 c 0,0 0,-1.440388 0,-1.440388 0,0 0.37874,0 0.37874,0 0,0 0,1.440388 0,1.440388 z m 0.62924,-0.187877 c 0,0 0.16402,-0.265413 0.16402,-0.265413 0.0567,0.0507 0.13121,0.09841 0.22664,0.13718 0.0954,0.03877 0.1849,0.05964 0.27138,0.05964 0.0805,0 0.14016,-0.01193 0.18191,-0.03877 0.0388,-0.02684 0.0597,-0.06263 0.0597,-0.107358 0,-0.04473 -0.0239,-0.08052 -0.0716,-0.104376 -0.0477,-0.02386 -0.11928,-0.04473 -0.21769,-0.06561 -0.11631,-0.02088 -0.21174,-0.04473 -0.28629,-0.07157 -0.0746,-0.02684 -0.14016,-0.06859 -0.19683,-0.131215 -0.0567,-0.05964 -0.0835,-0.143145 -0.0835,-0.247521 0,-0.08052 0.0239,-0.158055 0.0716,-0.226644 0.0447,-0.06859 0.11332,-0.125252 0.20278,-0.167002 0.0895,-0.03877 0.19384,-0.05964 0.31611,-0.05964 0.22367,0 0.41751,0.06561 0.58153,0.196823 0,0 -0.15209,0.259449 -0.15209,0.259449 -0.0447,-0.04772 -0.10736,-0.08648 -0.18192,-0.119287 -0.0775,-0.0328 -0.15805,-0.04772 -0.24454,-0.04772 -0.0686,0 -0.12525,0.01193 -0.16401,0.03579 -0.0418,0.02386 -0.0626,0.05666 -0.0626,0.09841 0,0.04175 0.0239,0.07157 0.0686,0.09245 0.0447,0.02087 0.11332,0.04175 0.20577,0.06263 0.1163,0.02088 0.21173,0.04771 0.28927,0.07455 0.0775,0.02684 0.14613,0.07455 0.20279,0.13718 0.0567,0.06263 0.0865,0.149108 0.0865,0.259448 0,0.08648 -0.0239,0.167002 -0.0716,0.235592 -0.0507,0.07157 -0.12227,0.128233 -0.21472,0.167001 -0.0954,0.03877 -0.20875,0.05964 -0.33698,0.05964 -0.12525,0 -0.24454,-0.02087 -0.35786,-0.05964 -0.11631,-0.03877 -0.21174,-0.09543 -0.28629,-0.164019 z m 2.03085,0.223663 c -0.13419,0 -0.23559,-0.0328 -0.30418,-0.101394 -0.0686,-0.06859 -0.10437,-0.164019 -0.10437,-0.292253 0,0 0,-0.751506 0,-0.751506 0,0 -0.23858,0 -0.23858,0 0,0 0,-0.331021 0,-0.331021 0,0 0.23858,0 0.23858,0 0,0 0,-0.393647 0,-0.393647 0,0 0.38171,0 0.38171,0 0,0 0,0.393647 0,0.393647 0,0 0.29226,0 0.29226,0 0,0 0,0.331021 0,0.331021 0,0 -0.29226,0 -0.29226,0 0,0 0,0.650113 0,0.650113 0,0.04473 0.0119,0.0835 0.0358,0.113322 0.0239,0.02982 0.0567,0.04473 0.0954,0.04473 0.0268,0 0.0537,-0.003 0.0775,-0.01193 0.0238,-0.0089 0.0418,-0.01789 0.0537,-0.02982 0,0 0.0805,0.286289 0.0805,0.286289 -0.0686,0.06263 -0.17594,0.09245 -0.31611,0.09245 z m 1.19287,0 c -0.15209,0 -0.28629,-0.0328 -0.40259,-0.101394 -0.11631,-0.06859 -0.20279,-0.158055 -0.26542,-0.27436 -0.0626,-0.116304 -0.0924,-0.241555 -0.0924,-0.381717 0,-0.13718 0.0298,-0.262431 0.0924,-0.378736 0.0626,-0.116305 0.14911,-0.20577 0.26542,-0.27436 0.1163,-0.06859 0.2505,-0.101393 0.40259,-0.101393 0.15507,0 0.28927,0.0328 0.40557,0.101393 0.11631,0.06859 0.20279,0.158055 0.26542,0.27436 0.0626,0.116305 0.0924,0.241556 0.0924,0.378736 0,0.140162 -0.0298,0.265413 -0.0924,0.381717 -0.0626,0.116305 -0.14911,0.20577 -0.26542,0.27436 -0.1163,0.06859 -0.2505,0.101394 -0.40557,0.101394 z m 0,-0.336985 c 0.11332,0 0.20279,-0.04175 0.27138,-0.122269 0.0656,-0.08052 0.0984,-0.178931 0.0984,-0.298217 0,-0.116305 -0.0328,-0.217699 -0.0984,-0.298217 -0.0686,-0.08052 -0.15806,-0.119287 -0.27138,-0.119287 -0.11332,0 -0.20279,0.03877 -0.2684,0.119287 -0.0656,0.08052 -0.0984,0.181912 -0.0984,0.298217 0,0.119286 0.0328,0.217698 0.0984,0.298217 0.0656,0.08052 0.15508,0.122269 0.2684,0.122269 z m 1.04376,0.301199 c 0,0 0,-1.440388 0,-1.440388 0,0 0.37873,0 0.37873,0 0,0 0,0.196823 0,0.196823 0.0507,-0.06561 0.11929,-0.119287 0.20279,-0.164019 0.0835,-0.04473 0.16998,-0.06561 0.25647,-0.06561 0,0 0,0.369789 0,0.369789 -0.0358,-0.0089 -0.0716,-0.01193 -0.10438,-0.01193 -0.0626,0 -0.13121,0.01491 -0.20279,0.04771 -0.0716,0.0328 -0.12227,0.07157 -0.15209,0.116305 0,0 0,0.951312 0,0.951312 z"
         id="text66"
         transform="scale(0.99281964,1.0072323)"
         aria-label="Thermistor" /><path
         style="font-size:2.98217px;line-height:1.85;font-family:'Proxima Nova Bold';-inkscape-font-specification:'Proxima Nova Bold, Normal';stroke-width:0.381;stroke-linecap:square"
         d="m 144.04037,53.160889 c 0,0 0,-1.989108 0,-1.989108 0,0 1.40759,0 1.40759,0 0,0 0,0.363825 0,0.363825 0,0 -0.98412,0 -0.98412,0 0,0 0,0.432415 0,0.432415 0,0 0.96324,0 0.96324,0 0,0 0,0.363824 0,0.363824 0,0 -0.96324,0 -0.96324,0 0,0 0,0.829044 0,0.829044 z m 1.69387,0 c 0,0 0,-1.989108 0,-1.989108 0,0 0.37874,0 0.37874,0 0,0 0,1.989108 0,1.989108 z m 1.4225,0.03579 c -0.15209,0 -0.28629,-0.0328 -0.40259,-0.101394 -0.11631,-0.06859 -0.20279,-0.158055 -0.26542,-0.27436 -0.0626,-0.116304 -0.0924,-0.241555 -0.0924,-0.381717 0,-0.13718 0.0298,-0.262431 0.0924,-0.378736 0.0626,-0.116305 0.14911,-0.20577 0.26542,-0.27436 0.1163,-0.06859 0.2505,-0.101394 0.40259,-0.101394 0.15507,0 0.28927,0.0328 0.40558,0.101394 0.1163,0.06859 0.20278,0.158055 0.26541,0.27436 0.0626,0.116305 0.0924,0.241556 0.0924,0.378736 0,0.140162 -0.0298,0.265413 -0.0924,0.381717 -0.0626,0.116305 -0.14911,0.20577 -0.26541,0.27436 -0.11631,0.06859 -0.25051,0.101394 -0.40558,0.101394 z m 0,-0.336986 c 0.11332,0 0.20279,-0.04175 0.27138,-0.122268 0.0656,-0.08052 0.0984,-0.178931 0.0984,-0.298217 0,-0.116305 -0.0328,-0.217699 -0.0984,-0.298218 -0.0686,-0.08052 -0.15806,-0.119286 -0.27138,-0.119286 -0.11332,0 -0.20279,0.03877 -0.26839,0.119286 -0.0656,0.08052 -0.0984,0.181913 -0.0984,0.298218 0,0.119286 0.0328,0.217698 0.0984,0.298217 0.0656,0.08052 0.15507,0.122268 0.26839,0.122268 z m 2.3082,0.3012 c 0,0 -0.30418,-0.981134 -0.30418,-0.981134 0,0 -0.30418,0.981134 -0.30418,0.981134 0,0 -0.40558,0 -0.40558,0 0,0 -0.43838,-1.440388 -0.43838,-1.440388 0,0 0.39365,0 0.39365,0 0,0 0.26839,0.969205 0.26839,0.969205 0,0 0.31611,-0.969205 0.31611,-0.969205 0,0 0.33699,0 0.33699,0 0,0 0.31611,0.969205 0.31611,0.969205 0,0 0.26839,-0.969205 0.26839,-0.969205 0,0 0.39365,0 0.39365,0 0,0 -0.43838,1.440388 -0.43838,1.440388 z m 2.81516,0 c 0,0 0,-0.909562 0,-0.909562 0,-0.07157 -0.0179,-0.128234 -0.0507,-0.169984 -0.0358,-0.03877 -0.0895,-0.05964 -0.16402,-0.05964 -0.0626,0 -0.11929,0.01789 -0.16999,0.0507 -0.0537,0.0328 -0.0954,0.07157 -0.12823,0.116304 0,0 0,0.972188 0,0.972188 0,0 -0.38172,0 -0.38172,0 0,0 0,-0.909562 0,-0.909562 0,-0.07157 -0.0179,-0.128234 -0.0507,-0.169984 -0.0358,-0.03877 -0.0895,-0.05964 -0.16402,-0.05964 -0.0597,0 -0.11631,0.01789 -0.16999,0.0507 -0.0537,0.0328 -0.0954,0.07455 -0.12823,0.119286 0,0 0,0.969206 0,0.969206 0,0 -0.37874,0 -0.37874,0 0,0 0,-1.440388 0,-1.440388 0,0 0.37874,0 0.37874,0 0,0 0,0.187876 0,0.187876 0.0358,-0.0507 0.0984,-0.101394 0.18788,-0.15209 0.0895,-0.04772 0.18489,-0.07157 0.2833,-0.07157 0.10438,0 0.18788,0.02386 0.25647,0.06859 0.0686,0.04473 0.1163,0.110341 0.14314,0.193841 0.0447,-0.07157 0.11333,-0.134197 0.20577,-0.184894 0.0895,-0.0507 0.1849,-0.07754 0.28927,-0.07754 0.1342,0 0.23858,0.03579 0.31313,0.107359 0.0746,0.07455 0.11034,0.181912 0.11034,0.328038 0,0 0,1.040778 0,1.040778 z m 0.66204,-0.721685 c 0,-0.140162 0.0328,-0.265414 0.0954,-0.381718 0.0626,-0.113323 0.15209,-0.202788 0.26542,-0.271378 0.11332,-0.06859 0.24155,-0.101394 0.3847,-0.101394 0.14016,0 0.26541,0.0328 0.37575,0.09841 0.11034,0.06859 0.19384,0.161037 0.25647,0.280324 0.0596,0.122269 0.0895,0.259449 0.0895,0.414522 0,0 0,0.0835 0,0.0835 0,0 -1.0706,0 -1.0706,0 0.0119,0.09543 0.0537,0.175949 0.12824,0.238574 0.0746,0.06263 0.16998,0.09543 0.28628,0.09543 0.0686,0 0.14017,-0.01193 0.21174,-0.03877 0.0686,-0.02684 0.12823,-0.05964 0.17296,-0.104376 0,0 0.16701,0.244538 0.16701,0.244538 -0.0686,0.06263 -0.15806,0.113323 -0.26243,0.146127 -0.10438,0.03579 -0.21472,0.05368 -0.33103,0.05368 -0.14612,0 -0.27734,-0.0328 -0.39364,-0.09543 -0.11631,-0.06262 -0.20875,-0.149108 -0.27436,-0.265413 -0.0686,-0.113322 -0.1014,-0.244538 -0.1014,-0.396628 z m 0.74555,-0.45329 c -0.10736,0 -0.19086,0.0328 -0.25051,0.09543 -0.0596,0.06561 -0.0954,0.140162 -0.10437,0.223663 0,0 0.70976,0 0.70976,0 -0.006,-0.08052 -0.0388,-0.155073 -0.0954,-0.220681 -0.0596,-0.06561 -0.14613,-0.09841 -0.25945,-0.09841 z m 1.47915,1.210761 c -0.1342,0 -0.23559,-0.0328 -0.30418,-0.101394 -0.0686,-0.06859 -0.10438,-0.164019 -0.10438,-0.292253 0,0 0,-0.751507 0,-0.751507 0,0 -0.23857,0 -0.23857,0 0,0 0,-0.33102 0,-0.33102 0,0 0.23857,0 0.23857,0 0,0 0,-0.393647 0,-0.393647 0,0 0.38172,0 0.38172,0 0,0 0,0.393647 0,0.393647 0,0 0.29225,0 0.29225,0 0,0 0,0.33102 0,0.33102 0,0 -0.29225,0 -0.29225,0 0,0 0,0.650113 0,0.650113 0,0.04473 0.0119,0.0835 0.0358,0.113323 0.0239,0.02982 0.0567,0.04473 0.0954,0.04473 0.0268,0 0.0537,-0.003 0.0775,-0.01193 0.0239,-0.0089 0.0418,-0.01789 0.0537,-0.02982 0,0 0.0805,0.286288 0.0805,0.286288 -0.0686,0.06263 -0.17595,0.09245 -0.31611,0.09245 z m 0.43241,-0.757471 c 0,-0.140162 0.0328,-0.265414 0.0954,-0.381718 0.0626,-0.113323 0.15209,-0.202788 0.26542,-0.271378 0.11332,-0.06859 0.24155,-0.101394 0.3847,-0.101394 0.14016,0 0.26541,0.0328 0.37575,0.09841 0.11034,0.06859 0.19384,0.161037 0.25647,0.280324 0.0596,0.122269 0.0895,0.259449 0.0895,0.414522 0,0 0,0.0835 0,0.0835 0,0 -1.0706,0 -1.0706,0 0.0119,0.09543 0.0537,0.175949 0.12824,0.238574 0.0745,0.06263 0.16998,0.09543 0.28628,0.09543 0.0686,0 0.14017,-0.01193 0.21174,-0.03877 0.0686,-0.02684 0.12823,-0.05964 0.17296,-0.104376 0,0 0.16701,0.244538 0.16701,0.244538 -0.0686,0.06263 -0.15806,0.113323 -0.26243,0.146127 -0.10438,0.03579 -0.21472,0.05368 -0.33103,0.05368 -0.14612,0 -0.27734,-0.0328 -0.39364,-0.09543 -0.11631,-0.06262 -0.20875,-0.149108 -0.27436,-0.265413 -0.0686,-0.113322 -0.1014,-0.244538 -0.1014,-0.396628 z m 0.74555,-0.45329 c -0.10736,0 -0.19086,0.0328 -0.25051,0.09543 -0.0596,0.06561 -0.0954,0.140162 -0.10437,0.223663 0,0 0.70976,0 0.70976,0 -0.006,-0.08052 -0.0388,-0.155073 -0.0954,-0.220681 -0.0597,-0.06561 -0.14613,-0.09841 -0.25945,-0.09841 z m 0.99604,1.174975 c 0,0 0,-1.440388 0,-1.440388 0,0 0.37874,0 0.37874,0 0,0 0,0.196823 0,0.196823 0.0507,-0.06561 0.11928,-0.119287 0.20278,-0.16402 0.0835,-0.04473 0.16999,-0.06561 0.25647,-0.06561 0,0 0,0.369789 0,0.369789 -0.0358,-0.0089 -0.0716,-0.01193 -0.10438,-0.01193 -0.0626,0 -0.13121,0.01491 -0.20278,0.04771 -0.0716,0.0328 -0.12227,0.07157 -0.15209,0.116304 0,0 0,0.951313 0,0.951313 z"
         id="text67"
         transform="scale(0.99281964,1.0072323)"
         aria-label="Flowmeter" /><path
         style="font-size:2.98217px;line-height:1.85;font-family:'Proxima Nova Bold';-inkscape-font-specification:'Proxima Nova Bold, Normal';stroke-width:0.381;stroke-linecap:square"
         d="m 130.31149,65.513527 c 0,0 0,-1.989108 0,-1.989108 0,0 0.42347,0 0.42347,0 0,0 0,1.989108 0,1.989108 z m 0.62029,0.05964 c 0,0 0.70678,-2.108394 0.70678,-2.108394 0,0 0.27436,0 0.27436,0 0,0 -0.70678,2.108394 -0.70678,2.108394 z m 1.08253,-1.052706 c 0,-0.196823 0.0447,-0.372771 0.1342,-0.530826 0.0895,-0.155073 0.21472,-0.277342 0.37277,-0.366807 0.15806,-0.08648 0.33401,-0.131215 0.53083,-0.131215 0.1998,0 0.37873,0.04473 0.53679,0.131215 0.15805,0.08947 0.28032,0.211734 0.36979,0.366807 0.0895,0.158055 0.1342,0.334003 0.1342,0.530826 0,0.196823 -0.0447,0.372772 -0.1342,0.527844 -0.0895,0.158055 -0.21174,0.280324 -0.36979,0.366807 -0.15806,0.08947 -0.33699,0.134198 -0.53679,0.134198 -0.19682,0 -0.37277,-0.04473 -0.53083,-0.134198 -0.15805,-0.08648 -0.2833,-0.208752 -0.37277,-0.366807 -0.0895,-0.155072 -0.1342,-0.331021 -0.1342,-0.527844 z m 1.64318,0 c 0,-0.122269 -0.0239,-0.235591 -0.0745,-0.334003 -0.0507,-0.09841 -0.11929,-0.17893 -0.21174,-0.235591 -0.0924,-0.05666 -0.1998,-0.0835 -0.31909,-0.0835 -0.11929,0 -0.22366,0.02684 -0.31611,0.0835 -0.0924,0.05666 -0.16104,0.13718 -0.21173,0.235591 -0.0507,0.09841 -0.0746,0.211734 -0.0746,0.334003 0,0.122269 0.0239,0.235592 0.0746,0.334003 0.0507,0.09841 0.11928,0.175948 0.21173,0.23261 0.0925,0.05666 0.19682,0.08648 0.31611,0.08648 0.11929,0 0.22664,-0.02982 0.31909,-0.08648 0.0925,-0.05666 0.16104,-0.134198 0.21174,-0.23261 0.0507,-0.09841 0.0745,-0.211734 0.0745,-0.334003 z"
         id="text68"
         transform="scale(0.99281964,1.0072323)"
         aria-label="I/O" /><path
         d="m 153.50978,72.610344 c 0,0 0,-2.424507 0,-2.424507 0,0 -0.87228,0 -0.87228,0 0,0 0,-0.559157 0,-0.559157 0,0 2.37977,0 2.37977,0 0,0 0,0.559157 0,0.559157 0,0 -0.86781,0 -0.86781,0 0,0 0,2.424507 0,2.424507 z m 4.00357,0 c 0,0 -0.18787,-0.514425 -0.18787,-0.514425 0,0 -1.33304,0 -1.33304,0 0,0 -0.18787,0.514425 -0.18787,0.514425 0,0 -0.69783,0 -0.69783,0 0,0 1.1541,-2.983664 1.1541,-2.983664 0,0 0.79624,0 0.79624,0 0,0 1.14963,2.983664 1.14963,2.983664 z m -0.85439,-2.433453 c 0,0 -0.49653,1.368817 -0.49653,1.368817 0,0 0.98859,0 0.98859,0 z m 1.82509,2.433453 c 0,0 0,-2.983664 0,-2.983664 0,0 1.17647,0 1.17647,0 0.30865,0 0.586,0.06263 0.82308,0.183403 0.23708,0.125251 0.42496,0.299709 0.55916,0.527845 0.13419,0.228136 0.20129,0.487585 0.20129,0.78282 0,0.295236 -0.0671,0.554685 -0.20129,0.778348 -0.1342,0.228136 -0.32208,0.402593 -0.55916,0.523371 -0.23708,0.125251 -0.51443,0.187877 -0.82308,0.187877 z m 0.6352,-0.559158 c 0,0 0.54127,0 0.54127,0 0.19235,0 0.35786,-0.04026 0.501,-0.125251 0.13867,-0.08499 0.24603,-0.196823 0.32208,-0.339968 0.076,-0.138671 0.11183,-0.295235 0.11183,-0.465219 0,-0.272868 -0.0805,-0.501005 -0.24603,-0.675462 -0.16551,-0.174457 -0.39365,-0.259449 -0.68888,-0.259449 0,0 -0.54127,0 -0.54127,0 z"
         id="text69"
         style="font-size:4.47326px;line-height:1.85;font-family:'Proxima Nova Bold';-inkscape-font-specification:'Proxima Nova Bold, Normal';stroke-width:0.381;stroke-linecap:square"
         transform="scale(0.99281964,1.0072323)"
         aria-label="TAD" /><path
         style="font-size:2.98217px;line-height:1.85;font-family:'Proxima Nova Bold';-inkscape-font-specification:'Proxima Nova Bold, Normal';stroke-width:0.381;stroke-linecap:square"
         d="m 154.83835,81.906509 c 0,0 0,-1.989107 0,-1.989107 0,0 0.42347,0 0.42347,0 0,0 0,1.989107 0,1.989107 z m 0.68292,-0.280324 c 0,0 0.22962,-0.322074 0.22962,-0.322074 0.0746,0.08052 0.167,0.143144 0.27734,0.193841 0.10736,0.0507 0.22665,0.07455 0.35488,0.07455 0.11034,0 0.19384,-0.02088 0.25647,-0.06561 0.0596,-0.04473 0.0895,-0.09543 0.0895,-0.158055 0,-0.06859 -0.0328,-0.119287 -0.0984,-0.155073 -0.0656,-0.0328 -0.167,-0.06561 -0.30418,-0.09841 -0.15507,-0.03579 -0.28032,-0.07157 -0.37873,-0.107358 -0.0984,-0.03579 -0.18192,-0.09543 -0.25349,-0.175948 -0.0746,-0.08052 -0.11034,-0.187877 -0.11034,-0.325057 0,-0.11034 0.0298,-0.211734 0.0925,-0.304181 0.0626,-0.09245 0.14911,-0.164019 0.26541,-0.217698 0.11332,-0.0507 0.24454,-0.07754 0.39663,-0.07754 0.31611,0 0.57556,0.09245 0.77536,0.277342 0,0 -0.23559,0.310146 -0.23559,0.310146 -0.0775,-0.07157 -0.167,-0.125251 -0.26541,-0.16402 -0.10139,-0.03579 -0.20279,-0.05368 -0.30418,-0.05368 -0.0925,0 -0.16402,0.01789 -0.21472,0.05368 -0.0507,0.03877 -0.0775,0.08648 -0.0775,0.149109 0,0.06263 0.0298,0.107358 0.0924,0.134198 0.0626,0.02982 0.16402,0.06263 0.30418,0.09543 0.1521,0.0328 0.27735,0.06859 0.37874,0.107358 0.0984,0.03877 0.18489,0.101394 0.25945,0.181912 0.0716,0.08052 0.10736,0.190859 0.10736,0.325057 0,0.190859 -0.0686,0.345932 -0.20279,0.462236 -0.13718,0.116305 -0.334,0.175948 -0.59345,0.175948 -0.18191,0 -0.34295,-0.02684 -0.48311,-0.0835 -0.14017,-0.05666 -0.25945,-0.134198 -0.35786,-0.23261 z m 1.9235,0.280324 c 0,0 0,-1.989107 0,-1.989107 0,0 0.93043,0 0.93043,0 0.14017,0 0.25945,0.02982 0.36085,0.08648 0.10139,0.05666 0.17893,0.134198 0.22962,0.229627 0.0507,0.09841 0.0775,0.20577 0.0775,0.325057 0,0.116304 -0.0268,0.223662 -0.0775,0.319092 -0.0537,0.09841 -0.13121,0.172966 -0.22962,0.229627 -0.1014,0.05666 -0.22068,0.08648 -0.36085,0.08648 0,0 -0.50696,0 -0.50696,0 0,0 0,0.712738 0,0.712738 z m 1.16603,-1.350923 c 0,-0.08052 -0.0268,-0.149108 -0.0835,-0.199805 -0.0567,-0.0507 -0.12525,-0.07455 -0.20875,-0.07455 0,0 -0.4503,0 -0.4503,0 0,0 0,0.548719 0,0.548719 0,0 0.4503,0 0.4503,0 0.0865,0 0.15508,-0.02684 0.21174,-0.07754 0.0537,-0.0507 0.0805,-0.116305 0.0805,-0.196824 z"
         id="text70"
         transform="scale(0.99281964,1.0072323)"
         aria-label="ISP" /><path
         d="m 142.45937,103.8198 c 0,0 0,-1.25251 0,-1.25251 0,0 -1.40907,0 -1.40907,0 0,0 0,1.25251 0,1.25251 0,0 -0.63521,0 -0.63521,0 0,0 0,-2.98366 0,-2.98366 0,0 0.63521,0 0.63521,0 0,0 0,1.17199 0,1.17199 0,0 1.40907,0 1.40907,0 0,0 0,-1.17199 0,-1.17199 0,0 0.63968,0 0.63968,0 0,0 0,2.98366 0,2.98366 z m 3.82017,0 c 0,0 0,-2.14716 0,-2.14716 0,0 -0.84097,2.14716 -0.84097,2.14716 0,0 -0.27734,0 -0.27734,0 0,0 -0.84098,-2.14716 -0.84098,-2.14716 0,0 0,2.14716 0,2.14716 0,0 -0.6352,0 -0.6352,0 0,0 0,-2.98366 0,-2.98366 0,0 0.89018,0 0.89018,0 0,0 0.72467,1.86087 0.72467,1.86087 0,0 0.72466,-1.86087 0.72466,-1.86087 0,0 0.89466,0 0.89466,0 0,0 0,2.98366 0,2.98366 z m 1.23015,0 c 0,0 0,-2.98366 0,-2.98366 0,0 0.6352,0 0.6352,0 0,0 0,2.98366 0,2.98366 z"
         id="text71"
         style="font-size:4.47326px;line-height:1.85;font-family:'Proxima Nova Bold';-inkscape-font-specification:'Proxima Nova Bold, Normal';stroke-width:0.381;stroke-linecap:square"
         transform="scale(0.99281964,1.0072323)"
         aria-label="HMI" /><g
         id="g74"
         transform="matrix(1.0490874,0,0,1.0643168,-4.6458267,2.4630501)"
         style="stroke-width:0.360565;stroke-dasharray:none"><path
           d="m 119.66889,65.573799 c 0,0 0,-3.764841 0,-3.764841 0,0 1.76106,0 1.76106,0 0.26529,0 0.49107,0.05644 0.68298,0.163688 0.19191,0.107245 0.33867,0.254 0.43462,0.434622 0.096,0.186267 0.14676,0.389467 0.14676,0.615244 0,0.220133 -0.0508,0.423333 -0.14676,0.603955 -0.1016,0.186267 -0.24835,0.327378 -0.43462,0.434622 -0.19191,0.107245 -0.41769,0.163689 -0.68298,0.163689 0,0 -0.95955,0 -0.95955,0 0,0 0,1.349021 0,1.349021 z m 2.20698,-2.556931 c 0,-0.1524 -0.0508,-0.282222 -0.15805,-0.378178 -0.10724,-0.09595 -0.23707,-0.141111 -0.39511,-0.141111 0,0 -0.85231,0 -0.85231,0 0,0 0,1.038577 0,1.038577 0,0 0.85231,0 0.85231,0 0.16369,0 0.29351,-0.0508 0.40076,-0.146755 0.1016,-0.09596 0.1524,-0.220133 0.1524,-0.372533 z m 1.06115,2.026354 c 0,0 0.43463,-0.6096 0.43463,-0.6096 0.14111,0.1524 0.31608,0.270933 0.52493,0.366889 0.2032,0.09596 0.42898,0.141111 0.67169,0.141111 0.20884,0 0.36689,-0.03951 0.48542,-0.124178 0.11289,-0.08467 0.16933,-0.180622 0.16933,-0.299155 0,-0.129822 -0.0621,-0.225778 -0.18626,-0.293511 -0.12418,-0.06209 -0.31609,-0.124178 -0.57574,-0.186267 -0.29351,-0.06773 -0.53058,-0.135466 -0.71684,-0.203199 -0.18627,-0.06773 -0.34431,-0.180623 -0.47978,-0.333022 -0.14111,-0.1524 -0.20884,-0.3556 -0.20884,-0.615244 0,-0.208845 0.0564,-0.400756 0.17497,-0.575733 0.11854,-0.174978 0.28223,-0.310444 0.50236,-0.412044 0.21449,-0.09596 0.46284,-0.146756 0.75071,-0.146756 0.59831,0 1.08938,0.174978 1.46755,0.524933 0,0 -0.44591,0.587022 -0.44591,0.587022 -0.14675,-0.135467 -0.31609,-0.237067 -0.50235,-0.310444 -0.19191,-0.06773 -0.38382,-0.1016 -0.57573,-0.1016 -0.17498,0 -0.31045,0.03387 -0.4064,0.1016 -0.096,0.07338 -0.14676,0.163688 -0.14676,0.282222 0,0.118533 0.0564,0.203199 0.17498,0.253999 0.11853,0.05644 0.31044,0.118534 0.57573,0.180623 0.28787,0.06209 0.52493,0.129822 0.71684,0.203199 0.18627,0.07338 0.34996,0.191911 0.49107,0.344311 0.13547,0.1524 0.2032,0.361244 0.2032,0.615244 0,0.361244 -0.12982,0.654755 -0.38382,0.874888 -0.25965,0.220134 -0.63218,0.333022 -1.12324,0.333022 -0.34432,0 -0.64912,-0.0508 -0.9144,-0.158044 -0.26529,-0.107244 -0.49107,-0.254 -0.67734,-0.440266 z m 5.4356,0.59831 c -0.36689,0 -0.69991,-0.08467 -0.99906,-0.248355 -0.29916,-0.163689 -0.53623,-0.389466 -0.7112,-0.688622 -0.17498,-0.299155 -0.26529,-0.632177 -0.26529,-1.010354 0,-0.378178 0.0903,-0.7112 0.26529,-1.010355 0.17497,-0.299156 0.41204,-0.530578 0.7112,-0.694266 0.29915,-0.163689 0.63217,-0.242711 0.99906,-0.242711 0.39511,0 0.72249,0.08467 0.98213,0.254 0.25965,0.174977 0.46849,0.39511 0.62089,0.666043 0,0 -0.68862,0.338667 -0.68862,0.338667 -0.0847,-0.158044 -0.2032,-0.287867 -0.36689,-0.395111 -0.16369,-0.1016 -0.34995,-0.1524 -0.54751,-0.1524 -0.21449,0 -0.41204,0.0508 -0.58702,0.158044 -0.17498,0.107245 -0.31609,0.259645 -0.41204,0.445911 -0.1016,0.186267 -0.1524,0.400756 -0.1524,0.632178 0,0.231422 0.0508,0.44591 0.1524,0.632177 0.096,0.186266 0.23706,0.333022 0.41204,0.440266 0.17498,0.107245 0.37253,0.163689 0.58702,0.163689 0.2032,0 0.38382,-0.0508 0.54751,-0.1524 0.16369,-0.1016 0.28222,-0.231422 0.36689,-0.395111 0,0 0.68862,0.333022 0.68862,0.333022 -0.3556,0.615244 -0.89182,0.925688 -1.60302,0.925688 z"
           id="text62"
           style="font-size:5.64444px;line-height:1.85;font-family:'Proxima Nova Bold';-inkscape-font-specification:'Proxima Nova Bold, Normal';stroke-linecap:square"
           aria-label="PSC" /><path
           d="m 118.07293,68.472756 c 0,0 0.13829,-0.1778 0.13829,-0.1778 0.0706,0.0762 0.15523,0.141111 0.25683,0.191911 0.1016,0.0508 0.21448,0.0762 0.33584,0.0762 0.1524,0 0.26529,-0.03387 0.33584,-0.09878 0.0706,-0.06491 0.10725,-0.138288 0.10725,-0.225777 0,-0.07056 -0.0198,-0.127 -0.0621,-0.172156 -0.0423,-0.04233 -0.096,-0.0762 -0.15804,-0.1016 -0.0621,-0.0254 -0.14676,-0.0508 -0.25683,-0.08184 -0.13829,-0.03669 -0.25117,-0.07055 -0.33302,-0.104422 -0.0847,-0.03387 -0.15522,-0.08467 -0.21449,-0.155222 -0.0593,-0.06773 -0.0903,-0.158045 -0.0903,-0.273756 0,-0.101599 0.0282,-0.191911 0.0847,-0.270933 0.0564,-0.07902 0.13264,-0.141111 0.23142,-0.186266 0.0988,-0.04233 0.20884,-0.06491 0.3302,-0.06491 0.2794,0 0.50236,0.08749 0.66887,0.262466 0,0 -0.14111,0.172156 -0.14111,0.172156 -0.0677,-0.0762 -0.14958,-0.132645 -0.24272,-0.169334 -0.0931,-0.03669 -0.19473,-0.05644 -0.30197,-0.05644 -0.11289,0 -0.20603,0.02822 -0.27658,0.08184 -0.0734,0.05645 -0.11007,0.129823 -0.11007,0.217311 0,0.05927 0.0198,0.107245 0.0621,0.143934 0.0395,0.03951 0.0875,0.07055 0.14676,0.09031 0.0593,0.02258 0.14111,0.04798 0.24835,0.0762 0.13829,0.03669 0.254,0.07338 0.34149,0.110066 0.0875,0.03669 0.16087,0.09313 0.22296,0.166511 0.0621,0.0762 0.0931,0.174978 0.0931,0.296333 0,0.09878 -0.0226,0.189089 -0.0706,0.270933 -0.048,0.08467 -0.12135,0.1524 -0.22577,0.2032 -0.10443,0.05362 -0.23707,0.07902 -0.39794,0.07902 -0.15522,0 -0.29351,-0.02822 -0.41486,-0.08184 -0.12136,-0.05362 -0.22578,-0.124178 -0.30763,-0.217311 z m 1.96992,0.784577 c 0,0 -0.21167,0 -0.21167,0 0,0 0,-1.882421 0,-1.882421 0,0 0.21167,0 0.21167,0 0,0 0,0.2032 0,0.2032 0.0508,-0.07055 0.11571,-0.129822 0.19755,-0.172155 0.0819,-0.04233 0.16933,-0.06491 0.26247,-0.06491 0.11853,0 0.22295,0.02822 0.31609,0.08467 0.0931,0.05927 0.16369,0.141111 0.21449,0.248356 0.0508,0.110066 0.0762,0.237066 0.0762,0.380999 0,0.143934 -0.0254,0.270934 -0.0762,0.378178 -0.0508,0.110067 -0.12136,0.191911 -0.21449,0.251178 -0.0931,0.05927 -0.19756,0.08749 -0.31609,0.08749 -0.0931,0 -0.1778,-0.01976 -0.25682,-0.06209 -0.0819,-0.04233 -0.14958,-0.1016 -0.2032,-0.1778 z m 0.84384,-1.202266 c 0,-0.155222 -0.0395,-0.279399 -0.11853,-0.378177 -0.079,-0.09878 -0.18627,-0.146755 -0.31891,-0.146755 -0.0819,0 -0.15805,0.01976 -0.23425,0.06209 -0.0762,0.04233 -0.13547,0.09596 -0.17215,0.155222 0,0 0,0.615244 0,0.615244 0.0367,0.06209 0.096,0.112889 0.17215,0.155223 0.0762,0.04233 0.1524,0.06491 0.23425,0.06491 0.13264,0 0.23988,-0.0508 0.31891,-0.149578 0.079,-0.09878 0.11853,-0.222955 0.11853,-0.378179 z m 0.48542,0 c 0,-0.129822 0.0282,-0.248355 0.0875,-0.358421 0.0593,-0.110067 0.13829,-0.194734 0.23989,-0.259645 0.1016,-0.06491 0.21731,-0.09595 0.34431,-0.09595 0.13264,0 0.25118,0.03104 0.34995,0.09595 0.0988,0.06491 0.17216,0.1524 0.22578,0.262467 0.0536,0.110066 0.079,0.234244 0.079,0.372533 0,0 0,0.05362 0,0.05362 0,0 -1.10348,0 -1.10348,0 0.008,0.132644 0.0593,0.245533 0.14675,0.335844 0.0875,0.09031 0.2032,0.135467 0.34431,0.135467 0.079,0 0.15522,-0.01411 0.23142,-0.04516 0.0734,-0.03104 0.13547,-0.07338 0.18909,-0.127 0,0 0.1016,0.138289 0.1016,0.138289 -0.13829,0.138289 -0.31891,0.208844 -0.54186,0.208844 -0.13265,0 -0.254,-0.03104 -0.35843,-0.09031 -0.10442,-0.05927 -0.18626,-0.143933 -0.24553,-0.253999 -0.0593,-0.110067 -0.0903,-0.234245 -0.0903,-0.372534 z m 0.66887,-0.539044 c -0.0931,0 -0.17216,0.02258 -0.23707,0.06773 -0.0649,0.04515 -0.11571,0.1016 -0.14958,0.172155 -0.0367,0.07056 -0.0564,0.141111 -0.0593,0.214489 0,0 0.89464,0 0.89464,0 -0.003,-0.07338 -0.0198,-0.143933 -0.0508,-0.214489 -0.0339,-0.07055 -0.0847,-0.127 -0.14958,-0.172155 -0.0677,-0.04516 -0.14958,-0.06773 -0.24835,-0.06773 z m 0.92004,0.539044 c 0,-0.129822 0.0282,-0.248355 0.0875,-0.358421 0.0593,-0.110067 0.13829,-0.194734 0.23989,-0.259645 0.1016,-0.06491 0.21731,-0.09595 0.34431,-0.09595 0.13264,0 0.25118,0.03104 0.34995,0.09595 0.0988,0.06491 0.17216,0.1524 0.22578,0.262467 0.0536,0.110066 0.079,0.234244 0.079,0.372533 0,0 0,0.05362 0,0.05362 0,0 -1.10349,0 -1.10349,0 0.008,0.132644 0.0593,0.245533 0.14676,0.335844 0.0875,0.09031 0.2032,0.135467 0.34431,0.135467 0.079,0 0.15522,-0.01411 0.23142,-0.04516 0.0734,-0.03104 0.13547,-0.07338 0.18909,-0.127 0,0 0.1016,0.138289 0.1016,0.138289 -0.13829,0.138289 -0.31891,0.208844 -0.54186,0.208844 -0.13265,0 -0.254,-0.03104 -0.35843,-0.09031 -0.10442,-0.05927 -0.18626,-0.143933 -0.24553,-0.253999 -0.0593,-0.110067 -0.0903,-0.234245 -0.0903,-0.372534 z m 0.66887,-0.539044 c -0.0931,0 -0.17216,0.02258 -0.23707,0.06773 -0.0649,0.04515 -0.11571,0.1016 -0.14958,0.172155 -0.0367,0.07056 -0.0564,0.141111 -0.0593,0.214489 0,0 0.89465,0 0.89465,0 -0.003,-0.07338 -0.0198,-0.143933 -0.0508,-0.214489 -0.0339,-0.07055 -0.0847,-0.127 -0.14958,-0.172155 -0.0677,-0.04516 -0.14958,-0.06773 -0.24835,-0.06773 z m 1.98684,1.222022 c 0,0 0,-0.2032 0,-0.2032 -0.0536,0.07055 -0.11854,0.129822 -0.20038,0.172155 -0.0818,0.04233 -0.16651,0.06491 -0.25964,0.06491 -0.11854,0 -0.22296,-0.02822 -0.31327,-0.08749 -0.0931,-0.05644 -0.16369,-0.138289 -0.21449,-0.248356 -0.0536,-0.107244 -0.079,-0.234244 -0.079,-0.378177 0,-0.143934 0.0254,-0.268111 0.0762,-0.378178 0.0508,-0.107244 0.12135,-0.191911 0.21449,-0.251177 0.0931,-0.05927 0.19755,-0.08749 0.31609,-0.08749 0.0903,0 0.17497,0.01975 0.25682,0.06209 0.079,0.04233 0.14675,0.1016 0.2032,0.1778 0,0 0,-0.725311 0,-0.725311 0,0 0.21166,0 0.21166,0 0,0 0,1.882421 0,1.882421 z m 0,-0.369711 c 0,0 0,-0.618066 0,-0.618066 -0.0395,-0.06209 -0.096,-0.115711 -0.17216,-0.158045 -0.0762,-0.04233 -0.15522,-0.06209 -0.23706,-0.06209 -0.13265,0 -0.23989,0.04798 -0.31892,0.146755 -0.079,0.09878 -0.11853,0.225778 -0.11853,0.381 0,0.155222 0.0395,0.279399 0.11853,0.378177 0.079,0.09878 0.18627,0.146756 0.31892,0.146756 0.0818,0 0.16086,-0.01976 0.23706,-0.06209 0.0762,-0.04233 0.13265,-0.09313 0.17216,-0.1524 z m 0.63218,0.719666 c 0,0 0.10724,-0.158044 0.10724,-0.158044 0.0536,0.06491 0.11853,0.112889 0.18909,0.141111 0.0705,0.03104 0.15522,0.04515 0.254,0.04515 0.127,0 0.23142,-0.03387 0.31327,-0.1016 0.0818,-0.06491 0.12417,-0.169333 0.12417,-0.307622 0,0 0,-0.194733 0,-0.194733 -0.0508,0.07056 -0.11571,0.129822 -0.19755,0.174978 -0.0819,0.04515 -0.16651,0.06773 -0.25965,0.06773 -0.11853,0 -0.22295,-0.02822 -0.31326,-0.08467 -0.0931,-0.05644 -0.16369,-0.138288 -0.21449,-0.245533 -0.0536,-0.104422 -0.079,-0.231422 -0.079,-0.375355 0,-0.143933 0.0254,-0.268111 0.0762,-0.375355 0.0508,-0.107245 0.12135,-0.189089 0.21448,-0.248356 0.0931,-0.05644 0.19756,-0.08467 0.31609,-0.08467 0.0903,0 0.17498,0.01975 0.254,0.06209 0.079,0.04233 0.14676,0.1016 0.2032,0.1778 0,0 0,-0.206023 0,-0.206023 0,0 0.21167,0 0.21167,0 0,0 0,1.323622 0,1.323622 0,0.208844 -0.0621,0.358422 -0.18344,0.451555 -0.12136,0.09313 -0.27658,0.141111 -0.46567,0.141111 -0.12136,0 -0.22296,-0.01411 -0.30762,-0.04516 -0.0847,-0.02822 -0.16651,-0.08184 -0.24271,-0.158044 z m 0.98777,-0.742244 c 0,0 0,-0.595488 0,-0.595488 -0.0367,-0.06209 -0.0931,-0.115711 -0.16933,-0.158045 -0.0762,-0.04233 -0.15522,-0.06209 -0.23707,-0.06209 -0.13546,0 -0.24271,0.04798 -0.31891,0.143933 -0.079,0.09595 -0.11853,0.220133 -0.11853,0.375355 0,0.1524 0.0395,0.276578 0.11853,0.372533 0.079,0.09878 0.18627,0.146756 0.31891,0.146756 0.0819,0 0.16087,-0.02258 0.23707,-0.06491 0.0762,-0.04233 0.13264,-0.09596 0.16933,-0.158044 z m 1.23049,0.426155 c -0.13547,0 -0.254,-0.03104 -0.3556,-0.09596 -0.1016,-0.06491 -0.18062,-0.149578 -0.23424,-0.259644 -0.0564,-0.110067 -0.0847,-0.2286 -0.0847,-0.361245 0,-0.132644 0.0282,-0.251177 0.0847,-0.361244 0.0536,-0.110066 0.13264,-0.194733 0.23424,-0.259644 0.1016,-0.06209 0.22013,-0.09313 0.3556,-0.09313 0.13547,0 0.254,0.03104 0.3556,0.09313 0.1016,0.06491 0.18062,0.149578 0.23707,0.259644 0.0536,0.110067 0.0818,0.2286 0.0818,0.361244 0,0.132645 -0.0282,0.251178 -0.0818,0.361245 -0.0565,0.110066 -0.13547,0.194733 -0.23707,0.259644 -0.1016,0.06491 -0.22013,0.09596 -0.3556,0.09596 z m 0,-0.189088 c 0.0931,0 0.17498,-0.0254 0.24271,-0.07338 0.0677,-0.04798 0.11853,-0.110067 0.15522,-0.191911 0.0367,-0.08184 0.0536,-0.169333 0.0536,-0.262467 0,-0.09313 -0.0169,-0.180622 -0.0536,-0.262466 -0.0367,-0.07902 -0.0875,-0.143933 -0.15522,-0.191911 -0.0677,-0.04798 -0.14958,-0.07055 -0.24271,-0.07055 -0.0931,0 -0.17498,0.02258 -0.24271,0.07055 -0.0706,0.04798 -0.12136,0.112889 -0.15805,0.191911 -0.0367,0.08184 -0.0536,0.169333 -0.0536,0.262466 0,0.09313 0.0169,0.180623 0.0536,0.262467 0.0367,0.08184 0.0875,0.143933 0.15805,0.191911 0.0677,0.04798 0.14958,0.07338 0.24271,0.07338 z m 1.87113,0.155222 c 0,0 0,-0.155222 0,-0.155222 -0.11571,0.127 -0.26529,0.189088 -0.45155,0.189088 -0.0819,0 -0.15805,-0.01693 -0.2286,-0.05362 -0.0734,-0.03387 -0.13265,-0.08467 -0.1778,-0.155222 -0.048,-0.06773 -0.0706,-0.149578 -0.0706,-0.242711 0,-0.09596 0.0226,-0.1778 0.0706,-0.245533 0.0452,-0.06773 0.10442,-0.118533 0.1778,-0.1524 0.0705,-0.03387 0.14675,-0.0508 0.2286,-0.0508 0.19473,0 0.34431,0.06209 0.45155,0.186267 0,0 0,-0.245533 0,-0.245533 0,-0.09031 -0.031,-0.160867 -0.096,-0.211667 -0.0649,-0.0508 -0.14676,-0.0762 -0.24836,-0.0762 -0.0818,0 -0.15804,0.01411 -0.22578,0.04516 -0.0677,0.03104 -0.13264,0.07902 -0.19191,0.143933 0,0 -0.0988,-0.146756 -0.0988,-0.146756 0.0734,-0.0762 0.15522,-0.135466 0.24553,-0.172155 0.0875,-0.03669 0.18909,-0.05362 0.29915,-0.05362 0.15523,0 0.28223,0.03669 0.381,0.112889 0.0988,0.0762 0.14676,0.191911 0.14676,0.347133 0,0 0,0.936977 0,0.936977 z m 0,-0.287867 c 0,0 0,-0.256822 0,-0.256822 -0.0395,-0.05362 -0.0931,-0.09595 -0.15804,-0.127 -0.0677,-0.02822 -0.14111,-0.04233 -0.21731,-0.04233 -0.0988,0 -0.1778,0.02822 -0.23989,0.08184 -0.0649,0.05644 -0.096,0.129823 -0.096,0.217311 0,0.08749 0.031,0.158045 0.096,0.211667 0.0621,0.05644 0.14111,0.08467 0.23989,0.08467 0.0762,0 0.14958,-0.01411 0.21731,-0.04516 0.0649,-0.02822 0.11853,-0.07056 0.15804,-0.124178 z m 0.97932,0.321733 c -0.0988,0 -0.17498,-0.02822 -0.22578,-0.08184 -0.0508,-0.05362 -0.0762,-0.132644 -0.0762,-0.237066 0,0 0,-0.891822 0,-0.891822 0,0 -0.22578,0 -0.22578,0 0,0 0,-0.186267 0,-0.186267 0,0 0.22578,0 0.22578,0 0,0 0,-0.372533 0,-0.372533 0,0 0.21166,0 0.21166,0 0,0 0,0.372533 0,0.372533 0,0 0.27658,0 0.27658,0 0,0 0,0.186267 0,0.186267 0,0 -0.27658,0 -0.27658,0 0,0 0,0.846666 0,0.846666 0,0.05362 0.0113,0.09596 0.0367,0.127 0.0226,0.03104 0.0564,0.04798 0.1016,0.04798 0.0282,0 0.0565,-0.0056 0.0819,-0.01693 0.0254,-0.0085 0.048,-0.02258 0.0621,-0.03951 0,0 0.0621,0.158045 0.0621,0.158045 -0.0621,0.05927 -0.14675,0.08749 -0.25399,0.08749 z"
           id="text72"
           style="font-size:2.82222px;line-height:1.85;font-family:'Proxima Nova';-inkscape-font-specification:'Proxima Nova, Normal';stroke-linecap:square"
           aria-label="Speedgoat" /></g><g
         id="g73"
         transform="matrix(1.0490874,0,0,1.0643168,-4.6458267,2.3521086)"
         style="stroke-width:0.360565;stroke-dasharray:none"><path
           d="m 120.99033,83.271583 c -0.36689,0 -0.69991,-0.08467 -0.99906,-0.248355 -0.29916,-0.163689 -0.53622,-0.389467 -0.7112,-0.688622 -0.17498,-0.299155 -0.26529,-0.632177 -0.26529,-1.010355 0,-0.378177 0.0903,-0.711199 0.26529,-1.010355 0.17498,-0.299155 0.41204,-0.530577 0.7112,-0.694266 0.29915,-0.163688 0.63217,-0.242711 0.99906,-0.242711 0.39511,0 0.72249,0.08467 0.98214,0.254 0.25964,0.174978 0.46848,0.395111 0.62088,0.666044 0,0 -0.68862,0.338667 -0.68862,0.338667 -0.0847,-0.158045 -0.2032,-0.287867 -0.36689,-0.395111 -0.16368,-0.1016 -0.34995,-0.1524 -0.54751,-0.1524 -0.21449,0 -0.41204,0.0508 -0.58702,0.158044 -0.17498,0.107245 -0.31609,0.259644 -0.41204,0.445911 -0.1016,0.186266 -0.1524,0.400755 -0.1524,0.632177 0,0.231422 0.0508,0.445911 0.1524,0.632178 0.096,0.186266 0.23706,0.333021 0.41204,0.440266 0.17498,0.107244 0.37253,0.163689 0.58702,0.163689 0.2032,0 0.38383,-0.0508 0.54751,-0.1524 0.16369,-0.1016 0.28223,-0.231422 0.36689,-0.395111 0,0 0.68862,0.333022 0.68862,0.333022 -0.3556,0.615244 -0.89182,0.925688 -1.60302,0.925688 z m 1.8288,-0.598311 c 0,0 0.43463,-0.609599 0.43463,-0.609599 0.14111,0.1524 0.31608,0.270933 0.52493,0.366888 0.2032,0.09596 0.42898,0.141111 0.67169,0.141111 0.20884,0 0.36689,-0.03951 0.48542,-0.124177 0.11289,-0.08467 0.16933,-0.180622 0.16933,-0.299156 0,-0.129822 -0.0621,-0.225777 -0.18626,-0.29351 -0.12418,-0.06209 -0.31609,-0.124178 -0.57574,-0.186267 -0.29351,-0.06773 -0.53057,-0.135466 -0.71684,-0.2032 -0.18627,-0.06773 -0.34431,-0.180622 -0.47978,-0.333022 -0.14111,-0.1524 -0.20884,-0.355599 -0.20884,-0.615244 0,-0.208844 0.0564,-0.400755 0.17497,-0.575733 0.11854,-0.174977 0.28223,-0.310444 0.50236,-0.412044 0.21449,-0.09596 0.46284,-0.146755 0.75071,-0.146755 0.59831,0 1.08938,0.174977 1.46755,0.524933 0,0 -0.44591,0.587022 -0.44591,0.587022 -0.14675,-0.135467 -0.31608,-0.237067 -0.50235,-0.310445 -0.19191,-0.06773 -0.38382,-0.1016 -0.57573,-0.1016 -0.17498,0 -0.31045,0.03387 -0.4064,0.1016 -0.096,0.07338 -0.14676,0.163689 -0.14676,0.282222 0,0.118534 0.0564,0.2032 0.17498,0.254 0.11853,0.05644 0.31044,0.118533 0.57573,0.180622 0.28787,0.06209 0.52493,0.129822 0.71685,0.2032 0.18626,0.07338 0.34995,0.191911 0.49106,0.344311 0.13547,0.1524 0.2032,0.361244 0.2032,0.615244 0,0.361244 -0.12982,0.654755 -0.38382,0.874888 -0.25964,0.220133 -0.63218,0.333022 -1.12324,0.333022 -0.34432,0 -0.64911,-0.0508 -0.9144,-0.158044 -0.26529,-0.107245 -0.49107,-0.254 -0.67734,-0.440267 z m 5.4356,0.598311 c -0.36689,0 -0.69991,-0.08467 -0.99906,-0.248355 -0.29916,-0.163689 -0.53623,-0.389467 -0.7112,-0.688622 -0.17498,-0.299155 -0.26529,-0.632177 -0.26529,-1.010355 0,-0.378177 0.0903,-0.711199 0.26529,-1.010355 0.17497,-0.299155 0.41204,-0.530577 0.7112,-0.694266 0.29915,-0.163688 0.63217,-0.242711 0.99906,-0.242711 0.39511,0 0.72249,0.08467 0.98213,0.254 0.25965,0.174978 0.46849,0.395111 0.62089,0.666044 0,0 -0.68862,0.338667 -0.68862,0.338667 -0.0847,-0.158045 -0.2032,-0.287867 -0.36689,-0.395111 -0.16369,-0.1016 -0.34995,-0.1524 -0.54751,-0.1524 -0.21449,0 -0.41204,0.0508 -0.58702,0.158044 -0.17498,0.107245 -0.31609,0.259644 -0.41204,0.445911 -0.1016,0.186266 -0.1524,0.400755 -0.1524,0.632177 0,0.231422 0.0508,0.445911 0.1524,0.632178 0.096,0.186266 0.23706,0.333021 0.41204,0.440266 0.17498,0.107244 0.37253,0.163689 0.58702,0.163689 0.2032,0 0.38382,-0.0508 0.54751,-0.1524 0.16369,-0.1016 0.28222,-0.231422 0.36689,-0.395111 0,0 0.68862,0.333022 0.68862,0.333022 -0.3556,0.615244 -0.89182,0.925688 -1.60302,0.925688 z"
           id="text63"
           style="font-size:5.64444px;line-height:1.85;font-family:'Proxima Nova Bold';-inkscape-font-specification:'Proxima Nova Bold, Normal';stroke-linecap:square"
           aria-label="CSC" /><path
           d="m 121.97669,86.337418 c 0,0 -0.16651,-0.417689 -0.16651,-0.417689 0,0 -0.95391,0 -0.95391,0 0,0 -0.16651,0.417689 -0.16651,0.417689 0,0 -0.25964,0 -0.25964,0 0,0 0.75635,-1.882421 0.75635,-1.882421 0,0 0.29069,0 0.29069,0 0,0 0.75918,1.882421 0.75918,1.882421 z m -0.64346,-1.673577 c 0,0 -0.40923,1.047044 -0.40923,1.047044 0,0 0.81563,0 0.81563,0 z m 2.06022,1.673577 c 0,0 0,-0.191911 0,-0.191911 -0.0564,0.06491 -0.127,0.118533 -0.21167,0.160866 -0.0875,0.04233 -0.1778,0.06491 -0.27375,0.06491 -0.29069,0 -0.43462,-0.143933 -0.43462,-0.434622 0,0 0,-0.962377 0,-0.962377 0,0 0.21166,0 0.21166,0 0,0 0,0.897466 0,0.897466 0,0.112889 0.0254,0.191911 0.079,0.239889 0.0508,0.04798 0.127,0.07055 0.22577,0.07055 0.079,0 0.15522,-0.01975 0.23142,-0.05927 0.0734,-0.03951 0.12983,-0.08749 0.17216,-0.146756 0,0 0,-1.001888 0,-1.001888 0,0 0.21167,0 0.21167,0 0,0 0,1.363133 0,1.363133 z m 0.97931,0.03387 c -0.0988,0 -0.17498,-0.02822 -0.22578,-0.08184 -0.0508,-0.05362 -0.0762,-0.132644 -0.0762,-0.237067 0,0 0,-0.891821 0,-0.891821 0,0 -0.22577,0 -0.22577,0 0,0 0,-0.186267 0,-0.186267 0,0 0.22577,0 0.22577,0 0,0 0,-0.372533 0,-0.372533 0,0 0.21167,0 0.21167,0 0,0 0,0.372533 0,0.372533 0,0 0.27658,0 0.27658,0 0,0 0,0.186267 0,0.186267 0,0 -0.27658,0 -0.27658,0 0,0 0,0.846666 0,0.846666 0,0.05362 0.0113,0.09596 0.0367,0.127 0.0226,0.03104 0.0564,0.04798 0.1016,0.04798 0.0282,0 0.0564,-0.0056 0.0818,-0.01693 0.0254,-0.0085 0.048,-0.02258 0.0621,-0.03951 0,0 0.0621,0.158044 0.0621,0.158044 -0.0621,0.05927 -0.14675,0.08749 -0.254,0.08749 z m 0.4064,-0.716844 c 0,-0.129822 0.0282,-0.248355 0.0875,-0.358422 0.0593,-0.110066 0.13829,-0.194733 0.23989,-0.259644 0.1016,-0.06491 0.21731,-0.09595 0.34431,-0.09595 0.13265,0 0.25118,0.03104 0.34996,0.09595 0.0988,0.06491 0.17215,0.1524 0.22577,0.262467 0.0536,0.110066 0.079,0.234244 0.079,0.372533 0,0 0,0.05362 0,0.05362 0,0 -1.10349,0 -1.10349,0 0.008,0.132644 0.0593,0.245533 0.14675,0.335844 0.0875,0.09031 0.2032,0.135467 0.34432,0.135467 0.079,0 0.15522,-0.01411 0.23142,-0.04516 0.0734,-0.03104 0.13546,-0.07338 0.18909,-0.127 0,0 0.1016,0.138289 0.1016,0.138289 -0.13829,0.138289 -0.31891,0.208844 -0.54187,0.208844 -0.13264,0 -0.254,-0.03104 -0.35842,-0.09031 -0.10442,-0.05927 -0.18627,-0.143933 -0.24554,-0.254 -0.0593,-0.110066 -0.0903,-0.234244 -0.0903,-0.372533 z m 0.66887,-0.539044 c -0.0931,0 -0.17216,0.02258 -0.23707,0.06773 -0.0649,0.04515 -0.11571,0.1016 -0.14957,0.172155 -0.0367,0.07056 -0.0564,0.141111 -0.0593,0.214489 0,0 0.89464,0 0.89464,0 -0.003,-0.07338 -0.0198,-0.143933 -0.0508,-0.214489 -0.0339,-0.07055 -0.0847,-0.127 -0.14957,-0.172155 -0.0677,-0.04516 -0.14958,-0.06773 -0.24836,-0.06773 z m 0.99906,1.222022 c 0,0 0,-1.363133 0,-1.363133 0,0 0.21167,0 0.21167,0 0,0 0,0.220133 0,0.220133 0.0593,-0.0762 0.127,-0.135466 0.20602,-0.180622 0.0762,-0.04515 0.16087,-0.06773 0.24836,-0.06773 0,0 0,0.217311 0,0.217311 -0.0254,-0.0056 -0.0536,-0.0085 -0.0847,-0.0085 -0.0649,0 -0.13264,0.02258 -0.20884,0.06773 -0.0762,0.04516 -0.12982,0.09596 -0.16087,0.149577 0,0 0,0.9652 0,0.9652 z m 1.78365,0 c 0,0 0,-0.155223 0,-0.155223 -0.11571,0.127 -0.26529,0.189089 -0.45156,0.189089 -0.0818,0 -0.15804,-0.01693 -0.2286,-0.05362 -0.0734,-0.03387 -0.13264,-0.08467 -0.1778,-0.155222 -0.048,-0.06773 -0.0706,-0.149578 -0.0706,-0.242711 0,-0.09596 0.0226,-0.1778 0.0706,-0.245533 0.0452,-0.06773 0.10443,-0.118533 0.1778,-0.1524 0.0706,-0.03387 0.14676,-0.0508 0.2286,-0.0508 0.19474,0 0.34431,0.06209 0.45156,0.186267 0,0 0,-0.245534 0,-0.245534 0,-0.09031 -0.031,-0.160866 -0.096,-0.211666 -0.0649,-0.0508 -0.14675,-0.0762 -0.24835,-0.0762 -0.0819,0 -0.15805,0.01411 -0.22578,0.04515 -0.0677,0.03105 -0.13264,0.07902 -0.19191,0.143934 0,0 -0.0988,-0.146756 -0.0988,-0.146756 0.0734,-0.0762 0.15522,-0.135466 0.24553,-0.172155 0.0875,-0.03669 0.18909,-0.05362 0.29916,-0.05362 0.15522,0 0.28222,0.03669 0.381,0.112888 0.0988,0.0762 0.14675,0.191911 0.14675,0.347134 0,0 0,0.936977 0,0.936977 z m 0,-0.287867 c 0,0 0,-0.256822 0,-0.256822 -0.0395,-0.05362 -0.0931,-0.09595 -0.15805,-0.127 -0.0677,-0.02822 -0.14111,-0.04233 -0.21731,-0.04233 -0.0988,0 -0.1778,0.02822 -0.23989,0.08184 -0.0649,0.05644 -0.0959,0.129822 -0.0959,0.217311 0,0.08749 0.031,0.158045 0.0959,0.211667 0.0621,0.05644 0.14111,0.08467 0.23989,0.08467 0.0762,0 0.14958,-0.01411 0.21731,-0.04516 0.0649,-0.02822 0.11854,-0.07056 0.15805,-0.124178 z"
           id="text73"
           style="font-size:2.82222px;line-height:1.85;font-family:'Proxima Nova';-inkscape-font-specification:'Proxima Nova, Normal';stroke-linecap:square"
           aria-label="Autera" /></g><path
         d="m 94.183175,45.771244 c 0,0 0,-2.983664 0,-2.983664 0,0 1.395657,0 1.395657,0 0.210243,0 0.389173,0.04473 0.541264,0.129724 0.152091,0.08499 0.268396,0.201297 0.344441,0.344441 0.07605,0.147618 0.116305,0.308655 0.116305,0.487586 0,0.174457 -0.04026,0.335494 -0.116305,0.478638 -0.08052,0.147618 -0.196823,0.259449 -0.344441,0.344441 -0.152091,0.08499 -0.331021,0.129725 -0.541264,0.129725 0,0 -0.760454,0 -0.760454,0 0,0 0,1.069109 0,1.069109 z m 1.749044,-2.026387 c 0,-0.120778 -0.04026,-0.223663 -0.125251,-0.299708 -0.08499,-0.07605 -0.187877,-0.111832 -0.313128,-0.111832 0,0 -0.675462,0 -0.675462,0 0,0 0,0.82308 0,0.82308 0,0 0.675462,0 0.675462,0 0.129724,0 0.232609,-0.04026 0.317601,-0.116305 0.08052,-0.07605 0.120778,-0.174457 0.120778,-0.295235 z m 2.487135,2.026387 c 0,0 0,-0.272869 0,-0.272869 -0.08499,0.09394 -0.187877,0.169984 -0.317601,0.23261 -0.129725,0.06263 -0.277342,0.09394 -0.442853,0.09394 -0.232609,0 -0.407067,-0.05815 -0.523371,-0.17893 -0.116305,-0.120778 -0.174457,-0.286289 -0.174457,-0.501005 0,0 0,-1.534328 0,-1.534328 0,0 0.568104,0 0.568104,0 0,0 0,1.310665 0,1.310665 0,0.143144 0.03579,0.246029 0.102885,0.304181 0.0671,0.06263 0.16551,0.09394 0.295235,0.09394 0.102885,0 0.196823,-0.02237 0.281815,-0.07157 0.08499,-0.04921 0.156564,-0.107359 0.210243,-0.174457 0,0 0,-1.462756 0,-1.462756 0,0 0.568104,0 0.568104,0 0,0 0,2.160584 0,2.160584 z m 1.131737,0 c 0,0 0,-2.983664 0,-2.983664 0,0 0.568109,0 0.568109,0 0,0 0,1.100422 0,1.100422 0.085,-0.107359 0.1834,-0.187877 0.2997,-0.24603 0.11631,-0.05815 0.23709,-0.08499 0.36681,-0.08499 0.1834,0 0.34892,0.04473 0.49653,0.138671 0.14315,0.09394 0.25498,0.223663 0.33997,0.393647 0.0805,0.174457 0.12078,0.375754 0.12078,0.60389 0,0.237083 -0.0403,0.43838 -0.12078,0.608364 -0.085,0.169984 -0.19682,0.299708 -0.34444,0.389173 -0.14762,0.08947 -0.30866,0.134198 -0.49206,0.134198 -0.12972,0 -0.25498,-0.02684 -0.36681,-0.08499 -0.1163,-0.05815 -0.21471,-0.138671 -0.2997,-0.246029 0,0 0,0.277342 0,0.277342 z m 0.568109,-0.693355 c 0.0492,0.0671 0.1163,0.125251 0.21024,0.169984 0.0939,0.04921 0.1834,0.07157 0.27734,0.07157 0.16551,0 0.29524,-0.05815 0.39812,-0.174457 0.10289,-0.111832 0.15209,-0.263923 0.15209,-0.4518 0,-0.187877 -0.0492,-0.339967 -0.15209,-0.456272 -0.10288,-0.116305 -0.23261,-0.174457 -0.39812,-0.174457 -0.0939,0 -0.1834,0.02237 -0.27734,0.07157 -0.0939,0.04921 -0.16104,0.107358 -0.21024,0.17893 z m 2.05322,0.693355 c 0,0 0,-2.983664 0,-2.983664 0,0 0.56811,0 0.56811,0 0,0 0,2.983664 0,2.983664 z m 1.41356,-2.437927 c -0.0939,0 -0.16999,-0.03579 -0.23709,-0.102885 -0.0671,-0.0671 -0.10288,-0.143144 -0.10288,-0.237082 0,-0.09394 0.0358,-0.174458 0.10288,-0.241556 0.0671,-0.0671 0.14315,-0.09841 0.23709,-0.09841 0.0939,0 0.17445,0.03131 0.24155,0.09841 0.0671,0.0671 0.0984,0.147617 0.0984,0.241556 0,0.09394 -0.0313,0.169984 -0.0984,0.237082 -0.0671,0.0671 -0.14762,0.102885 -0.24155,0.102885 z m -0.28182,2.437927 c 0,0 0,-2.160584 0,-2.160584 0,0 0.5681,0 0.5681,0 0,0 0,2.160584 0,2.160584 z m 0.99306,-1.082529 c 0,-0.21919 0.0492,-0.41154 0.14762,-0.585997 0.0984,-0.169984 0.23261,-0.304182 0.40707,-0.402593 0.17446,-0.09394 0.37128,-0.143145 0.59047,-0.143145 0.2013,0 0.37575,0.03579 0.5189,0.107359 0.14314,0.07605 0.25497,0.169984 0.33549,0.281815 0,0 -0.37128,0.348914 -0.37128,0.348914 -0.10288,-0.156564 -0.25497,-0.232609 -0.45627,-0.232609 -0.17446,0 -0.31313,0.05815 -0.42049,0.169984 -0.11183,0.116304 -0.16551,0.268395 -0.16551,0.456272 0,0.187877 0.0537,0.339968 0.16551,0.456273 0.10736,0.116304 0.24603,0.174457 0.42049,0.174457 0.0939,0 0.1834,-0.02237 0.25945,-0.06263 0.076,-0.04026 0.14314,-0.09394 0.19682,-0.169984 0,0 0.37128,0.344441 0.37128,0.344441 -0.0805,0.111832 -0.19235,0.20577 -0.33102,0.281816 -0.14314,0.07604 -0.3176,0.111831 -0.52337,0.111831 -0.21919,0 -0.41601,-0.04921 -0.59047,-0.147617 -0.17446,-0.09394 -0.30866,-0.228137 -0.40707,-0.402594 -0.0984,-0.169984 -0.14762,-0.366807 -0.14762,-0.585997 z m 5.81972,1.082529 c 0,0 0,-2.983664 0,-2.983664 0,0 1.39566,0 1.39566,0 0.21025,0 0.38918,0.04473 0.54127,0.129724 0.15209,0.08499 0.26839,0.201297 0.34444,0.344441 0.076,0.147618 0.1163,0.308655 0.1163,0.487586 0,0.174457 -0.0403,0.335494 -0.1163,0.478638 -0.0805,0.147618 -0.19683,0.259449 -0.34444,0.344441 -0.15209,0.08499 -0.33102,0.129725 -0.54127,0.129725 0,0 -0.76045,0 -0.76045,0 0,0 0,1.069109 0,1.069109 z m 1.74905,-2.026387 c 0,-0.120778 -0.0403,-0.223663 -0.12525,-0.299708 -0.085,-0.07605 -0.18788,-0.111832 -0.31313,-0.111832 0,0 -0.67546,0 -0.67546,0 0,0 0,0.82308 0,0.82308 0,0 0.67546,0 0.67546,0 0.12972,0 0.23261,-0.04026 0.3176,-0.116305 0.0805,-0.07605 0.12078,-0.174457 0.12078,-0.295235 z m 1.02885,2.026387 c 0,0 0,-2.160584 0,-2.160584 0,0 0.56811,0 0.56811,0 0,0 0,0.295235 0,0.295235 0.076,-0.09841 0.17893,-0.178931 0.30418,-0.24603 0.12525,-0.0671 0.25497,-0.09841 0.3847,-0.09841 0,0 0,0.554684 0,0.554684 -0.0537,-0.01342 -0.10736,-0.01789 -0.15657,-0.01789 -0.0939,0 -0.19682,0.02237 -0.30418,0.07157 -0.10736,0.04921 -0.1834,0.107358 -0.22813,0.174457 0,0 0,1.42697 0,1.42697 z m 1.89219,-2.437927 c -0.0939,0 -0.16998,-0.03579 -0.23708,-0.102885 -0.0671,-0.0671 -0.10288,-0.143144 -0.10288,-0.237082 0,-0.09394 0.0358,-0.174458 0.10288,-0.241556 0.0671,-0.0671 0.14315,-0.09841 0.23708,-0.09841 0.0939,0 0.17446,0.03131 0.24156,0.09841 0.0671,0.0671 0.0984,0.147617 0.0984,0.241556 0,0.09394 -0.0313,0.169984 -0.0984,0.237082 -0.0671,0.0671 -0.14762,0.102885 -0.24156,0.102885 z m -0.28181,2.437927 c 0,0 0,-2.160584 0,-2.160584 0,0 0.5681,0 0.5681,0 0,0 0,2.160584 0,2.160584 z m 1.69089,0 c 0,0 -0.86781,-2.160584 -0.86781,-2.160584 0,0 0.60836,0 0.60836,0 0,0 0.56363,1.503015 0.56363,1.503015 0,0 0.56363,-1.503015 0.56363,-1.503015 0,0 0.61284,0 0.61284,0 0,0 -0.86781,2.160584 -0.86781,2.160584 z m 3.03287,0 c 0,0 0,-0.223663 0,-0.223663 -0.076,0.08499 -0.16998,0.152091 -0.29076,0.201297 -0.12078,0.04921 -0.25497,0.07605 -0.39364,0.07605 -0.12078,0 -0.24156,-0.02684 -0.35339,-0.08052 -0.11631,-0.05368 -0.21025,-0.134197 -0.28629,-0.246029 -0.076,-0.107358 -0.11183,-0.237083 -0.11183,-0.389173 0,-0.156565 0.0358,-0.290762 0.11183,-0.393647 0.076,-0.102885 0.16998,-0.174457 0.28181,-0.223663 0.11184,-0.04921 0.23261,-0.07157 0.35787,-0.07157 0.14761,0 0.27734,0.02237 0.39812,0.0671 0.12077,0.04473 0.21471,0.111832 0.28628,0.196824 0,0 0,-0.299709 0,-0.299709 0,-0.111831 -0.0447,-0.196823 -0.12972,-0.263922 -0.085,-0.0671 -0.2013,-0.09841 -0.34444,-0.09841 -0.23708,0 -0.44733,0.08499 -0.63073,0.254976 0,0 -0.21472,-0.380227 -0.21472,-0.380227 0.12973,-0.111831 0.27287,-0.196823 0.43838,-0.254976 0.16104,-0.05815 0.33102,-0.08499 0.50548,-0.08499 0.27734,0 0.50548,0.06263 0.67994,0.192351 0.17445,0.129724 0.26392,0.335494 0.26392,0.626256 0,0 0,1.395657 0,1.395657 z m 0,-0.518898 c 0,0 0,-0.268396 0,-0.268396 -0.0447,-0.05815 -0.10735,-0.107358 -0.18787,-0.138671 -0.085,-0.03131 -0.17446,-0.04921 -0.2684,-0.04921 -0.1163,0 -0.21471,0.02684 -0.29076,0.08499 -0.076,0.05815 -0.11631,0.138671 -0.11631,0.241556 0,0.09841 0.0403,0.174457 0.11631,0.23261 0.0761,0.05815 0.17446,0.08499 0.29076,0.08499 0.0939,0 0.18341,-0.01789 0.2684,-0.04921 0.0805,-0.03131 0.14314,-0.08052 0.18787,-0.138671 z m 1.8564,0.572577 c -0.20129,0 -0.35338,-0.04921 -0.45627,-0.152091 -0.10288,-0.102885 -0.15656,-0.246029 -0.15656,-0.438379 0,0 0,-1.127262 0,-1.127262 0,0 -0.35786,0 -0.35786,0 0,0 0,-0.496531 0,-0.496531 0,0 0.35786,0 0.35786,0 0,0 0,-0.590471 0,-0.590471 0,0 0.57257,0 0.57257,0 0,0 0,0.590471 0,0.590471 0,0 0.43838,0 0.43838,0 0,0 0,0.496531 0,0.496531 0,0 -0.43838,0 -0.43838,0 0,0 0,0.975171 0,0.975171 0,0.0671 0.0179,0.125251 0.0537,0.169984 0.0358,0.04473 0.085,0.0671 0.14315,0.0671 0.0403,0 0.0805,-0.0045 0.1163,-0.01789 0.0358,-0.01342 0.0626,-0.02684 0.0805,-0.04473 0,0 0.12078,0.429433 0.12078,0.429433 -0.10289,0.09394 -0.26392,0.138671 -0.47417,0.138671 z m 0.64862,-1.136208 c 0,-0.210243 0.0492,-0.39812 0.14315,-0.572577 0.0939,-0.169984 0.22813,-0.304182 0.39812,-0.407067 0.16998,-0.102885 0.36233,-0.152091 0.57705,-0.152091 0.21024,0 0.39812,0.04921 0.56363,0.147618 0.16551,0.102885 0.29076,0.241556 0.3847,0.420486 0.0895,0.183404 0.1342,0.389174 0.1342,0.621784 0,0 0,0.125251 0,0.125251 0,0 -1.6059,0 -1.6059,0 0.0179,0.143144 0.0805,0.263922 0.19235,0.357861 0.11183,0.09394 0.25497,0.143144 0.42943,0.143144 0.10288,0 0.21024,-0.01789 0.3176,-0.05815 0.10289,-0.04026 0.19235,-0.08947 0.25945,-0.156565 0,0 0.2505,0.366808 0.2505,0.366808 -0.10288,0.09394 -0.23708,0.169984 -0.39364,0.219189 -0.15657,0.05368 -0.32208,0.08052 -0.49654,0.08052 -0.21919,0 -0.41601,-0.04921 -0.59047,-0.143144 -0.17445,-0.09394 -0.31312,-0.223663 -0.41154,-0.39812 -0.10288,-0.169984 -0.15209,-0.366808 -0.15209,-0.594944 z m 1.11832,-0.679935 c -0.16104,0 -0.28629,0.04921 -0.37576,0.143144 -0.0895,0.09841 -0.14314,0.210243 -0.15656,0.335494 0,0 1.06464,0 1.06464,0 -0.009,-0.120778 -0.0582,-0.232609 -0.14315,-0.331021 -0.0895,-0.09841 -0.21919,-0.147617 -0.38917,-0.147617 z m 4.07514,1.816143 c -0.29076,0 -0.55469,-0.0671 -0.79177,-0.196823 -0.23708,-0.129725 -0.42496,-0.308655 -0.56363,-0.545738 -0.13867,-0.237083 -0.21024,-0.501005 -0.21024,-0.800714 0,-0.299708 0.0716,-0.56363 0.21024,-0.800713 0.13867,-0.237083 0.32655,-0.420486 0.56363,-0.550211 0.23708,-0.129725 0.50101,-0.19235 0.79177,-0.19235 0.31313,0 0.57258,0.0671 0.77835,0.201297 0.20577,0.138671 0.37128,0.313128 0.49205,0.527844 0,0 -0.54573,0.268396 -0.54573,0.268396 -0.0671,-0.125251 -0.16104,-0.228136 -0.29077,-0.313128 -0.12972,-0.08052 -0.27734,-0.120778 -0.4339,-0.120778 -0.16999,0 -0.32655,0.04026 -0.46522,0.125251 -0.13867,0.08499 -0.2505,0.20577 -0.32655,0.353387 -0.0805,0.147618 -0.12078,0.317602 -0.12078,0.501005 0,0.183404 0.0403,0.353388 0.12078,0.501006 0.0761,0.147617 0.18788,0.263922 0.32655,0.348914 0.13867,0.08499 0.29523,0.129724 0.46522,0.129724 0.16104,0 0.30418,-0.04026 0.4339,-0.120778 0.12973,-0.08052 0.22367,-0.183403 0.29077,-0.313128 0,0 0.54573,0.263923 0.54573,0.263923 -0.28181,0.487585 -0.70677,0.733614 -1.2704,0.733614 z m 3.73964,-0.05368 c 0,0 -0.18787,-0.514425 -0.18787,-0.514425 0,0 -1.33303,0 -1.33303,0 0,0 -0.18788,0.514425 -0.18788,0.514425 0,0 -0.69783,0 -0.69783,0 0,0 1.1541,-2.983664 1.1541,-2.983664 0,0 0.79624,0 0.79624,0 0,0 1.14963,2.983664 1.14963,2.983664 z m -0.85439,-2.433453 c 0,0 -0.49653,1.368817 -0.49653,1.368817 0,0 0.98859,0 0.98859,0 z m 3.88279,2.433453 c 0,0 -1.42249,-2.00402 -1.42249,-2.00402 0,0 0,2.00402 0,2.00402 0,0 -0.63521,0 -0.63521,0 0,0 0,-2.983664 0,-2.983664 0,0 0.6531,0 0.6531,0 0,0 1.38224,1.932448 1.38224,1.932448 0,0 0,-1.932448 0,-1.932448 0,0 0.6352,0 0.6352,0 0,0 0,2.983664 0,2.983664 z m 2.34846,0 c 0,0 0,-2.983664 0,-2.983664 0,0 1.57012,0 1.57012,0 0.1834,0 0.33997,0.03579 0.46969,0.102885 0.12973,0.07157 0.22366,0.16551 0.29076,0.277342 0.0671,0.116305 0.0984,0.241556 0.0984,0.380227 0,0.183404 -0.0492,0.335494 -0.14762,0.456272 -0.0984,0.120778 -0.21919,0.196824 -0.36681,0.228137 0.16104,0.02237 0.29524,0.107358 0.40707,0.246029 0.11183,0.138671 0.16551,0.304182 0.16551,0.487585 0,0.23261 -0.0761,0.42496 -0.22814,0.577051 -0.15209,0.152091 -0.36681,0.228136 -0.63968,0.228136 z m 0.63521,-1.784831 c 0,0 0.79624,0 0.79624,0 0.10736,0 0.19235,-0.03131 0.25497,-0.09394 0.0626,-0.05815 0.0939,-0.138671 0.0939,-0.237083 0,-0.09394 -0.0313,-0.169984 -0.0939,-0.232609 -0.0671,-0.06263 -0.15209,-0.09394 -0.25497,-0.09394 0,0 -0.79624,0 -0.79624,0 z m 0,1.243567 c 0,0 0.8186,0 0.8186,0 0.12078,0 0.21472,-0.03131 0.28182,-0.09841 0.0671,-0.06263 0.10288,-0.147618 0.10288,-0.254976 0,-0.09841 -0.0358,-0.183404 -0.10288,-0.250502 -0.0671,-0.0671 -0.16104,-0.09841 -0.28182,-0.09841 0,0 -0.8186,0 -0.8186,0 z m 3.77543,0.541264 c 0,0 0,-0.272869 0,-0.272869 -0.085,0.09394 -0.18787,0.169984 -0.3176,0.23261 -0.12972,0.06263 -0.27734,0.09394 -0.44285,0.09394 -0.23261,0 -0.40707,-0.05815 -0.52337,-0.17893 -0.11631,-0.120778 -0.17446,-0.286289 -0.17446,-0.501005 0,0 0,-1.534328 0,-1.534328 0,0 0.5681,0 0.5681,0 0,0 0,1.310665 0,1.310665 0,0.143144 0.0358,0.246029 0.10289,0.304181 0.0671,0.06263 0.16551,0.09394 0.29523,0.09394 0.10289,0 0.19683,-0.02237 0.28182,-0.07157 0.085,-0.04921 0.15656,-0.107359 0.21024,-0.174457 0,0 0,-1.462756 0,-1.462756 0,0 0.56811,0 0.56811,0 0,0 0,2.160584 0,2.160584 z m 0.94386,-0.281815 c 0,0 0.24603,-0.39812 0.24603,-0.39812 0.085,0.07605 0.19682,0.147617 0.33997,0.205769 0.14314,0.05815 0.27734,0.08947 0.40707,0.08947 0.12077,0 0.21024,-0.01789 0.27286,-0.05815 0.0582,-0.04026 0.0895,-0.09394 0.0895,-0.161037 0,-0.0671 -0.0358,-0.120778 -0.10736,-0.156564 -0.0716,-0.03579 -0.17893,-0.0671 -0.32655,-0.09841 -0.17445,-0.03131 -0.3176,-0.0671 -0.42943,-0.107358 -0.11183,-0.04026 -0.21024,-0.102885 -0.29523,-0.196824 -0.085,-0.08946 -0.12526,-0.214716 -0.12526,-0.37128 0,-0.120778 0.0358,-0.237083 0.10736,-0.339968 0.0671,-0.102885 0.16999,-0.187877 0.30418,-0.250502 0.1342,-0.05815 0.29077,-0.08947 0.47417,-0.08947 0.33549,0 0.62626,0.09841 0.87229,0.295236 0,0 -0.22814,0.389173 -0.22814,0.389173 -0.0671,-0.07157 -0.16104,-0.129724 -0.27287,-0.17893 -0.1163,-0.04921 -0.23708,-0.07157 -0.36681,-0.07157 -0.10288,0 -0.18787,0.01789 -0.24603,0.05368 -0.0626,0.03579 -0.0939,0.08499 -0.0939,0.147617 0,0.06263 0.0358,0.107359 0.10288,0.138671 0.0671,0.03131 0.16998,0.06263 0.30865,0.09394 0.17446,0.03131 0.31761,0.07157 0.43391,0.111831 0.11631,0.04026 0.21919,0.111832 0.30418,0.20577 0.085,0.09394 0.12973,0.223663 0.12973,0.389174 0,0.129724 -0.0358,0.250502 -0.10736,0.353387 -0.0761,0.107359 -0.1834,0.192351 -0.32208,0.250503 -0.14314,0.05815 -0.31312,0.08946 -0.50547,0.08946 -0.18788,0 -0.36681,-0.03131 -0.5368,-0.08946 -0.17445,-0.05815 -0.3176,-0.143144 -0.42943,-0.246029 z"
         id="text80"
         style="font-size:4.47326px;line-height:1.85;font-family:'Proxima Nova Bold';-inkscape-font-specification:'Proxima Nova Bold, Normal';stroke-width:0.381;stroke-linecap:square"
         transform="scale(0.99281964,1.0072323)"
         aria-label="Public   Private CAN Bus" /></g></g></svg>
