<?xml version="1.0" encoding="UTF-8" standalone="no"?>
<!-- Created with Inkscape (http://www.inkscape.org/) -->

<svg
   width="2.1999998in"
   height="0.58399844in"
   viewBox="0 0 55.879995 14.83356"
   version="1.1"
   id="svg1"
   inkscape:version="1.3 (0e150ed6c4, 2023-07-21)"
   sodipodi:docname="poster.svg"
   xml:space="preserve"
   inkscape:export-filename="poster.png"
   inkscape:export-xdpi="160"
   inkscape:export-ydpi="160"
   xmlns:inkscape="http://www.inkscape.org/namespaces/inkscape"
   xmlns:sodipodi="http://sodipodi.sourceforge.net/DTD/sodipodi-0.dtd"
   xmlns:xlink="http://www.w3.org/1999/xlink"
   xmlns="http://www.w3.org/2000/svg"
   xmlns:svg="http://www.w3.org/2000/svg"><sodipodi:namedview
     id="namedview1"
     pagecolor="#ffffff"
     bordercolor="#999999"
     borderopacity="1"
     inkscape:showpageshadow="2"
     inkscape:pageopacity="0"
     inkscape:pagecheckerboard="false"
     inkscape:deskcolor="#d1d1d1"
     inkscape:document-units="in"
     inkscape:zoom="1"
     inkscape:cx="511"
     inkscape:cy="447.5"
     inkscape:window-width="1920"
     inkscape:window-height="1009"
     inkscape:window-x="-8"
     inkscape:window-y="-8"
     inkscape:window-maximized="1"
     inkscape:current-layer="layer1"
     inkscape:export-bgcolor="#ffffff00" /><defs
     id="defs1"><marker
       style="overflow:visible"
       id="ArrowWide"
       refX="0"
       refY="0"
       orient="auto-start-reverse"
       inkscape:stockid="Wide arrow"
       markerWidth="1"
       markerHeight="1"
       viewBox="0 0 1 1"
       inkscape:isstock="true"
       inkscape:collect="always"
       preserveAspectRatio="xMidYMid"><path
         style="fill:none;stroke:context-stroke;stroke-width:1;stroke-linecap:butt"
         d="M 3,-3 0,0 3,3"
         transform="rotate(180,0.125,0)"
         sodipodi:nodetypes="ccc"
         id="path95" /></marker><clipPath
       clipPathUnits="userSpaceOnUse"
       id="clipPath2"><path
         d="M 0,612 H 792 V 0 H 0 Z"
         transform="translate(-464.23441,-311.42241)"
         id="path2" /></clipPath><clipPath
       clipPathUnits="userSpaceOnUse"
       id="clipPath4"><path
         d="M 0,612 H 792 V 0 H 0 Z"
         id="path4" /></clipPath><clipPath
       clipPathUnits="userSpaceOnUse"
       id="clipPath6"><path
         d="M 0,612 H 792 V 0 H 0 Z"
         transform="translate(-435.20121,-344.16021)"
         id="path6" /></clipPath><clipPath
       clipPathUnits="userSpaceOnUse"
       id="clipPath8"><path
         d="M 0,612 H 792 V 0 H 0 Z"
         transform="translate(-400.06351,-333.92681)"
         id="path8" /></clipPath><clipPath
       clipPathUnits="userSpaceOnUse"
       id="clipPath10"><path
         d="M 0,612 H 792 V 0 H 0 Z"
         transform="translate(-349.68991,-344.16021)"
         id="path10" /></clipPath><clipPath
       clipPathUnits="userSpaceOnUse"
       id="clipPath12"><path
         d="M 0,612 H 792 V 0 H 0 Z"
         transform="translate(-342.26661,-343.04831)"
         id="path12" /></clipPath><clipPath
       clipPathUnits="userSpaceOnUse"
       id="clipPath14"><path
         d="M 0,612 H 792 V 0 H 0 Z"
         transform="translate(-299.7085,-342.40191)"
         id="path14" /></clipPath><clipPath
       clipPathUnits="userSpaceOnUse"
       id="clipPath16"><path
         d="M 0,612 H 792 V 0 H 0 Z"
         id="path16" /></clipPath><clipPath
       clipPathUnits="userSpaceOnUse"
       id="clipPath18"><path
         d="M 0,612 H 792 V 0 H 0 Z"
         transform="translate(-285.4297,-284.0566)"
         id="path18" /></clipPath><clipPath
       clipPathUnits="userSpaceOnUse"
       id="clipPath20"><path
         d="M 0,612 H 792 V 0 H 0 Z"
         transform="translate(-294.52491,-281.44821)"
         id="path20" /></clipPath><clipPath
       clipPathUnits="userSpaceOnUse"
       id="clipPath22"><path
         d="M 0,612 H 792 V 0 H 0 Z"
         transform="translate(-315.06351,-290.002)"
         id="path22" /></clipPath><clipPath
       clipPathUnits="userSpaceOnUse"
       id="clipPath24"><path
         d="M 0,612 H 792 V 0 H 0 Z"
         transform="translate(-343.16891,-281.8711)"
         id="path24" /></clipPath><clipPath
       clipPathUnits="userSpaceOnUse"
       id="clipPath26"><path
         d="M 0,612 H 792 V 0 H 0 Z"
         transform="translate(-371.81451,-290.002)"
         id="path26" /></clipPath><clipPath
       clipPathUnits="userSpaceOnUse"
       id="clipPath28"><path
         d="M 0,612 H 792 V 0 H 0 Z"
         transform="translate(-384.12891,-272.28421)"
         id="path28" /></clipPath><clipPath
       clipPathUnits="userSpaceOnUse"
       id="clipPath30"><path
         d="M 0,612 H 792 V 0 H 0 Z"
         transform="translate(-396.56051,-286.10161)"
         id="path30" /></clipPath><clipPath
       clipPathUnits="userSpaceOnUse"
       id="clipPath32"><path
         d="M 0,612 H 792 V 0 H 0 Z"
         transform="translate(-411.83591,-282.05961)"
         id="path32" /></clipPath><clipPath
       clipPathUnits="userSpaceOnUse"
       id="clipPath34"><path
         d="M 0,612 H 792 V 0 H 0 Z"
         transform="translate(-444.75881,-285.44341)"
         id="path34" /></clipPath><clipPath
       clipPathUnits="userSpaceOnUse"
       id="clipPath36"><path
         d="M 0,612 H 792 V 0 H 0 Z"
         transform="translate(-464.28711,-284.0566)"
         id="path36" /></clipPath><clipPath
       clipPathUnits="userSpaceOnUse"
       id="clipPath38"><path
         d="M 0,612 H 792 V 0 H 0 Z"
         id="path38" /></clipPath><clipPath
       clipPathUnits="userSpaceOnUse"
       id="clipPath40"><path
         d="M 0,612 H 792 V 0 H 0 Z"
         transform="translate(-484.04981,-286.10161)"
         id="path40" /></clipPath><clipPath
       clipPathUnits="userSpaceOnUse"
       id="clipPath42"><path
         d="M 0,612 H 792 V 0 H 0 Z"
         transform="translate(-494.71871,-290.002)"
         id="path42" /></clipPath><clipPath
       clipPathUnits="userSpaceOnUse"
       id="clipPath44"><path
         d="M 0,612 H 792 V 0 H 0 Z"
         transform="translate(-530.20312,-284.0566)"
         id="path44" /></clipPath><clipPath
       clipPathUnits="userSpaceOnUse"
       id="clipPath46"><path
         d="M 0,612 H 792 V 0 H 0 Z"
         transform="translate(-540.00202,-286.10161)"
         id="path46" /></clipPath></defs><g
     inkscape:label="Layer 1"
     inkscape:groupmode="layer"
     id="layer1"
     transform="translate(-5.0800003,-18.1864)"><g
       id="g106"
       transform="matrix(1.0541108,0,0,1.0541108,-1.6635842,66.704284)"
       inkscape:export-filename="..\..\Github\YesWeCan-Poster\assets\cyber_comms.svg"
       inkscape:export-xdpi="160"
       inkscape:export-ydpi="160"><path
         style="fill:#ffffff;fill-opacity:1;stroke:#000000;stroke-width:0.381;stroke-linecap:square;stroke-linejoin:round;stroke-dasharray:3.048, 1.143;stroke-dashoffset:1.3335;stroke-opacity:1;marker-end:url(#ArrowWide)"
         d="m 14.148533,112.44834 46.934827,3.7669"
         id="path87" /><path
         style="fill:#ffffff;fill-opacity:1;stroke:#000000;stroke-width:0.381;stroke-linecap:square;stroke-linejoin:round;stroke-dasharray:3.048, 1.143;stroke-dashoffset:1.3335;stroke-opacity:1;marker-end:url(#ArrowWide)"
         d="m 61.316226,120.93454 -46.934827,3.76689"
         id="path96" /><text
         xml:space="preserve"
         style="font-style:normal;font-variant:normal;font-weight:normal;font-stretch:normal;font-size:2.98217px;line-height:1.85;font-family:'Proxima Nova';-inkscape-font-specification:'Proxima Nova, Normal';font-variant-ligatures:normal;font-variant-caps:normal;font-variant-numeric:normal;font-variant-east-asian:normal;fill:#000000;fill-opacity:1;stroke:none;stroke-width:0.381;stroke-linecap:square;stroke-linejoin:miter;stroke-dasharray:none;stroke-dashoffset:0;stroke-opacity:1"
         id="text104"
         transform="rotate(180,44.342019,121.84917)"><textPath
           xlink:href="#path96"
           id="textPath104">Transmit Counter Values</textPath></text><text
         xml:space="preserve"
         style="font-style:normal;font-variant:normal;font-weight:normal;font-stretch:normal;font-size:2.98217px;line-height:1.85;font-family:'Proxima Nova';-inkscape-font-specification:'Proxima Nova, Normal';font-variant-ligatures:normal;font-variant-caps:normal;font-variant-numeric:normal;font-variant-east-asian:normal;text-align:center;text-anchor:middle;fill:#000000;fill-opacity:1;stroke:none;stroke-width:0.381;stroke-linecap:square;stroke-linejoin:miter;stroke-dasharray:none;stroke-dashoffset:0;stroke-opacity:1"
         id="text72-4"
         transform="translate(-5.9679145,-1.3289296)"
         x="10.932624"
         y="0"><textPath
           xlink:href="#path87"
           startOffset="50%"
           id="textPath103">Request Counter Values</textPath></text><text
         xml:space="preserve"
         style="font-style:normal;font-variant:normal;font-weight:normal;font-stretch:normal;font-size:2.98217px;line-height:1.85;font-family:'Proxima Nova';-inkscape-font-specification:'Proxima Nova, Normal';font-variant-ligatures:normal;font-variant-caps:normal;font-variant-numeric:normal;font-variant-east-asian:normal;text-align:center;text-anchor:middle;fill:#000000;fill-opacity:1;stroke:none;stroke-width:0.381;stroke-linecap:square;stroke-linejoin:miter;stroke-dasharray:none;stroke-dashoffset:0;stroke-opacity:1"
         id="text105"
         transform="translate(-2.1183851,15.821407)"
         x="10.932624"
         y="0"><textPath
           xlink:href="#path87"
           startOffset="50%"
           id="textPath105">Transmit Encrypted Messages</textPath></text><text
         xml:space="preserve"
         style="font-style:normal;font-variant:normal;font-weight:normal;font-stretch:normal;font-size:2.98217px;line-height:1.85;font-family:'Proxima Nova';-inkscape-font-specification:'Proxima Nova, Normal';font-variant-ligatures:normal;font-variant-caps:normal;font-variant-numeric:normal;font-variant-east-asian:normal;text-align:center;text-anchor:middle;fill:#000000;fill-opacity:1;stroke:none;stroke-width:0.381;stroke-linecap:square;stroke-linejoin:miter;stroke-dasharray:none;stroke-dashoffset:0;stroke-opacity:1"
         id="text106"
         transform="translate(-3.2510522,28.452591)"
         x="10.932624"
         y="0"><textPath
           xlink:href="#path87"
           startOffset="50%"
           id="textPath106">Occasionally Sync. Counters</textPath></text></g><g
       id="g28"><g
         id="g1"
         transform="matrix(0.52564361,0,0,0.52564361,-36.842042,-51.018339)"><path
           id="path1"
           d="M 0,0 3.557,9.41 4.176,8.874 c 2.183,-1.78 5.147,-3.298 7.94,-3.355 2.501,-0.06 3.723,0.606 3.39,2.722 -0.246,1.581 -2.029,1.858 -3.144,2.079 l -2.446,0.489 c -4.757,0.888 -8.761,3.824 -8.761,9.383 0,8.408 7.251,13.123 14.537,13.123 3.83,0 7.341,-0.975 10.63,-3.114 l -3.089,-8.337 c -1.693,1.219 -4.255,2.937 -7.504,3.054 -1.066,0.041 -3.506,-0.519 -2.726,-3.001 0.337,-1.056 1.852,-1.498 2.782,-1.725 l 2.758,-0.666 c 5.155,-1.2 8.89,-4.135 8.89,-10.139 0,-8.45 -7.291,-12.636 -14.536,-12.636 C 8.673,-3.249 3.777,-2.045 0,0"
           style="fill:#daae06;fill-opacity:1;fill-rule:nonzero;stroke:none"
           transform="matrix(0.38448765,0,0,-0.38448765,154.82433,144.60272)"
           clip-path="url(#clipPath2)" /><path
           id="path3"
           d="m 449.197,344.16 h 12.415 v -35.456 h -12.415 z"
           style="fill:#daae06;fill-opacity:1;fill-rule:nonzero;stroke:none"
           transform="matrix(0.38448765,0,0,-0.38448765,-23.668061,264.34079)"
           clip-path="url(#clipPath4)" /><path
           id="path5"
           d="M 0,0 H 12.719 L -0.268,-35.456 h -10.32 L -23.53,0 h 12.671 l 5.43,-21.395 z"
           style="fill:#daae06;fill-opacity:1;fill-rule:nonzero;stroke:none"
           transform="matrix(0.38448765,0,0,-0.38448765,143.66143,132.01544)"
           clip-path="url(#clipPath6)" /><path
           id="path7"
           d="M 0,0 V 0 C 0.228,-1.51 2.449,-12.361 2.449,-12.361 H -2.43 Z m -18.497,-25.223 h 12.896 l 0.979,4.453 H 4.58 l 1.222,-4.453 h 12.9 L 6.625,10.233 H -6.902 Z"
           style="fill:#daae06;fill-opacity:1;fill-rule:nonzero;stroke:none"
           transform="matrix(0.38448765,0,0,-0.38448765,130.15142,135.95006)"
           clip-path="url(#clipPath8)" /><path
           id="path9"
           d="m 0,0 h 12.709 c 11.34,0 20.01,-5.207 20.01,-18.238 0,-10.499 -7.068,-17.218 -16.986,-17.218 L 0,-35.437 Z m 12.49,-25.274 h 0.831 c 4.092,0 7.125,2.454 7.125,7.081 0,4.982 -2.689,7.761 -7.181,7.761 H 12.49 Z"
           style="fill:#daae06;fill-opacity:1;fill-rule:nonzero;stroke:none"
           transform="matrix(0.38448765,0,0,-0.38448765,110.78339,132.01544)"
           clip-path="url(#clipPath10)" /><path
           id="path11"
           d="m 0,0 0.662,-5.817 c 0.155,-1.383 0.942,-4.696 -0.029,-4.253 -0.61,0.275 -1.112,1.778 -1.612,3.109 -0.254,0.678 -1.462,3.881 -1.777,4.118 -1.528,1.142 -5.341,2.429 -7.916,2.441 -7.818,0.031 -12.989,-5.736 -12.989,-15.968 0,-7.338 3.515,-16.143 12.452,-16.143 3.203,0 9.339,1.008 11.009,5.565 0.752,2.062 1.445,3.893 1.945,3.34 0.371,-0.409 -0.112,-2.059 -0.335,-2.948 -1.052,-4.226 -1.11,-5.505 -1.445,-5.671 -4.037,-2.025 -9.217,-2.692 -13.752,-2.692 -14.411,0 -19.388,8.408 -19.388,16.814 0,14.589 8.961,20.735 22.853,20.105 C -6.808,1.868 -3.293,1.245 0,0"
           style="fill:#daae06;fill-opacity:1;fill-rule:nonzero;stroke:none"
           transform="matrix(0.38448765,0,0,-0.38448765,107.92923,132.44295)"
           clip-path="url(#clipPath12)" /><path
           id="path13"
           d="m 0,0 -2.307,0.806 c -0.776,0.696 0.168,0.891 0.168,0.891 0,0 3.335,-0.618 11.645,0.084 0,0 0.722,-0.142 0.222,-0.729 L 7.004,-0.113 C 5.227,-0.891 5.227,-0.444 5.227,-2.391 L 5.211,-20.459 c 0,-14.133 -14.373,-13.814 -17.174,-13.814 -1.331,0 -14.514,0 -14.514,11.344 v 19.126 c 0,3.336 0.356,3.247 -0.754,3.64 l -3.335,1.25 c 0,0 -0.562,0.8 0.444,0.748 2.722,-0.138 6.671,-0.723 15.949,-0.054 0,0 0.806,-0.196 0.277,-0.779 L -16.67,0.221 C -18.782,-0.723 -18.503,0 -18.559,-2.167 l 0.065,-18.862 c 0,-4.624 2.378,-10.349 9.867,-10.349 10.185,0 10.279,8.812 10.279,10.771 l 0.02,18.684 C 1.779,-0.163 1.558,-0.666 0,0"
           style="fill:#daae06;fill-opacity:1;fill-rule:nonzero;stroke:none"
           transform="matrix(0.38448765,0,0,-0.38448765,91.566158,132.69148)"
           clip-path="url(#clipPath14)" /><path
           id="path15"
           d="M 545.478,299.236 H 273.301 v 1.5 h 272.177 z"
           style="fill:#daae06;fill-opacity:1;fill-rule:nonzero;stroke:none"
           transform="matrix(0.38448765,0,0,-0.38448765,-23.668061,264.34079)"
           clip-path="url(#clipPath16)" /><path
           id="path17"
           d="m 0,0 c -0.94,1.27 -2.467,1.951 -4.042,1.951 -2.819,0 -4.723,-2.162 -4.723,-4.912 0,-2.796 1.927,-4.816 4.794,-4.816 1.504,0 3.008,0.728 3.971,1.88 v -5.523 c -1.527,-0.47 -2.632,-0.822 -4.065,-0.822 -2.467,0 -4.817,0.939 -6.65,2.608 -1.951,1.762 -2.844,4.066 -2.844,6.696 0,2.421 0.917,4.748 2.609,6.487 1.739,1.785 4.253,2.866 6.744,2.866 1.48,0 2.843,-0.329 4.206,-0.893 z"
           style="fill:#ffffff;fill-opacity:1;fill-rule:nonzero;stroke:none"
           transform="matrix(0.38448765,0,0,-0.38448765,86.076136,155.12454)"
           clip-path="url(#clipPath18)" /><path
           id="path19"
           d="m 0,0 c 0,-3.055 2.256,-5.287 5.005,-5.287 2.749,0 5.005,2.232 5.005,5.287 0,2.444 -2.256,4.677 -5.005,4.677 C 2.256,4.677 0,2.444 0,0 m 14.804,0.023 c 0,-5.733 -4.112,-9.775 -9.799,-9.775 -5.687,0 -9.799,4.042 -9.799,9.775 0,5.359 4.7,9.119 9.799,9.119 5.099,0 9.799,-3.76 9.799,-9.119"
           style="fill:#ffffff;fill-opacity:1;fill-rule:nonzero;stroke:none"
           transform="matrix(0.38448765,0,0,-0.38448765,89.57313,156.12743)"
           clip-path="url(#clipPath20)" /><path
           id="path21"
           d="M 0,0 H 4.535 L 8.131,-9.47 11.938,0 h 4.582 l 2.678,-17.718 H 14.593 L 13.3,-7.52 H 13.253 L 9,-17.718 H 7.167 L 3.102,-7.52 H 3.055 l -1.48,-10.198 h -4.583 z"
           style="fill:#ffffff;fill-opacity:1;fill-rule:nonzero;stroke:none"
           transform="matrix(0.38448765,0,0,-0.38448765,97.469971,152.8386)"
           clip-path="url(#clipPath22)" /><path
           id="path23"
           d="m 0,0 h 0.776 c 1.668,0 3.313,0 3.313,2.162 0,2.233 -1.527,2.256 -3.313,2.256 L 0,4.418 Z m -4.605,8.131 h 7.049 c 3.807,0 6.439,-1.763 6.439,-5.827 0,-4.183 -2.256,-6.016 -6.275,-6.016 H 0 v -5.875 h -4.605 z"
           style="fill:#ffffff;fill-opacity:1;fill-rule:nonzero;stroke:none"
           transform="matrix(0.38448765,0,0,-0.38448765,108.27615,155.96483)"
           clip-path="url(#clipPath24)" /><path
           id="path25"
           d="m 0,0 v -9.963 c 0,-2.279 -0.094,-4.535 -1.856,-6.251 -1.481,-1.457 -3.807,-1.973 -5.875,-1.973 -2.068,0 -4.394,0.516 -5.875,1.973 -1.762,1.716 -1.856,3.972 -1.856,6.251 V 0 h 4.606 v -9.329 c 0,-2.303 0.164,-4.817 3.125,-4.817 2.96,0 3.125,2.514 3.125,4.817 V 0 Z"
           style="fill:#ffffff;fill-opacity:1;fill-rule:nonzero;stroke:none"
           transform="matrix(0.38448765,0,0,-0.38448765,119.29003,152.8386)"
           clip-path="url(#clipPath26)" /><path
           id="path27"
           d="m 0,0 h -4.605 v 13.817 h -3.807 v 3.901 H 3.807 V 13.817 H 0 Z"
           style="fill:#ffffff;fill-opacity:1;fill-rule:nonzero;stroke:none"
           transform="matrix(0.38448765,0,0,-0.38448765,124.02477,159.65088)"
           clip-path="url(#clipPath28)" /><path
           id="path29"
           d="m 0,0 v -2.961 h 5.193 v -3.9 H 0 v -3.056 h 5.476 v -3.9 H -4.605 V 3.9 H 5.476 V 0 Z"
           style="fill:#ffffff;fill-opacity:1;fill-rule:nonzero;stroke:none"
           transform="matrix(0.38448765,0,0,-0.38448765,128.80456,154.33825)"
           clip-path="url(#clipPath30)" /><path
           id="path31"
           d="M 0,0 H 0.446 C 1.95,0 3.642,0.282 3.642,2.209 3.642,4.136 1.95,4.418 0.446,4.418 H 0 Z M 10.128,-9.775 H 4.394 L 0.047,-2.961 H 0 V -9.775 H -4.605 V 7.942 h 6.884 c 3.501,0 6.157,-1.668 6.157,-5.451 0,-2.444 -1.363,-4.558 -3.877,-5.006 z"
           style="fill:#ffffff;fill-opacity:1;fill-rule:nonzero;stroke:none"
           transform="matrix(0.38448765,0,0,-0.38448765,134.67776,155.89235)"
           clip-path="url(#clipPath32)" /><path
           id="path33"
           d="m 0,0 c -0.846,0.705 -1.927,1.175 -3.055,1.175 -0.845,0 -1.974,-0.493 -1.974,-1.481 0,-1.034 1.246,-1.433 2.045,-1.691 L -1.81,-2.35 c 2.468,-0.728 4.372,-1.974 4.372,-4.84 0,-1.763 -0.423,-3.573 -1.833,-4.771 -1.387,-1.175 -3.244,-1.668 -5.03,-1.668 -2.232,0 -4.417,0.752 -6.226,2.021 l 1.973,3.712 c 1.152,-1.01 2.515,-1.833 4.089,-1.833 1.081,0 2.233,0.541 2.233,1.787 0,1.292 -1.81,1.739 -2.797,2.02 -2.89,0.822 -4.793,1.574 -4.793,5.006 0,3.595 2.561,5.944 6.109,5.944 1.786,0 3.972,-0.563 5.546,-1.456 z"
           style="fill:#ffffff;fill-opacity:1;fill-rule:nonzero;stroke:none"
           transform="matrix(0.38448765,0,0,-0.38448765,147.33621,154.59132)"
           clip-path="url(#clipPath34)" /><path
           id="path35"
           d="m 0,0 c -0.94,1.27 -2.468,1.951 -4.042,1.951 -2.82,0 -4.724,-2.162 -4.724,-4.912 0,-2.796 1.927,-4.816 4.794,-4.816 1.504,0 3.008,0.728 3.972,1.88 v -5.523 c -1.527,-0.47 -2.632,-0.822 -4.065,-0.822 -2.468,0 -4.818,0.939 -6.651,2.608 -1.95,1.762 -2.843,4.066 -2.843,6.696 0,2.421 0.916,4.748 2.609,6.487 1.738,1.785 4.253,2.866 6.744,2.866 1.479,0 2.843,-0.329 4.206,-0.893 z"
           style="fill:#ffffff;fill-opacity:1;fill-rule:nonzero;stroke:none"
           transform="matrix(0.38448765,0,0,-0.38448765,154.8446,155.12454)"
           clip-path="url(#clipPath36)" /><path
           id="path37"
           d="m 474.086,272.284 h -4.605 v 17.718 h 4.605 z"
           style="fill:#ffffff;fill-opacity:1;fill-rule:nonzero;stroke:none"
           transform="matrix(0.38448765,0,0,-0.38448765,-23.668061,264.34079)"
           clip-path="url(#clipPath38)" /><path
           id="path39"
           d="m 0,0 v -2.961 h 5.193 v -3.9 H 0 v -3.056 h 5.476 v -3.9 H -4.605 V 3.9 H 5.476 V 0 Z"
           style="fill:#ffffff;fill-opacity:1;fill-rule:nonzero;stroke:none"
           transform="matrix(0.38448765,0,0,-0.38448765,162.44312,154.33825)"
           clip-path="url(#clipPath40)" /><path
           id="path41"
           d="m 0,0 h 4.605 l 8.437,-10.833 h 0.047 V 0 h 4.605 V -17.718 H 13.089 L 4.652,-6.861 H 4.605 V -17.718 H 0 Z"
           style="fill:#ffffff;fill-opacity:1;fill-rule:nonzero;stroke:none"
           transform="matrix(0.38448765,0,0,-0.38448765,166.54518,152.8386)"
           clip-path="url(#clipPath42)" /><path
           id="path43"
           d="m 0,0 c -0.94,1.27 -2.468,1.951 -4.042,1.951 -2.82,0 -4.724,-2.162 -4.724,-4.912 0,-2.796 1.927,-4.816 4.794,-4.816 1.504,0 3.008,0.728 3.972,1.88 v -5.523 c -1.527,-0.47 -2.632,-0.822 -4.065,-0.822 -2.468,0 -4.818,0.939 -6.651,2.608 -1.95,1.762 -2.843,4.066 -2.843,6.696 0,2.421 0.916,4.748 2.609,6.487 1.738,1.785 4.253,2.866 6.744,2.866 1.479,0 2.843,-0.329 4.206,-0.893 z"
           style="fill:#ffffff;fill-opacity:1;fill-rule:nonzero;stroke:none"
           transform="matrix(0.38448765,0,0,-0.38448765,180.18849,155.12454)"
           clip-path="url(#clipPath44)" /><path
           id="path45"
           d="m 0,0 v -2.961 h 5.193 v -3.9 H 0 v -3.056 h 5.476 v -3.9 H -4.605 V 3.9 H 5.476 V 0 Z"
           style="fill:#ffffff;fill-opacity:1;fill-rule:nonzero;stroke:none"
           transform="matrix(0.38448765,0,0,-0.38448765,183.95605,154.33825)"
           clip-path="url(#clipPath46)" /></g></g></g></svg>
