<?xml version="1.0" encoding="UTF-8" standalone="no"?>
<!-- Created with Inkscape (http://www.inkscape.org/) -->

<svg
   width="2.1999993in"
   height="0.66122222in"
   viewBox="0 0 55.879983 16.795044"
   version="1.1"
   id="svg1"
   inkscape:version="1.3 (0e150ed6c4, 2023-07-21)"
   sodipodi:docname="poster.svg"
   xml:space="preserve"
   inkscape:export-filename="poster.png"
   inkscape:export-xdpi="160"
   inkscape:export-ydpi="160"
   xmlns:inkscape="http://www.inkscape.org/namespaces/inkscape"
   xmlns:sodipodi="http://sodipodi.sourceforge.net/DTD/sodipodi-0.dtd"
   xmlns:xlink="http://www.w3.org/1999/xlink"
   xmlns="http://www.w3.org/2000/svg"
   xmlns:svg="http://www.w3.org/2000/svg"><sodipodi:namedview
     id="namedview1"
     pagecolor="#ffffff"
     bordercolor="#999999"
     borderopacity="1"
     inkscape:showpageshadow="2"
     inkscape:pageopacity="0"
     inkscape:pagecheckerboard="false"
     inkscape:deskcolor="#d1d1d1"
     inkscape:document-units="in"
     inkscape:zoom="1"
     inkscape:cx="511"
     inkscape:cy="447.5"
     inkscape:window-width="1920"
     inkscape:window-height="1009"
     inkscape:window-x="-8"
     inkscape:window-y="-8"
     inkscape:window-maximized="1"
     inkscape:current-layer="layer1"
     inkscape:export-bgcolor="#ffffff00" /><defs
     id="defs1"><marker
       style="overflow:visible"
       id="ArrowWide"
       refX="0"
       refY="0"
       orient="auto-start-reverse"
       inkscape:stockid="Wide arrow"
       markerWidth="1"
       markerHeight="1"
       viewBox="0 0 1 1"
       inkscape:isstock="true"
       inkscape:collect="always"
       preserveAspectRatio="xMidYMid"><path
         style="fill:none;stroke:context-stroke;stroke-width:1;stroke-linecap:butt"
         d="M 3,-3 0,0 3,3"
         transform="rotate(180,0.125,0)"
         sodipodi:nodetypes="ccc"
         id="path95" /></marker></defs><g
     inkscape:label="Layer 1"
     inkscape:groupmode="layer"
     id="layer1"
     transform="translate(-243.83999,-16.230601)"><g
       id="g106"
       transform="matrix(1.0541108,0,0,1.0541108,-1.6635842,66.704284)"
       inkscape:export-filename="..\..\Github\YesWeCan-Poster\assets\cyber_comms.svg"
       inkscape:export-xdpi="160"
       inkscape:export-ydpi="160"><path
         style="fill:#ffffff;fill-opacity:1;stroke:#000000;stroke-width:0.381;stroke-linecap:square;stroke-linejoin:round;stroke-dasharray:3.048, 1.143;stroke-dashoffset:1.3335;stroke-opacity:1;marker-end:url(#ArrowWide)"
         d="m 14.148533,112.44834 46.934827,3.7669"
         id="path87" /><path
         style="fill:#ffffff;fill-opacity:1;stroke:#000000;stroke-width:0.381;stroke-linecap:square;stroke-linejoin:round;stroke-dasharray:3.048, 1.143;stroke-dashoffset:1.3335;stroke-opacity:1;marker-end:url(#ArrowWide)"
         d="m 61.316226,120.93454 -46.934827,3.76689"
         id="path96" /><text
         xml:space="preserve"
         style="font-style:normal;font-variant:normal;font-weight:normal;font-stretch:normal;font-size:2.98217px;line-height:1.85;font-family:'Proxima Nova';-inkscape-font-specification:'Proxima Nova, Normal';font-variant-ligatures:normal;font-variant-caps:normal;font-variant-numeric:normal;font-variant-east-asian:normal;fill:#000000;fill-opacity:1;stroke:none;stroke-width:0.381;stroke-linecap:square;stroke-linejoin:miter;stroke-dasharray:none;stroke-dashoffset:0;stroke-opacity:1"
         id="text104"
         transform="rotate(180,44.342019,121.84917)"><textPath
           xlink:href="#path96"
           id="textPath104">Transmit Counter Values</textPath></text><text
         xml:space="preserve"
         style="font-style:normal;font-variant:normal;font-weight:normal;font-stretch:normal;font-size:2.98217px;line-height:1.85;font-family:'Proxima Nova';-inkscape-font-specification:'Proxima Nova, Normal';font-variant-ligatures:normal;font-variant-caps:normal;font-variant-numeric:normal;font-variant-east-asian:normal;text-align:center;text-anchor:middle;fill:#000000;fill-opacity:1;stroke:none;stroke-width:0.381;stroke-linecap:square;stroke-linejoin:miter;stroke-dasharray:none;stroke-dashoffset:0;stroke-opacity:1"
         id="text72-4"
         transform="translate(-5.9679145,-1.3289296)"
         x="10.932624"
         y="0"><textPath
           xlink:href="#path87"
           startOffset="50%"
           id="textPath103">Request Counter Values</textPath></text><text
         xml:space="preserve"
         style="font-style:normal;font-variant:normal;font-weight:normal;font-stretch:normal;font-size:2.98217px;line-height:1.85;font-family:'Proxima Nova';-inkscape-font-specification:'Proxima Nova, Normal';font-variant-ligatures:normal;font-variant-caps:normal;font-variant-numeric:normal;font-variant-east-asian:normal;text-align:center;text-anchor:middle;fill:#000000;fill-opacity:1;stroke:none;stroke-width:0.381;stroke-linecap:square;stroke-linejoin:miter;stroke-dasharray:none;stroke-dashoffset:0;stroke-opacity:1"
         id="text105"
         transform="translate(-2.1183851,15.821407)"
         x="10.932624"
         y="0"><textPath
           xlink:href="#path87"
           startOffset="50%"
           id="textPath105">Transmit Encrypted Messages</textPath></text><text
         xml:space="preserve"
         style="font-style:normal;font-variant:normal;font-weight:normal;font-stretch:normal;font-size:2.98217px;line-height:1.85;font-family:'Proxima Nova';-inkscape-font-specification:'Proxima Nova, Normal';font-variant-ligatures:normal;font-variant-caps:normal;font-variant-numeric:normal;font-variant-east-asian:normal;text-align:center;text-anchor:middle;fill:#000000;fill-opacity:1;stroke:none;stroke-width:0.381;stroke-linecap:square;stroke-linejoin:miter;stroke-dasharray:none;stroke-dashoffset:0;stroke-opacity:1"
         id="text106"
         transform="translate(-3.2510522,28.452591)"
         x="10.932624"
         y="0"><textPath
           xlink:href="#path87"
           startOffset="50%"
           id="textPath106">Occasionally Sync. Counters</textPath></text></g><g
       id="g28"><g
         id="g2"
         transform="matrix(0.3430395,0,0,0.34306742,216.24818,-10.455757)"><path
           style="fill:#ffffff;fill-opacity:1;stroke-width:0.511798"
           d="m 85.807523,125.13989 c -1.93249,-0.45444 -5.454729,-4.09971 -5.372786,-5.12332 0.115339,-1.44017 0.708261,-9.25324 0.706963,-14.95281 -3.1e-4,-1.33707 0.237951,-2.3055 0.454408,-2.43105 0.262919,-0.1525 0.693472,-0.52353 0.985017,-1.16339 1.62477,-3.565994 12.572156,-6.557998 29.714835,-8.121301 l 12.14275,-1.107347 6.65339,-3.408235 c 8.6234,-4.417408 17.12266,-7.98136 22.02203,-9.234408 11.95786,-3.058305 41.99696,-2.151698 67.48457,2.036739 3.54669,0.582834 3.9624,0.850798 2.30754,1.487353 -1.17067,0.450312 -1.17977,0.48889 -0.20225,0.85729 0.56299,0.212166 3.44185,1.470977 6.39749,2.797361 2.95563,1.32638 6.74065,2.915838 8.41112,3.532123 3.84175,1.41733 3.82131,1.403063 3.54265,2.47221 -0.21173,0.812234 -0.95325,0.879696 -8.00672,0.728432 l -7.77337,-0.166702 -4.88955,-3.49094 c -2.68925,-1.920016 -5.19603,-3.860206 -5.57058,-4.311532 -1.50121,-1.808829 0.8631,-0.714272 6.53439,3.025132 l 5.81061,3.831249 6.47256,-0.017 6.47255,-0.017 -4.85347,-1.339553 c -11.95823,-4.398399 -24.67514,-9.625196 -36.15381,-10.029468 -11.47868,-0.404272 -24.91435,-2.179598 -37.35059,-0.503279 -5.84324,0.787627 -10.36431,1.435149 -17.71039,4.699243 -9.30762,4.135662 -12.60993,6.806577 -16.97847,8.253123 -2.99611,0.992088 -14.20027,2.130467 -24.43063,2.158545 -5.471032,0.389734 -18.877042,4.277932 -18.877042,5.558975 0,0.24682 1.159652,0.44877 2.577014,0.44877 2.418392,0 2.543271,0.063 2.029185,1.0236 -0.442106,0.82607 -1.071622,1.0236 -3.26217,1.0236 h -2.714342 l -0.157379,3.19874 c -0.21863,4.44445 -0.145498,10.48706 0.156283,12.90781 0.281015,2.25443 2.194771,4.20673 4.381407,4.46963 0.693748,0.0834 1.355891,0.43955 1.47143,0.7914 0.23298,0.70956 0.122102,0.71487 -2.424643,0.11598 z m 145.852967,-1.42207 c 0.42221,-0.25619 2.4714,-0.89764 4.55373,-1.42544 3.46843,-0.8791 3.8472,-1.1059 4.51462,-2.70333 0.40669,-0.9733 0.76905,-3.71713 0.82016,-6.21017 0.0815,-3.96645 0.1709,-4.35313 0.80077,-3.45416 0.58765,0.83879 0.60565,1.75268 0.10491,5.33207 -0.86982,6.21767 -1.10019,6.64157 -4.0924,7.53016 -3.18783,0.94669 -7.77881,1.58438 -6.70181,0.93088 z m 4.60623,-9.31384 c 0.60137,-0.84451 2.21961,-3.89611 3.59612,-6.78133 1.37654,-2.8852 2.51235,-4.87216 2.52408,-4.41544 0.0128,0.4567 -0.65406,3.10206 -1.47954,5.87858 -1.53311,5.1567 -2.7048,6.85369 -4.73227,6.85369 -0.9741,0 -0.97158,-0.0424 0.0918,-1.5355 z m 6.14154,-13.27646 c 0,-0.54636 -0.28266,-1.385369 -0.36805,-1.705065 -0.2096,-0.785 -0.61965,-1.136877 -0.61965,-1.876216 0,-0.739343 -0.53667,-1.266272 -1.14873,-1.917766 -0.85727,-0.912521 -0.93426,-1.184534 -0.33522,-1.184534 1.13284,0 2.61329,1.836774 2.78723,3.458137 0.0828,0.772168 0.30288,2.037299 0.48899,2.811394 0.21565,0.89708 0.13124,1.40744 -0.23313,1.40744 -0.3143,0 -0.57144,-0.44702 -0.57144,-0.99339 z"
           id="path4788"
           sodipodi:nodetypes="sssssscssssssssscsssccccsssscsssscssssssssscssssscscssccsssssssss" /><path
           style="fill:#ffffff;fill-opacity:1;stroke-width:0.0923496"
           d="M 178.50159,112.81849 V 98.91936 l 8.18292,0.02354 8.18291,0.02354 1.45769,3.13989 1.45767,3.13989 -5.5772,0.0238 -5.57722,0.0238 v 2.07716 2.07714 h 6.65349 6.65348 l 1.47531,2.97829 1.47529,2.97828 -0.62537,0.0578 c -0.34393,0.0318 -4.00501,0.0629 -8.13571,0.0692 l -7.51034,0.0115 0.0521,0.80805 c 0.0285,0.44444 0.0775,1.49896 0.10857,2.34339 l 0.0567,1.53532 9.20869,0.0687 9.20868,0.0688 1.58673,3.17506 1.58675,3.17505 h -14.96048 -14.96047 z"
           id="path1285-2-6-2" /><path
           style="fill:#ffffff;fill-opacity:1;stroke-width:0.0923496"
           d="m 211.12844,121.21239 c -1.4833,-3.0418 -4.21929,-8.64737 -6.07999,-12.45679 -3.24102,-6.63538 -4.65997,-9.581548 -4.65997,-9.675495 0,-0.13528 1.40223,-0.164581 5.03114,-0.105102 l 4.06529,0.06667 2.58057,5.318727 c 5.03725,10.38227 8.44476,17.20305 8.559,17.13244 0.17932,-0.1109 2.67345,-5.27936 8.32977,-17.26233 l 2.44116,-5.171584 4.35548,-0.07828 c 2.39553,-0.04314 4.45517,-0.05327 4.57692,-0.02276 0.22047,0.05535 0.21847,0.06186 -0.45237,1.463574 -2.08899,4.3652 -12.68997,26.04114 -12.77737,26.12608 -0.0365,0.0357 -3.03806,0.0942 -6.66969,0.13018 l -6.60301,0.0653 z"
           id="path1287-1-7-7" /><path
           style="fill:#ffbf00;fill-opacity:1;stroke-width:0.0923496"
           d="M 149.31934,112.6374 V 98.828003 l 3.5324,0.007 c 6.14654,0.01152 11.10193,0.143122 11.87698,0.315696 2.601,0.579162 4.69341,1.536721 6.44908,2.951341 2.23598,1.80159 3.78848,4.40817 4.43068,7.43899 0.21489,1.01397 0.24199,4.84824 0.0415,5.8642 -0.36946,1.87203 -1.43184,4.28051 -2.44629,5.54601 -0.77249,0.96361 -2.11075,2.23379 -2.95091,2.80071 -1.77729,1.1993 -4.28887,2.14032 -6.42029,2.40551 -1.03173,0.12837 -3.02763,0.17995 -9.27228,0.23966 l -5.24084,0.0501 z m 14.25717,6.78752 c 2.1431,-0.73127 3.58558,-2.21768 4.33446,-4.46645 0.26914,-0.80821 0.28208,-0.91776 0.28574,-2.41653 0.004,-1.75899 -0.0943,-2.29585 -0.62746,-3.41694 -0.65182,-1.37052 -1.61595,-2.34475 -2.96605,-2.99711 -1.25293,-0.60542 -1.74966,-0.67838 -4.91762,-0.72234 l -2.79356,-0.0388 v 7.22113 7.22112 l 2.88591,-0.0363 2.88595,-0.0363 z"
           id="path8133-5-6-9" /><path
           style="fill:#ffbf00;fill-opacity:1;stroke-width:0.0923496"
           d="m 131.81908,126.47075 c -3.31003,-0.76124 -5.39997,-1.8642 -7.48477,-3.95005 -2.01177,-2.01278 -3.18747,-4.20055 -3.79924,-7.06974 -0.24071,-1.12903 -0.24071,-4.59666 0,-5.72569 0.3999,-1.87554 1.37434,-4.11583 2.38999,-5.49481 1.12642,-1.52934 3.20704,-3.27036 4.95903,-4.14956 1.30692,-0.655868 3.07112,-1.214076 4.53526,-1.434995 1.01121,-0.15259 4.28901,-0.128225 5.3843,0.04002 3.49606,0.536985 6.90263,2.955385 8.76828,6.224795 0.29205,0.51181 0.52962,0.96292 0.52792,1.00248 -0.002,0.0396 -0.57308,0.33859 -1.26979,0.66453 -2.32797,1.08909 -4.58926,2.11497 -4.79034,2.17325 -0.16835,0.0488 -0.25292,-0.031 -0.54909,-0.51861 -0.45117,-0.74274 -1.48052,-1.8244 -2.18172,-2.29265 -0.30271,-0.20214 -0.88939,-0.47966 -1.30373,-0.6167 -0.66353,-0.21946 -0.90194,-0.24978 -2.00004,-0.25437 -1.47631,-0.006 -2.05131,0.12121 -3.27842,0.72614 -2.07481,1.02284 -3.46987,2.95849 -3.8425,5.3314 -0.13398,0.85269 -0.0499,2.96911 0.14787,3.72451 0.66019,2.52222 2.73025,4.60094 5.14986,5.17145 0.74579,0.17584 2.80725,0.18181 3.45247,0.0101 1.44816,-0.38559 2.83218,-1.45445 3.77946,-2.91876 0.23005,-0.35563 0.46316,-0.64659 0.51801,-0.64659 0.20505,0 5.97715,2.63811 6.14976,2.81071 0.0727,0.0727 -0.7202,1.42504 -1.27181,2.16902 -1.36344,1.83886 -2.687,2.95577 -4.66341,3.93528 -2.2433,1.11177 -3.3823,1.34152 -6.58971,1.32918 -1.4976,-0.006 -1.85402,-0.037 -2.73761,-0.24024 z"
           id="path9068-5-0-6" /><path
           style="fill:#ffbf00;fill-opacity:1;stroke-width:0.0921686;stroke-dasharray:none"
           d="m 101.75924,126.53474 c -4.632177,-0.84294 -7.794198,-3.40022 -9.080319,-7.34363 -0.132703,-0.40633 -0.285567,-1.00892 -0.340111,-1.33907 -0.148422,-0.89841 -0.267983,-6.7056 -0.272388,-13.22909 l -0.0036,-5.794947 h 3.6898 3.689817 l 0.04844,0.300138 c 0.0265,0.165075 0.06032,4.123419 0.07476,8.796309 l 0.02614,8.49618 0.424741,0.88621 c 0.23364,0.48743 0.58025,1.05831 0.77026,1.26863 0.47791,0.52901 1.31365,1.06686 2.05618,1.32332 0.55944,0.19322 0.78924,0.21582 2.19481,0.21582 1.3853,0 1.6514,-0.0253 2.26255,-0.21551 1.22001,-0.37958 2.05366,-1.07406 2.66405,-2.21932 0.55516,-1.04152 0.55339,-1.01269 0.61428,-10.02533 0.0305,-4.5244 0.076,-8.361231 0.10126,-8.526309 l 0.0457,-0.300138 h 3.65821 3.6582 l -0.0561,9.304237 -0.0561,9.30423 -0.2774,0.97787 c -1.27261,4.48621 -4.11372,7.06732 -8.84717,8.03751 -0.85917,0.17611 -1.34911,0.20823 -3.53695,0.23188 -2.18136,0.0235 -2.6764,0.003 -3.50928,-0.149 z"
           id="path9070-8-8-3" /></g></g></g></svg>
